<?xml version="1.0" encoding="UTF-8"?>
<svg xmlns="http://www.w3.org/2000/svg" xmlns:xlink="http://www.w3.org/1999/xlink" width="64px" height="64px" viewBox="0 0 64 64" version="1.1">
<g id="surface1">
<path style=" stroke:none;fill-rule:nonzero;fill:rgb(90.980392%,61.568627%,26.27451%);fill-opacity:1;" d="M 50.746094 6.191406 C 51.046875 6.492188 51.324219 6.808594 51.578125 7.144531 C 51.601562 7.175781 51.605469 7.21875 51.589844 7.25 L 50.078125 10.144531 C 50.058594 10.183594 50.058594 10.226562 50.074219 10.265625 L 50.65625 11.636719 C 50.671875 11.671875 50.703125 11.703125 50.738281 11.714844 L 53.796875 12.679688 C 53.867188 12.703125 53.917969 12.765625 53.921875 12.835938 C 54.007812 13.664062 54.007812 14.453125 53.921875 15.195312 C 53.917969 15.234375 53.890625 15.265625 53.855469 15.277344 L 50.792969 16.253906 C 50.71875 16.277344 50.652344 16.335938 50.621094 16.421875 L 50.074219 17.734375 C 50.058594 17.773438 50.058594 17.816406 50.074219 17.847656 L 51.59375 20.746094 C 51.609375 20.78125 51.609375 20.828125 51.582031 20.859375 C 51.074219 21.496094 50.496094 22.074219 49.859375 22.582031 C 49.828125 22.609375 49.78125 22.613281 49.746094 22.59375 L 46.828125 21.066406 C 46.796875 21.050781 46.753906 21.050781 46.71875 21.070312 C 46.304688 21.296875 45.855469 21.488281 45.363281 21.636719 C 45.324219 21.648438 45.292969 21.679688 45.28125 21.722656 L 44.289062 24.847656 C 44.277344 24.886719 44.246094 24.910156 44.207031 24.917969 C 43.457031 25.011719 42.664062 25.015625 41.824219 24.925781 C 41.753906 24.917969 41.695312 24.867188 41.675781 24.800781 L 40.699219 21.722656 C 40.6875 21.6875 40.660156 21.660156 40.621094 21.644531 L 39.273438 21.089844 C 39.234375 21.074219 39.195312 21.074219 39.164062 21.089844 L 36.25 22.597656 C 36.214844 22.617188 36.167969 22.613281 36.136719 22.585938 C 35.535156 22.078125 34.976562 21.523438 34.460938 20.910156 C 34.414062 20.855469 34.40625 20.773438 34.441406 20.707031 L 35.910156 17.835938 C 35.925781 17.804688 35.925781 17.761719 35.910156 17.726562 L 35.359375 16.378906 C 35.339844 16.339844 35.3125 16.3125 35.277344 16.300781 L 32.191406 15.324219 C 32.128906 15.300781 32.082031 15.246094 32.074219 15.179688 C 31.992188 14.34375 31.988281 13.546875 32.070312 12.792969 C 32.074219 12.75 32.105469 12.714844 32.144531 12.703125 L 35.285156 11.707031 C 35.324219 11.695312 35.355469 11.664062 35.363281 11.625 C 35.5 11.191406 35.679688 10.753906 35.90625 10.320312 C 35.941406 10.257812 35.941406 10.183594 35.90625 10.121094 L 34.425781 7.269531 C 34.402344 7.21875 34.410156 7.15625 34.445312 7.109375 C 34.941406 6.515625 35.496094 5.960938 36.109375 5.453125 C 36.164062 5.40625 36.238281 5.398438 36.300781 5.429688 L 39.160156 6.921875 C 39.191406 6.9375 39.234375 6.9375 39.273438 6.921875 L 40.621094 6.355469 C 40.660156 6.339844 40.6875 6.308594 40.699219 6.273438 L 41.664062 3.234375 C 41.6875 3.152344 41.757812 3.089844 41.839844 3.082031 C 42.683594 2.980469 43.472656 2.984375 44.210938 3.09375 C 44.25 3.097656 44.28125 3.125 44.292969 3.160156 L 45.273438 6.238281 C 45.292969 6.296875 45.34375 6.347656 45.410156 6.375 L 46.726562 6.921875 C 46.769531 6.941406 46.820312 6.941406 46.855469 6.921875 L 49.699219 5.433594 C 49.757812 5.40625 49.828125 5.410156 49.882812 5.453125 C 50.214844 5.707031 50.503906 5.953125 50.746094 6.191406 Z M 46.992188 14 C 46.992188 11.796875 45.203125 10.007812 43 10.007812 C 40.796875 10.007812 39.007812 11.796875 39.007812 14 C 39.007812 16.203125 40.796875 17.988281 43 17.988281 C 45.203125 17.988281 46.992188 16.203125 46.992188 14 Z M 46.992188 14 "/>
<path style=" stroke:none;fill-rule:nonzero;fill:rgb(27.058824%,29.019608%,42.745098%);fill-opacity:1;" d="M 58.285156 6.5625 C 59.578125 9.257812 60.140625 12.03125 59.96875 14.875 C 59.753906 18.472656 58.535156 21.699219 56.3125 24.558594 C 56.289062 24.589844 56.246094 24.59375 56.214844 24.570312 L 54.78125 23.425781 C 54.738281 23.390625 54.730469 23.328125 54.765625 23.28125 C 56.707031 20.820312 57.765625 18.015625 57.949219 14.875 C 58.089844 12.359375 57.640625 9.960938 56.601562 7.679688 C 56.542969 7.546875 56.5 7.554688 56.472656 7.695312 L 56 10.117188 C 55.988281 10.160156 55.945312 10.191406 55.902344 10.179688 L 54.121094 9.828125 C 54.070312 9.816406 54.035156 9.765625 54.046875 9.714844 L 55.214844 3.914062 C 55.222656 3.878906 55.253906 3.855469 55.289062 3.863281 L 61.121094 5.011719 C 61.15625 5.019531 61.179688 5.054688 61.171875 5.089844 L 60.796875 6.910156 C 60.789062 6.941406 60.753906 6.960938 60.71875 6.953125 L 58.320312 6.515625 C 58.277344 6.511719 58.265625 6.527344 58.285156 6.5625 Z M 58.285156 6.5625 "/>
<path style=" stroke:none;fill-rule:nonzero;fill:rgb(27.058824%,29.019608%,42.745098%);fill-opacity:1;" d="M 23.429688 18.066406 C 21.238281 17.917969 19.128906 18.066406 17.101562 18.507812 C 11.683594 19.6875 7.191406 22.375 3.625 26.578125 C 3.589844 26.621094 3.523438 26.625 3.480469 26.585938 L 2.132812 25.457031 C 2.074219 25.40625 2.0625 25.316406 2.113281 25.257812 C 5.667969 21.113281 10.042969 18.328125 15.246094 16.910156 C 17.96875 16.167969 20.722656 15.882812 23.507812 16.058594 C 23.597656 16.066406 23.613281 16.035156 23.546875 15.96875 L 22.355469 14.761719 C 22.328125 14.738281 22.328125 14.695312 22.355469 14.671875 L 23.667969 13.359375 C 23.699219 13.328125 23.75 13.328125 23.785156 13.359375 L 27.375 16.953125 C 27.402344 16.980469 27.402344 17.019531 27.375 17.046875 L 23.765625 20.660156 C 23.730469 20.695312 23.671875 20.691406 23.636719 20.65625 L 22.359375 19.355469 C 22.332031 19.328125 22.332031 19.289062 22.355469 19.265625 L 23.449219 18.113281 C 23.476562 18.085938 23.46875 18.070312 23.429688 18.066406 Z M 23.429688 18.066406 "/>
<path style=" stroke:none;fill-rule:nonzero;fill:rgb(27.058824%,29.019608%,42.745098%);fill-opacity:1;" d="M 24.402344 56.851562 L 23.539062 60.839844 C 23.527344 60.875 23.5 60.902344 23.460938 60.90625 C 22.488281 61.027344 21.511719 61.027344 20.539062 60.90625 C 20.5 60.902344 20.472656 60.875 20.460938 60.835938 L 19.59375 56.84375 C 19.585938 56.8125 19.5625 56.785156 19.53125 56.78125 C 18.589844 56.609375 17.671875 56.363281 16.765625 56.035156 C 16.726562 56.019531 16.675781 56.035156 16.644531 56.066406 L 13.921875 59.070312 C 13.878906 59.113281 13.816406 59.125 13.761719 59.097656 C 12.882812 58.664062 12.054688 58.1875 11.269531 57.667969 C 11.238281 57.644531 11.226562 57.609375 11.238281 57.570312 L 12.484375 53.699219 C 12.503906 53.648438 12.484375 53.59375 12.449219 53.5625 C 11.746094 52.964844 11.078125 52.292969 10.445312 51.546875 C 10.414062 51.511719 10.359375 51.496094 10.3125 51.511719 L 6.433594 52.761719 C 6.398438 52.773438 6.359375 52.761719 6.339844 52.730469 C 5.820312 51.960938 5.339844 51.128906 4.890625 50.230469 C 4.867188 50.179688 4.878906 50.125 4.917969 50.089844 L 7.933594 47.363281 C 7.96875 47.332031 7.980469 47.28125 7.964844 47.238281 C 7.660156 46.398438 7.417969 45.5 7.230469 44.539062 C 7.214844 44.46875 7.160156 44.410156 7.089844 44.394531 L 3.152344 43.546875 C 3.105469 43.535156 3.070312 43.496094 3.070312 43.449219 C 2.992188 42.445312 2.992188 41.46875 3.070312 40.527344 C 3.070312 40.496094 3.09375 40.472656 3.125 40.464844 L 7.132812 39.597656 C 7.1875 39.585938 7.226562 39.546875 7.234375 39.492188 C 7.398438 38.570312 7.632812 37.679688 7.945312 36.828125 C 7.972656 36.753906 7.953125 36.671875 7.890625 36.617188 L 4.914062 33.917969 C 4.878906 33.886719 4.867188 33.835938 4.890625 33.792969 C 5.292969 32.945312 5.773438 32.109375 6.324219 31.292969 C 6.355469 31.242188 6.417969 31.222656 6.46875 31.242188 L 10.308594 32.488281 C 10.359375 32.503906 10.414062 32.488281 10.449219 32.449219 C 11.039062 31.738281 11.699219 31.078125 12.425781 30.476562 C 12.480469 30.429688 12.503906 30.355469 12.480469 30.285156 L 11.246094 26.445312 C 11.234375 26.40625 11.246094 26.367188 11.277344 26.347656 C 12.078125 25.78125 12.921875 25.296875 13.820312 24.898438 C 13.851562 24.886719 13.890625 24.894531 13.917969 24.921875 L 16.652344 27.945312 C 16.679688 27.972656 16.71875 27.984375 16.753906 27.96875 C 17.648438 27.640625 18.570312 27.390625 19.515625 27.226562 C 19.550781 27.21875 19.582031 27.191406 19.589844 27.152344 L 20.453125 23.179688 C 20.46875 23.121094 20.515625 23.078125 20.578125 23.070312 C 21.535156 22.992188 22.488281 22.992188 23.441406 23.070312 C 23.496094 23.074219 23.539062 23.113281 23.550781 23.167969 L 24.414062 27.152344 C 24.421875 27.191406 24.453125 27.21875 24.488281 27.226562 C 25.386719 27.386719 26.296875 27.628906 27.222656 27.953125 C 27.28125 27.972656 27.347656 27.953125 27.390625 27.90625 L 30.097656 24.914062 C 30.128906 24.878906 30.175781 24.871094 30.21875 24.890625 C 31.082031 25.304688 31.917969 25.785156 32.734375 26.339844 C 32.765625 26.363281 32.78125 26.40625 32.769531 26.445312 L 31.515625 30.332031 C 31.503906 30.371094 31.515625 30.414062 31.546875 30.4375 C 32.289062 31.050781 32.960938 31.730469 33.566406 32.472656 C 33.585938 32.5 33.625 32.511719 33.65625 32.5 L 37.558594 31.246094 C 37.59375 31.234375 37.632812 31.246094 37.652344 31.277344 C 38.207031 32.070312 38.691406 32.90625 39.109375 33.792969 C 39.128906 33.828125 39.117188 33.867188 39.089844 33.894531 L 36.070312 36.632812 C 36.039062 36.664062 36.027344 36.707031 36.039062 36.746094 C 36.34375 37.628906 36.589844 38.546875 36.773438 39.507812 C 36.785156 39.554688 36.824219 39.59375 36.875 39.605469 L 40.820312 40.457031 C 40.878906 40.46875 40.921875 40.519531 40.925781 40.582031 C 41.007812 41.546875 41.007812 42.496094 40.929688 43.421875 C 40.925781 43.480469 40.882812 43.527344 40.828125 43.539062 L 36.863281 44.402344 C 36.820312 44.414062 36.785156 44.449219 36.773438 44.492188 C 36.589844 45.453125 36.34375 46.371094 36.039062 47.25 C 36.027344 47.292969 36.039062 47.335938 36.070312 47.363281 L 39.078125 50.097656 C 39.113281 50.128906 39.125 50.179688 39.101562 50.222656 C 38.675781 51.117188 38.191406 51.949219 37.652344 52.722656 C 37.632812 52.753906 37.59375 52.765625 37.558594 52.753906 L 33.683594 51.519531 C 33.648438 51.507812 33.609375 51.515625 33.582031 51.546875 C 32.941406 52.261719 32.265625 52.941406 31.546875 53.582031 C 31.519531 53.609375 31.507812 53.648438 31.519531 53.683594 L 32.753906 57.558594 C 32.765625 57.59375 32.753906 57.632812 32.722656 57.652344 C 31.925781 58.222656 31.078125 58.707031 30.179688 59.101562 C 30.148438 59.113281 30.109375 59.105469 30.082031 59.078125 L 27.355469 56.078125 C 27.328125 56.050781 27.289062 56.039062 27.253906 56.050781 C 26.34375 56.355469 25.417969 56.597656 24.476562 56.777344 C 24.4375 56.785156 24.410156 56.8125 24.402344 56.851562 Z M 31.996094 42 C 31.996094 36.480469 27.519531 32.003906 22 32.003906 C 16.480469 32.003906 12.003906 36.480469 12.003906 42 C 12.003906 47.519531 16.480469 51.992188 22 51.992188 C 27.519531 51.992188 31.996094 47.519531 31.996094 42 Z M 31.996094 42 "/>
<path style=" stroke:none;fill-rule:nonzero;fill:rgb(29.019608%,76.470588%,92.941176%);fill-opacity:1;" d="M 46.445312 44.035156 C 45.859375 43.601562 45.371094 43.117188 44.972656 42.582031 C 44.949219 42.550781 44.945312 42.507812 44.960938 42.472656 L 45.878906 40.523438 C 45.894531 40.492188 45.894531 40.453125 45.878906 40.414062 L 45.277344 38.925781 C 45.261719 38.886719 45.234375 38.859375 45.199219 38.847656 L 43.210938 38.140625 C 43.140625 38.117188 43.09375 38.058594 43.085938 37.988281 C 42.976562 37.269531 42.976562 36.597656 43.089844 35.976562 C 43.097656 35.9375 43.125 35.90625 43.160156 35.890625 L 45.199219 35.152344 C 45.234375 35.140625 45.265625 35.109375 45.277344 35.074219 C 45.433594 34.566406 45.632812 34.078125 45.878906 33.613281 C 45.898438 33.570312 45.898438 33.519531 45.878906 33.476562 L 44.957031 31.542969 C 44.9375 31.507812 44.945312 31.464844 44.96875 31.429688 C 45.390625 30.867188 45.875 30.378906 46.417969 29.972656 C 46.449219 29.953125 46.488281 29.949219 46.523438 29.960938 L 48.503906 30.878906 C 48.542969 30.894531 48.582031 30.894531 48.617188 30.875 C 49.054688 30.648438 49.523438 30.453125 50.03125 30.292969 C 50.089844 30.273438 50.140625 30.226562 50.160156 30.167969 L 50.859375 28.210938 C 50.882812 28.140625 50.941406 28.09375 51.011719 28.082031 C 51.730469 27.976562 52.402344 27.980469 53.023438 28.089844 C 53.0625 28.097656 53.09375 28.125 53.109375 28.160156 L 53.847656 30.199219 C 53.859375 30.234375 53.890625 30.265625 53.925781 30.277344 C 54.429688 30.433594 54.914062 30.632812 55.382812 30.878906 C 55.417969 30.894531 55.457031 30.894531 55.492188 30.878906 L 57.46875 29.949219 C 57.511719 29.929688 57.558594 29.933594 57.59375 29.964844 C 58.132812 30.40625 58.613281 30.886719 59.042969 31.402344 C 59.066406 31.433594 59.070312 31.476562 59.054688 31.511719 L 58.113281 33.5 C 58.09375 33.542969 58.097656 33.59375 58.121094 33.636719 C 58.371094 34.074219 58.566406 34.546875 58.703125 35.054688 C 58.714844 35.097656 58.75 35.132812 58.792969 35.148438 L 60.824219 35.867188 C 60.878906 35.886719 60.917969 35.933594 60.921875 35.988281 C 61.015625 36.695312 61.015625 37.371094 60.921875 38.007812 C 60.917969 38.046875 60.890625 38.078125 60.859375 38.09375 L 58.8125 38.84375 C 58.765625 38.859375 58.730469 38.894531 58.71875 38.941406 C 58.574219 39.429688 58.375 39.914062 58.113281 40.386719 C 58.09375 40.421875 58.09375 40.464844 58.109375 40.503906 L 59.027344 42.4375 C 59.050781 42.496094 59.042969 42.5625 59.003906 42.609375 C 58.558594 43.179688 58.085938 43.648438 57.582031 44.023438 C 57.550781 44.046875 57.511719 44.050781 57.476562 44.039062 L 55.496094 43.121094 C 55.460938 43.105469 55.421875 43.105469 55.382812 43.121094 L 53.972656 43.71875 C 53.902344 43.75 53.851562 43.800781 53.828125 43.859375 L 53.136719 45.8125 C 53.113281 45.871094 53.0625 45.914062 53 45.921875 C 52.289062 46.015625 51.621094 46.015625 50.988281 45.921875 C 50.953125 45.917969 50.921875 45.890625 50.90625 45.855469 L 50.152344 43.800781 C 50.140625 43.765625 50.109375 43.734375 50.074219 43.722656 C 49.570312 43.570312 49.085938 43.371094 48.617188 43.125 C 48.582031 43.105469 48.542969 43.105469 48.507812 43.121094 L 46.546875 44.042969 C 46.511719 44.058594 46.472656 44.054688 46.445312 44.035156 Z M 54.992188 37 C 54.992188 35.347656 53.652344 34.007812 52 34.007812 C 50.347656 34.007812 49.007812 35.347656 49.007812 37 C 49.007812 38.652344 50.347656 39.992188 52 39.992188 C 53.652344 39.992188 54.992188 38.652344 54.992188 37 Z M 54.992188 37 "/>
</g>
</svg>
