<?xml version="1.0" encoding="UTF-8" standalone="no"?>
<!DOCTYPE svg PUBLIC "-//W3C//DTD SVG 1.1//EN" "http://www.w3.org/Graphics/SVG/1.1/DTD/svg11.dtd">
<svg xmlns="http://www.w3.org/2000/svg" version="1.1" viewBox="0 0 512 512">
<g stroke-width="2.0" fill="none" stroke-linecap="butt">
<path stroke="#72b9a8" vector-effect="non-scaling-stroke" d="
  M 429.29 137.00
  L 429.29 166.00"
/>
<path stroke="#63c5cf" vector-effect="non-scaling-stroke" d="
  M 429.29 166.00
  L 429.00 187.21"
/>
<path stroke="#4ed899" vector-effect="non-scaling-stroke" d="
  M 429.00 187.21
  L 389.29 187.25"
/>
<path stroke="#63c5cf" vector-effect="non-scaling-stroke" d="
  M 389.29 187.25
  L 388.96 165.75"
/>
<path stroke="#72b9a8" vector-effect="non-scaling-stroke" d="
  M 388.96 165.75
  L 388.75 136.79"
/>
<path stroke="#af76a0" vector-effect="non-scaling-stroke" d="
  M 358.29 136.75
  L 358.04 165.75"
/>
<path stroke="#a082c8" vector-effect="non-scaling-stroke" d="
  M 358.04 165.75
  L 357.96 187.75"
/>
<path stroke="#fd4f8c" vector-effect="non-scaling-stroke" d="
  M 357.96 187.75
  Q 357.16 187.79 356.44 187.47
  Q 355.93 187.26 355.50 187.26
  L 317.79 187.25"
/>
<path stroke="#a082c8" vector-effect="non-scaling-stroke" d="
  M 317.79 187.25
  L 317.71 166.00"
/>
<path stroke="#af76a0" vector-effect="non-scaling-stroke" d="
  M 317.71 166.00
  L 317.71 136.75"
/>
<path stroke="#5297d2" vector-effect="non-scaling-stroke" d="
  M 317.71 166.00
  Q 317.40 165.35 316.75 165.75
  Q 183.12 165.75 48.32 165.75
  C 47.87 165.75 47.50 166.12 47.50 166.57
  Q 47.50 271.25 47.50 374.75
  Q 47.50 380.19 47.21 383.50"
/>
<path stroke="#58819f" vector-effect="non-scaling-stroke" d="
  M 47.21 383.50
  L 20.20 383.50
  C 19.94 383.50 19.75 383.25 19.81 383.00
  Q 20.08 381.89 19.29 382.25"
/>
<path stroke="#5297d2" vector-effect="non-scaling-stroke" d="
  M 388.96 165.75
  L 358.04 165.75"
/>
<path stroke="#58819f" vector-effect="non-scaling-stroke" d="
  M 492.79 383.25
  Q 492.55 384.27 491.83 383.86
  Q 491.29 383.56 490.93 383.56
  L 465.44 383.56
  C 465.27 383.56 465.10 383.71 465.02 383.94
  Q 464.95 384.12 464.79 384.25"
/>
<path stroke="#3c88d3" vector-effect="non-scaling-stroke" d="
  M 464.79 384.25
  Q 464.82 383.67 464.46 383.25"
/>
<path stroke="#5297d2" vector-effect="non-scaling-stroke" d="
  M 464.46 383.25
  L 464.50 166.52
  C 464.50 166.24 464.27 166.00 463.99 165.99
  Q 446.77 165.37 429.29 166.00"
/>
<path stroke="#a071bd" vector-effect="non-scaling-stroke" d="
  M 317.79 187.25
  Q 316.96 202.81 317.75 210.50
  Q 318.39 216.75 325.00 216.75
  Q 337.62 216.75 350.25 216.90
  Q 356.38 216.98 357.68 212.47
  Q 358.00 211.37 358.01 205.00
  Q 358.02 196.37 357.96 187.75"
/>
<path stroke="#2eb6c3" vector-effect="non-scaling-stroke" d="
  M 389.29 187.25
  Q 388.82 196.49 388.97 205.75
  Q 388.97 205.80 388.90 208.75
  Q 388.74 215.40 394.04 216.59
  Q 394.74 216.75 402.97 216.75
  Q 410.11 216.75 417.25 216.75
  Q 422.88 216.75 423.76 216.59
  Q 427.99 215.82 429.00 211.90
  Q 429.26 210.89 429.30 203.58
  Q 429.35 195.39 429.00 187.21"
/>
<path stroke="#2d94fa" vector-effect="non-scaling-stroke" d="
  M 464.46 383.25
  Q 446.22 383.75 432.75 383.50
  Q 428.72 383.42 426.21 383.75"
/>
<path stroke="#78b6ee" vector-effect="non-scaling-stroke" d="
  M 426.21 383.75
  L 426.04 383.75"
/>
<path stroke="#80c1f7" vector-effect="non-scaling-stroke" d="
  M 426.04 383.75
  Q 425.93 378.37 426.00 376.50
  Q 426.40 365.25 414.75 365.25
  Q 401.13 365.25 386.75 365.25
  C 386.24 365.25 385.79 364.90 385.66 364.40
  Q 381.10 346.74 370.84 328.62
  C 370.69 328.35 370.73 328.02 370.95 327.80
  Q 380.77 317.77 391.01 307.76
  Q 399.08 299.86 391.17 291.83
  Q 376.70 277.16 361.95 262.77
  Q 358.43 259.32 356.37 258.64
  Q 352.75 257.44 348.89 259.70
  Q 347.14 260.74 344.31 263.56
  Q 335.31 272.56 325.61 282.27
  C 325.32 282.56 324.87 282.62 324.52 282.41
  Q 307.79 272.60 288.69 267.55
  C 288.28 267.44 288.00 267.07 288.00 266.65
  Q 288.00 252.13 288.22 238.50
  Q 288.40 227.25 276.75 227.25
  Q 258.56 227.25 240.38 227.25
  Q 232.82 227.25 231.64 227.46
  Q 226.01 228.49 224.51 233.64
  Q 224.00 235.38 224.00 244.90
  Q 224.00 255.48 224.00 266.56
  C 224.00 267.04 223.67 267.45 223.21 267.57
  Q 204.65 272.27 187.79 282.28
  C 187.28 282.58 186.62 282.50 186.20 282.08
  Q 176.32 272.19 166.86 262.73
  Q 164.05 259.93 162.40 259.12
  Q 159.48 257.70 156.45 258.43
  Q 153.83 259.07 149.94 262.85
  Q 134.90 277.48 120.27 292.52
  Q 115.61 297.31 117.36 302.36
  Q 118.23 304.85 122.94 309.57
  Q 132.00 318.62 141.02 327.65
  C 141.29 327.91 141.34 328.33 141.15 328.66
  Q 131.25 345.70 126.19 364.58
  C 126.11 364.86 125.86 365.06 125.56 365.07
  Q 104.59 365.53 96.75 365.25
  Q 90.80 365.04 87.95 368.85
  Q 86.23 371.15 86.04 376.07
  Q 85.89 379.89 86.00 383.71"
/>
<path stroke="#78b6ee" vector-effect="non-scaling-stroke" d="
  M 86.00 383.71
  L 85.75 383.79"
/>
<path stroke="#2d94fa" vector-effect="non-scaling-stroke" d="
  M 85.75 383.79
  Q 66.52 383.09 47.29 383.75"
/>
<path stroke="#498dc6" vector-effect="non-scaling-stroke" d="
  M 47.29 383.75
  L 47.21 383.50"
/>
<path stroke="#80c1f7" vector-effect="non-scaling-stroke" d="
  M 118.6088 201.8837
  C 118.59 197.83 115.30 194.56 111.2432 194.5694
  L 87.9633 194.6507
  C 83.91 194.66 80.63 197.96 80.6490 202.0163
  L 80.6512 202.6563
  C 80.67 206.71 83.96 209.98 88.0168 209.9706
  L 111.2967 209.8893
  C 115.35 209.88 118.63 206.58 118.6110 202.5237
  L 118.6088 201.8837"
/>
<path stroke="#80c1f7" vector-effect="non-scaling-stroke" d="
  M 118.64 230.83
  C 118.64 226.82 115.39 223.57 111.38 223.57
  L 87.88 223.57
  C 83.87 223.57 80.62 226.82 80.62 230.83
  L 80.62 231.43
  C 80.62 235.44 83.87 238.69 87.88 238.69
  L 111.38 238.69
  C 115.39 238.69 118.64 235.44 118.64 231.43
  L 118.64 230.83"
/>
<path stroke="#b5d4eb" vector-effect="non-scaling-stroke" d="
  M 426.04 383.75
  Q 388.87 383.17 351.53 383.69
  C 351.08 383.70 350.70 383.37 350.63 382.93
  Q 346.10 353.95 326.06 332.19
  Q 304.52 308.79 272.90 303.08
  Q 263.10 301.31 253.00 301.70
  Q 218.09 303.04 192.34 325.96
  Q 184.67 332.80 178.89 340.69
  Q 165.41 359.13 161.37 382.76
  C 161.29 383.19 160.92 383.50 160.49 383.50
  L 86.00 383.71"
/>
<path stroke="#62a7ef" vector-effect="non-scaling-stroke" d="
  M 426.21 383.75
  L 426.00 396.71"
/>
<path stroke="#c8dff1" vector-effect="non-scaling-stroke" d="
  M 426.00 396.71
  Q 423.22 397.00 418.25 397.00
  Q 382.25 397.00 346.25 397.00
  Q 341.77 397.00 339.50 396.71"
/>
<path stroke="#d584b2" vector-effect="non-scaling-stroke" d="
  M 339.50 396.71
  L 338.46 383.75"
/>
<path stroke="#d595bc" vector-effect="non-scaling-stroke" d="
  M 338.46 383.75
  Q 333.07 355.06 313.19 336.56
  Q 286.19 311.45 249.41 314.26
  Q 239.12 315.05 229.85 318.10
  Q 212.12 323.94 198.81 336.56
  Q 178.70 355.63 173.54 384.00"
/>
<path stroke="#d584b2" vector-effect="non-scaling-stroke" d="
  M 173.54 384.00
  L 172.25 396.71"
/>
<path stroke="#c8dff1" vector-effect="non-scaling-stroke" d="
  M 172.25 396.71
  Q 171.04 397.00 168.50 397.00
  Q 128.50 397.00 88.50 397.00
  Q 86.79 397.00 86.00 396.71"
/>
<path stroke="#62a7ef" vector-effect="non-scaling-stroke" d="
  M 86.00 396.71
  L 85.75 383.79"
/>
<path stroke="#fd4f8c" vector-effect="non-scaling-stroke" d="
  M 338.46 383.75
  Q 329.87 382.96 323.50 384.00
  Q 314.31 385.51 309.67 394.18
  Q 307.93 397.44 306.70 400.92
  C 306.59 401.23 306.29 401.44 305.95 401.44
  Q 292.22 401.26 278.50 401.34
  Q 243.28 401.55 206.88 401.43
  C 205.96 401.43 205.16 400.82 204.91 399.93
  Q 202.48 391.10 195.21 386.66
  Q 190.94 384.06 184.69 383.58
  Q 179.12 383.15 173.54 384.00"
/>
<path stroke="#327ec7" vector-effect="non-scaling-stroke" d="
  M 47.29 383.75
  Q 47.22 389.57 47.25 395.40
  Q 47.25 395.76 47.10 396.07
  Q 46.93 396.39 46.75 396.71"
/>
<path stroke="#99b5c9" vector-effect="non-scaling-stroke" d="
  M 46.75 396.71
  Q 32.90 397.41 19.04 396.75"
/>
<path stroke="#327ec7" vector-effect="non-scaling-stroke" d="
  M 464.79 384.25
  L 464.75 396.71"
/>
<path stroke="#7dbdfd" vector-effect="non-scaling-stroke" d="
  M 464.75 396.71
  Q 445.38 397.44 426.00 396.71"
/>
<path stroke="#99b5c9" vector-effect="non-scaling-stroke" d="
  M 493.00 396.71
  Q 478.88 397.43 464.75 396.71"
/>
<path stroke="#7dbdfd" vector-effect="non-scaling-stroke" d="
  M 86.00 396.71
  Q 66.38 397.44 46.75 396.71"
/>
<path stroke="#f099c0" vector-effect="non-scaling-stroke" d="
  M 339.50 396.71
  Q 333.82 396.75 328.14 396.93
  Q 325.28 397.02 323.99 397.71
  Q 322.02 398.77 321.06 401.06
  Q 319.22 405.49 317.48 409.95
  Q 315.58 414.82 310.25 414.82
  Q 256.00 414.75 201.75 414.81
  Q 196.44 414.82 194.52 409.96
  Q 192.85 405.76 191.13 401.59
  Q 188.87 396.12 182.75 397.00
  Q 179.74 397.43 172.25 396.71"
/>
</g>
<path fill="#82e7a5" d="
  M 429.29 137.00
  L 429.29 166.00
  L 429.00 187.21
  L 389.29 187.25
  L 388.96 165.75
  L 388.75 136.79
  Q 389.46 89.85 389.00 78.75
  Q 388.63 69.77 397.25 69.87
  Q 409.13 70.00 421.00 70.00
  Q 429.00 70.00 429.04 77.50
  Q 429.22 107.25 429.29 137.00
  Z"
/>
<path fill="#fd6096" d="
  M 358.29 136.75
  L 358.04 165.75
  L 357.96 187.75
  Q 357.16 187.79 356.44 187.47
  Q 355.93 187.26 355.50 187.26
  L 317.79 187.25
  L 317.71 166.00
  L 317.71 136.75
  Q 317.78 126.62 317.75 116.50
  Q 317.72 108.56 325.75 108.63
  Q 336.88 108.73 348.00 108.75
  Q 353.00 108.75 354.82 109.80
  Q 358.24 111.76 358.00 117.00
  Q 357.65 124.43 358.29 136.75
  Z"
/>
<path fill="#618baa" d="
  M 317.71 136.75
  L 317.71 166.00
  Q 317.40 165.35 316.75 165.75
  Q 183.12 165.75 48.32 165.75
  C 47.87 165.75 47.50 166.12 47.50 166.57
  Q 47.50 271.25 47.50 374.75
  Q 47.50 380.19 47.21 383.50
  L 20.20 383.50
  C 19.94 383.50 19.75 383.25 19.81 383.00
  Q 20.08 381.89 19.29 382.25
  Q 19.22 265.63 19.25 149.00
  Q 19.25 141.01 24.79 138.18
  Q 27.59 136.75 35.43 136.75
  Q 176.57 136.75 317.71 136.75
  Z"
/>
<path fill="#618baa" d="
  M 358.29 136.75
  L 388.75 136.79
  L 388.96 165.75
  L 358.04 165.75
  L 358.29 136.75
  Z"
/>
<path fill="#618baa" d="
  M 492.79 383.25
  Q 492.55 384.27 491.83 383.86
  Q 491.29 383.56 490.93 383.56
  L 465.44 383.56
  C 465.27 383.56 465.10 383.71 465.02 383.94
  Q 464.95 384.12 464.79 384.25
  Q 464.82 383.67 464.46 383.25
  L 464.50 166.52
  C 464.50 166.24 464.27 166.00 463.99 165.99
  Q 446.77 165.37 429.29 166.00
  L 429.29 137.00
  Q 450.82 136.62 472.35 136.71
  Q 483.31 136.76 485.59 137.48
  Q 491.59 139.38 492.62 146.10
  Q 492.75 146.93 492.75 156.43
  Q 492.72 269.84 492.79 383.25
  Z"
/>
<path fill="#43a3f9" d="
  M 317.71 166.00
  L 317.79 187.25
  Q 316.96 202.81 317.75 210.50
  Q 318.39 216.75 325.00 216.75
  Q 337.62 216.75 350.25 216.90
  Q 356.38 216.98 357.68 212.47
  Q 358.00 211.37 358.01 205.00
  Q 358.02 196.37 357.96 187.75
  L 358.04 165.75
  L 388.96 165.75
  L 389.29 187.25
  Q 388.82 196.49 388.97 205.75
  Q 388.97 205.80 388.90 208.75
  Q 388.74 215.40 394.04 216.59
  Q 394.74 216.75 402.97 216.75
  Q 410.11 216.75 417.25 216.75
  Q 422.88 216.75 423.76 216.59
  Q 427.99 215.82 429.00 211.90
  Q 429.26 210.89 429.30 203.58
  Q 429.35 195.39 429.00 187.21
  L 429.29 166.00
  Q 446.77 165.37 463.99 165.99
  C 464.27 166.00 464.50 166.24 464.50 166.52
  L 464.46 383.25
  Q 446.22 383.75 432.75 383.50
  Q 428.72 383.42 426.21 383.75
  L 426.04 383.75
  Q 425.93 378.37 426.00 376.50
  Q 426.40 365.25 414.75 365.25
  Q 401.13 365.25 386.75 365.25
  C 386.24 365.25 385.79 364.90 385.66 364.40
  Q 381.10 346.74 370.84 328.62
  C 370.69 328.35 370.73 328.02 370.95 327.80
  Q 380.77 317.77 391.01 307.76
  Q 399.08 299.86 391.17 291.83
  Q 376.70 277.16 361.95 262.77
  Q 358.43 259.32 356.37 258.64
  Q 352.75 257.44 348.89 259.70
  Q 347.14 260.74 344.31 263.56
  Q 335.31 272.56 325.61 282.27
  C 325.32 282.56 324.87 282.62 324.52 282.41
  Q 307.79 272.60 288.69 267.55
  C 288.28 267.44 288.00 267.07 288.00 266.65
  Q 288.00 252.13 288.22 238.50
  Q 288.40 227.25 276.75 227.25
  Q 258.56 227.25 240.38 227.25
  Q 232.82 227.25 231.64 227.46
  Q 226.01 228.49 224.51 233.64
  Q 224.00 235.38 224.00 244.90
  Q 224.00 255.48 224.00 266.56
  C 224.00 267.04 223.67 267.45 223.21 267.57
  Q 204.65 272.27 187.79 282.28
  C 187.28 282.58 186.62 282.50 186.20 282.08
  Q 176.32 272.19 166.86 262.73
  Q 164.05 259.93 162.40 259.12
  Q 159.48 257.70 156.45 258.43
  Q 153.83 259.07 149.94 262.85
  Q 134.90 277.48 120.27 292.52
  Q 115.61 297.31 117.36 302.36
  Q 118.23 304.85 122.94 309.57
  Q 132.00 318.62 141.02 327.65
  C 141.29 327.91 141.34 328.33 141.15 328.66
  Q 131.25 345.70 126.19 364.58
  C 126.11 364.86 125.86 365.06 125.56 365.07
  Q 104.59 365.53 96.75 365.25
  Q 90.80 365.04 87.95 368.85
  Q 86.23 371.15 86.04 376.07
  Q 85.89 379.89 86.00 383.71
  L 85.75 383.79
  Q 66.52 383.09 47.29 383.75
  L 47.21 383.50
  Q 47.50 380.19 47.50 374.75
  Q 47.50 271.25 47.50 166.57
  C 47.50 166.12 47.87 165.75 48.32 165.75
  Q 183.12 165.75 316.75 165.75
  Q 317.40 165.35 317.71 166.00
  Z
  M 118.6088 201.8837
  C 118.59 197.83 115.30 194.56 111.2432 194.5694
  L 87.9633 194.6507
  C 83.91 194.66 80.63 197.96 80.6490 202.0163
  L 80.6512 202.6563
  C 80.67 206.71 83.96 209.98 88.0168 209.9706
  L 111.2967 209.8893
  C 115.35 209.88 118.63 206.58 118.6110 202.5237
  L 118.6088 201.8837
  Z
  M 118.64 230.83
  C 118.64 226.82 115.39 223.57 111.38 223.57
  L 87.88 223.57
  C 83.87 223.57 80.62 226.82 80.62 230.83
  L 80.62 231.43
  C 80.62 235.44 83.87 238.69 87.88 238.69
  L 111.38 238.69
  C 115.39 238.69 118.64 235.44 118.64 231.43
  L 118.64 230.83
  Z"
/>
<path fill="#fc3e81" d="
  M 357.96 187.75
  Q 358.02 196.37 358.01 205.00
  Q 358.00 211.37 357.68 212.47
  Q 356.38 216.98 350.25 216.90
  Q 337.62 216.75 325.00 216.75
  Q 318.39 216.75 317.75 210.50
  Q 316.96 202.81 317.79 187.25
  L 355.50 187.26
  Q 355.93 187.26 356.44 187.47
  Q 357.16 187.79 357.96 187.75
  Z"
/>
<path fill="#19c88d" d="
  M 389.29 187.25
  L 429.00 187.21
  Q 429.35 195.39 429.30 203.58
  Q 429.26 210.89 429.00 211.90
  Q 427.99 215.82 423.76 216.59
  Q 422.88 216.75 417.25 216.75
  Q 410.11 216.75 402.97 216.75
  Q 394.74 216.75 394.04 216.59
  Q 388.74 215.40 388.90 208.75
  Q 388.97 205.80 388.97 205.75
  Q 388.82 196.49 389.29 187.25
  Z"
/>
<rect fill="#bddff4" x="-18.98" y="-7.66" transform="translate(99.63,202.27) rotate(-0.2)" width="37.96" height="15.32" rx="7.34"/>
<rect fill="#bddff4" x="80.62" y="223.57" width="38.02" height="15.12" rx="7.26"/>
<path fill="#bddff4" d="
  M 426.04 383.75
  Q 388.87 383.17 351.53 383.69
  C 351.08 383.70 350.70 383.37 350.63 382.93
  Q 346.10 353.95 326.06 332.19
  Q 304.52 308.79 272.90 303.08
  Q 263.10 301.31 253.00 301.70
  Q 218.09 303.04 192.34 325.96
  Q 184.67 332.80 178.89 340.69
  Q 165.41 359.13 161.37 382.76
  C 161.29 383.19 160.92 383.50 160.49 383.50
  L 86.00 383.71
  Q 85.89 379.89 86.04 376.07
  Q 86.23 371.15 87.95 368.85
  Q 90.80 365.04 96.75 365.25
  Q 104.59 365.53 125.56 365.07
  C 125.86 365.06 126.11 364.86 126.19 364.58
  Q 131.25 345.70 141.15 328.66
  C 141.34 328.33 141.29 327.91 141.02 327.65
  Q 132.00 318.62 122.94 309.57
  Q 118.23 304.85 117.36 302.36
  Q 115.61 297.31 120.27 292.52
  Q 134.90 277.48 149.94 262.85
  Q 153.83 259.07 156.45 258.43
  Q 159.48 257.70 162.40 259.12
  Q 164.05 259.93 166.86 262.73
  Q 176.32 272.19 186.20 282.08
  C 186.62 282.50 187.28 282.58 187.79 282.28
  Q 204.65 272.27 223.21 267.57
  C 223.67 267.45 224.00 267.04 224.00 266.56
  Q 224.00 255.48 224.00 244.90
  Q 224.00 235.38 224.51 233.64
  Q 226.01 228.49 231.64 227.46
  Q 232.82 227.25 240.38 227.25
  Q 258.56 227.25 276.75 227.25
  Q 288.40 227.25 288.22 238.50
  Q 288.00 252.13 288.00 266.65
  C 288.00 267.07 288.28 267.44 288.69 267.55
  Q 307.79 272.60 324.52 282.41
  C 324.87 282.62 325.32 282.56 325.61 282.27
  Q 335.31 272.56 344.31 263.56
  Q 347.14 260.74 348.89 259.70
  Q 352.75 257.44 356.37 258.64
  Q 358.43 259.32 361.95 262.77
  Q 376.70 277.16 391.17 291.83
  Q 399.08 299.86 391.01 307.76
  Q 380.77 317.77 370.95 327.80
  C 370.73 328.02 370.69 328.35 370.84 328.62
  Q 381.10 346.74 385.66 364.40
  C 385.79 364.90 386.24 365.25 386.75 365.25
  Q 401.13 365.25 414.75 365.25
  Q 426.40 365.25 426.00 376.50
  Q 425.93 378.37 426.04 383.75
  Z"
/>
<path fill="#adc9e2" d="
  M 426.04 383.75
  L 426.21 383.75
  L 426.00 396.71
  Q 423.22 397.00 418.25 397.00
  Q 382.25 397.00 346.25 397.00
  Q 341.77 397.00 339.50 396.71
  L 338.46 383.75
  Q 333.07 355.06 313.19 336.56
  Q 286.19 311.45 249.41 314.26
  Q 239.12 315.05 229.85 318.10
  Q 212.12 323.94 198.81 336.56
  Q 178.70 355.63 173.54 384.00
  L 172.25 396.71
  Q 171.04 397.00 168.50 397.00
  Q 128.50 397.00 88.50 397.00
  Q 86.79 397.00 86.00 396.71
  L 85.75 383.79
  L 86.00 383.71
  L 160.49 383.50
  C 160.92 383.50 161.29 383.19 161.37 382.76
  Q 165.41 359.13 178.89 340.69
  Q 184.67 332.80 192.34 325.96
  Q 218.09 303.04 253.00 301.70
  Q 263.10 301.31 272.90 303.08
  Q 304.52 308.79 326.06 332.19
  Q 346.10 353.95 350.63 382.93
  C 350.70 383.37 351.08 383.70 351.53 383.69
  Q 388.87 383.17 426.04 383.75
  Z"
/>
<path fill="#fd6096" d="
  M 338.46 383.75
  Q 329.87 382.96 323.50 384.00
  Q 314.31 385.51 309.67 394.18
  Q 307.93 397.44 306.70 400.92
  C 306.59 401.23 306.29 401.44 305.95 401.44
  Q 292.22 401.26 278.50 401.34
  Q 243.28 401.55 206.88 401.43
  C 205.96 401.43 205.16 400.82 204.91 399.93
  Q 202.48 391.10 195.21 386.66
  Q 190.94 384.06 184.69 383.58
  Q 179.12 383.15 173.54 384.00
  Q 178.70 355.63 198.81 336.56
  Q 212.12 323.94 229.85 318.10
  Q 239.12 315.05 249.41 314.26
  Q 286.19 311.45 313.19 336.56
  Q 333.07 355.06 338.46 383.75
  Z"
/>
<path fill="#4e7693" d="
  M 47.21 383.50
  L 47.29 383.75
  Q 47.22 389.57 47.25 395.40
  Q 47.25 395.76 47.10 396.07
  Q 46.93 396.39 46.75 396.71
  Q 32.90 397.41 19.04 396.75
  L 19.29 382.25
  Q 20.08 381.89 19.81 383.00
  C 19.75 383.25 19.94 383.50 20.20 383.50
  L 47.21 383.50
  Z"
/>
<path fill="#1685fb" d="
  M 464.46 383.25
  Q 464.82 383.67 464.79 384.25
  L 464.75 396.71
  Q 445.38 397.44 426.00 396.71
  L 426.21 383.75
  Q 428.72 383.42 432.75 383.50
  Q 446.22 383.75 464.46 383.25
  Z"
/>
<path fill="#4e7693" d="
  M 492.79 383.25
  L 493.00 396.71
  Q 478.88 397.43 464.75 396.71
  L 464.79 384.25
  Q 464.95 384.12 465.02 383.94
  C 465.10 383.71 465.27 383.56 465.44 383.56
  L 490.93 383.56
  Q 491.29 383.56 491.83 383.86
  Q 492.55 384.27 492.79 383.25
  Z"
/>
<path fill="#1685fb" d="
  M 85.75 383.79
  L 86.00 396.71
  Q 66.38 397.44 46.75 396.71
  Q 46.93 396.39 47.10 396.07
  Q 47.25 395.76 47.25 395.40
  Q 47.22 389.57 47.29 383.75
  Q 66.52 383.09 85.75 383.79
  Z"
/>
<path fill="#fc3e81" d="
  M 338.46 383.75
  L 339.50 396.71
  Q 333.82 396.75 328.14 396.93
  Q 325.28 397.02 323.99 397.71
  Q 322.02 398.77 321.06 401.06
  Q 319.22 405.49 317.48 409.95
  Q 315.58 414.82 310.25 414.82
  Q 256.00 414.75 201.75 414.81
  Q 196.44 414.82 194.52 409.96
  Q 192.85 405.76 191.13 401.59
  Q 188.87 396.12 182.75 397.00
  Q 179.74 397.43 172.25 396.71
  L 173.54 384.00
  Q 179.12 383.15 184.69 383.58
  Q 190.94 384.06 195.21 386.66
  Q 202.48 391.10 204.91 399.93
  C 205.16 400.82 205.96 401.43 206.88 401.43
  Q 243.28 401.55 278.50 401.34
  Q 292.22 401.26 305.95 401.44
  C 306.29 401.44 306.59 401.23 306.70 400.92
  Q 307.93 397.44 309.67 394.18
  Q 314.31 385.51 323.50 384.00
  Q 329.87 382.96 338.46 383.75
  Z"
/>
<path fill="#e3f4ff" d="
  M 19.04 396.75
  Q 32.90 397.41 46.75 396.71
  Q 66.38 397.44 86.00 396.71
  Q 86.79 397.00 88.50 397.00
  Q 128.50 397.00 168.50 397.00
  Q 171.04 397.00 172.25 396.71
  Q 179.74 397.43 182.75 397.00
  Q 188.87 396.12 191.13 401.59
  Q 192.85 405.76 194.52 409.96
  Q 196.44 414.82 201.75 414.81
  Q 256.00 414.75 310.25 414.82
  Q 315.58 414.82 317.48 409.95
  Q 319.22 405.49 321.06 401.06
  Q 322.02 398.77 323.99 397.71
  Q 325.28 397.02 328.14 396.93
  Q 333.82 396.75 339.50 396.71
  Q 341.77 397.00 346.25 397.00
  Q 382.25 397.00 418.25 397.00
  Q 423.22 397.00 426.00 396.71
  Q 445.38 397.44 464.75 396.71
  Q 478.88 397.43 493.00 396.71
  Q 500.15 397.42 503.25 397.00
  Q 510.45 396.02 512.00 402.81
  Q 512.00 414.69 512.00 426.56
  Q 510.24 436.98 502.14 440.40
  Q 498.34 442.00 487.15 442.00
  Q 256.24 442.00 25.33 442.00
  Q 13.72 442.00 9.89 440.40
  Q 1.58 436.94 0.00 426.19
  Q 0.00 414.44 0.00 402.69
  Q 1.35 396.68 7.75 397.00
  Q 12.68 397.24 19.04 396.75
  Z"
/>
</svg>
