<?xml version="1.0" encoding="UTF-8" standalone="no"?>
<!DOCTYPE svg PUBLIC "-//W3C//DTD SVG 1.1//EN" "http://www.w3.org/Graphics/SVG/1.1/DTD/svg11.dtd">
<svg xmlns="http://www.w3.org/2000/svg" version="1.1" viewBox="0 0 512 512">
<path fill="#9bdb4d" d="
  M 214.82 169.95
  C 215.14 170.30 215.66 170.40 216.11 170.20
  L 224.03 166.68
  C 224.47 166.49 224.75 166.07 224.75 165.61
  Q 224.75 152.37 224.75 139.62
  Q 224.75 135.11 225.47 133.47
  Q 227.00 130.00 231.50 130.00
  Q 255.75 130.00 280.00 130.00
  Q 286.08 130.00 287.40 134.52
  Q 287.75 135.71 287.74 142.03
  Q 287.72 153.86 287.81 165.70
  C 287.81 166.03 287.98 166.31 288.24 166.43
  L 296.52 170.09
  C 296.78 170.21 297.12 170.13 297.35 169.89
  Q 306.94 160.21 316.26 150.26
  Q 319.08 147.25 320.97 146.70
  Q 324.30 145.72 327.31 148.69
  Q 342.39 163.52 362.76 184.35
  Q 364.58 186.21 364.86 187.73
  Q 365.14 189.17 364.71 190.62
  Q 364.39 191.72 363.23 192.98
  Q 353.08 204.06 342.25 214.14
  C 341.75 214.60 341.63 215.37 341.93 216.05
  L 345.28 223.51
  C 345.48 223.96 345.90 224.25 346.35 224.25
  Q 360.75 224.25 374.00 224.25
  Q 380.28 224.25 381.65 228.70
  Q 382.00 229.83 382.00 236.33
  Q 382.00 258.04 382.00 279.75
  Q 382.00 288.13 373.75 287.97
  Q 359.90 287.71 346.06 287.81
  C 345.75 287.81 345.48 287.99 345.36 288.26
  L 341.91 296.20
  C 341.71 296.68 341.82 297.24 342.20 297.61
  Q 352.85 307.92 362.52 317.63
  Q 365.05 320.17 365.41 322.09
  Q 365.99 325.13 363.44 327.69
  Q 345.19 345.94 326.94 364.19
  Q 324.56 366.57 320.56 364.94
  Q 318.45 364.08 314.27 359.72
  Q 306.37 351.50 297.64 342.76
  C 297.24 342.36 296.63 342.26 296.11 342.49
  L 288.40 345.99
  C 288.12 346.11 287.94 346.39 287.93 346.69
  Q 287.38 369.60 287.75 373.75
  Q 288.51 382.39 280.00 382.42
  Q 255.75 382.50 231.50 382.50
  Q 225.00 382.50 224.92 375.50
  Q 224.75 361.50 224.75 346.89
  C 224.75 346.43 224.49 346.01 224.08 345.83
  L 216.37 342.35
  C 215.89 342.13 215.32 342.25 214.95 342.63
  Q 204.24 353.72 194.00 363.24
  Q 192.07 365.03 190.40 365.26
  Q 188.90 365.46 187.42 365.00
  Q 186.28 364.65 185.01 363.41
  Q 166.90 345.77 149.19 327.72
  Q 147.37 325.87 147.10 324.30
  Q 146.85 322.85 147.28 321.39
  Q 147.61 320.28 148.78 319.01
  Q 158.39 308.65 169.73 297.69
  C 170.12 297.31 170.23 296.72 170.01 296.22
  L 166.68 288.47
  C 166.49 288.03 166.07 287.75 165.61 287.75
  Q 150.88 287.75 136.75 287.75
  Q 132.10 287.75 130.64 284.11
  Q 130.00 282.52 130.00 277.83
  Q 130.00 257.16 130.00 236.50
  Q 130.00 233.56 130.10 231.53
  Q 130.26 228.51 131.67 227.00
  Q 133.87 224.63 138.00 224.75
  Q 142.20 224.87 165.69 224.69
  C 166.00 224.69 166.29 224.52 166.45 224.25
  Q 168.81 220.22 170.11 215.73
  C 170.20 215.43 170.11 215.12 169.89 214.90
  Q 159.79 205.15 150.07 195.03
  Q 147.54 192.40 147.11 190.57
  Q 146.38 187.50 148.94 184.94
  Q 166.63 167.25 184.31 149.56
  Q 186.89 146.98 189.77 147.12
  Q 191.81 147.22 194.48 149.68
  Q 205.03 159.42 214.82 169.95
  Z
  M 330.76 169.90
  Q 327.48 166.50 323.85 163.12
  C 323.37 162.68 322.63 162.70 322.18 163.17
  Q 312.55 173.16 302.94 182.06
  Q 301.03 183.83 299.50 184.04
  Q 297.44 184.34 295.31 183.19
  Q 288.79 179.66 280.75 176.97
  Q 277.50 175.89 276.42 174.48
  Q 274.83 172.42 275.00 169.25
  Q 275.32 163.31 274.83 142.44
  C 274.82 142.16 274.59 141.93 274.32 141.93
  L 237.70 141.92
  C 237.42 141.92 237.19 142.15 237.18 142.43
  Q 236.64 164.06 237.00 168.25
  Q 237.28 171.53 235.95 173.73
  Q 234.95 175.38 231.70 176.59
  Q 224.11 179.41 216.84 182.96
  Q 214.14 184.28 212.42 183.98
  Q 210.09 183.57 208.19 181.56
  Q 200.93 173.89 189.11 162.84
  C 188.91 162.65 188.59 162.66 188.39 162.86
  L 162.85 188.39
  C 162.65 188.59 162.65 188.91 162.84 189.11
  Q 177.12 204.41 181.19 207.81
  Q 185.84 211.70 182.94 217.19
  Q 179.51 223.66 176.82 231.74
  Q 175.96 234.31 174.97 235.33
  Q 173.32 237.00 171.00 237.00
  Q 157.00 237.00 142.84 237.00
  C 142.24 237.00 141.75 237.49 141.75 238.09
  L 141.75 274.33
  C 141.75 274.70 142.05 275.00 142.42 275.00
  Q 154.23 275.00 165.97 275.00
  Q 171.21 275.00 172.00 275.19
  Q 175.45 276.01 176.69 279.81
  Q 179.47 288.33 182.47 294.04
  Q 182.48 294.06 183.23 295.31
  Q 184.82 297.94 183.50 300.85
  Q 182.65 302.73 180.19 305.19
  Q 171.69 313.69 163.03 322.34
  C 162.59 322.78 162.60 323.48 163.04 323.92
  L 188.39 349.15
  C 188.70 349.45 189.20 349.45 189.50 349.15
  Q 199.17 339.29 208.31 330.49
  Q 210.60 328.29 212.35 328.04
  Q 214.74 327.70 217.31 329.19
  Q 221.88 331.84 232.26 335.41
  Q 234.70 336.25 235.64 337.48
  Q 236.91 339.16 236.93 341.50
  Q 237.00 355.50 237.00 369.34
  C 237.00 369.84 237.41 370.25 237.91 370.25
  L 274.33 370.25
  C 274.70 370.25 275.00 369.95 275.00 369.58
  Q 275.00 356.15 275.00 343.20
  Q 275.00 339.70 276.19 338.07
  Q 277.81 335.84 281.00 335.00
  Q 286.34 333.59 293.38 329.87
  Q 293.49 329.81 294.96 328.94
  Q 299.57 326.20 303.31 329.94
  Q 312.63 339.25 322.47 349.09
  C 322.83 349.45 323.42 349.45 323.78 349.09
  L 348.91 323.97
  C 349.37 323.51 349.37 322.75 348.91 322.28
  Q 339.35 312.72 329.87 303.24
  Q 328.60 301.97 328.18 300.85
  Q 327.64 299.41 327.68 297.89
  Q 327.71 296.34 329.01 293.83
  Q 332.81 286.47 334.25 281.50
  Q 335.77 276.26 339.93 275.19
  Q 340.65 275.00 347.59 275.00
  Q 358.52 275.00 369.34 275.00
  C 369.84 275.00 370.25 274.59 370.25 274.09
  L 370.25 238.01
  C 370.25 237.44 369.79 236.98 369.22 236.99
  Q 355.01 237.17 341.44 236.81
  Q 339.13 236.74 337.83 235.74
  Q 336.15 234.45 335.50 232.50
  Q 332.73 224.20 329.41 217.75
  Q 327.91 214.82 327.88 213.40
  Q 327.84 210.89 329.86 208.86
  Q 339.44 199.19 348.99 189.63
  C 349.31 189.31 349.33 188.79 349.02 188.46
  Q 343.28 182.20 337.60 176.75
  Q 334.46 173.75 330.76 169.90
  Z"
/>
<path fill="#9bdb4d" d="
  M 300.46 256.00
  C 300.46 280.55 280.55 300.46 256.00 300.46
  C 231.45 300.46 211.54 280.55 211.54 256.00
  C 211.54 231.45 231.45 211.54 256.00 211.54
  C 280.55 211.54 300.46 231.45 300.46 256.00
  Z
  M 287.65 256.00
  C 287.65 238.52 273.48 224.35 256.00 224.35
  C 238.52 224.35 224.35 238.52 224.35 256.00
  C 224.35 273.48 238.52 287.65 256.00 287.65
  C 273.48 287.65 287.65 273.48 287.65 256.00
  Z"
/>
</svg>
