<?xml version="1.0" encoding="UTF-8"?>
<svg xmlns="http://www.w3.org/2000/svg" xmlns:xlink="http://www.w3.org/1999/xlink" width="64px" height="64px" viewBox="0 0 64 64" version="1.1">
<g id="surface1">
<path style="fill:none;stroke-width:2;stroke-linecap:butt;stroke-linejoin:miter;stroke:rgb(50.196078%,25.490196%,21.568627%);stroke-opacity:1;stroke-miterlimit:4;" d="M 135.875 80 C 135.875 49.125 110.875 24.09375 80 24.09375 C 49.125 24.09375 24.09375 49.125 24.09375 80 C 24.09375 110.875 49.125 135.875 80 135.875 C 110.875 135.875 135.875 110.875 135.875 80 " transform="matrix(0.125,0,0,0.125,0,0)"/>
<path style="fill:none;stroke-width:2;stroke-linecap:butt;stroke-linejoin:miter;stroke:rgb(35.294118%,43.529412%,25.098039%);stroke-opacity:1;stroke-miterlimit:4;" d="M 488 24.5625 C 488 24.25 487.75 24 487.4375 24 L 472.5625 24 C 472.25 24 472 24.25 472 24.5625 L 472 103.4375 C 472 103.75 472.25 104 472.5625 104 L 487.4375 104 C 487.75 104 488 103.75 488 103.4375 L 488 24.5625 " transform="matrix(0.125,0,0,0.125,0,0)"/>
<path style="fill:none;stroke-width:2;stroke-linecap:butt;stroke-linejoin:miter;stroke:rgb(35.294118%,43.529412%,25.098039%);stroke-opacity:1;stroke-miterlimit:4;" d="M 456 40.6875 C 456 40.3125 455.6875 40 455.3125 40 L 440.6875 40 C 440.3125 40 440 40.3125 440 40.6875 L 440 103.3125 C 440 103.6875 440.3125 104 440.6875 104 L 455.3125 104 C 455.6875 104 456 103.6875 456 103.3125 L 456 40.6875 " transform="matrix(0.125,0,0,0.125,0,0)"/>
<path style="fill:none;stroke-width:2;stroke-linecap:butt;stroke-linejoin:miter;stroke:rgb(35.294118%,43.529412%,25.098039%);stroke-opacity:1;stroke-miterlimit:4;" d="M 424 56.5625 C 424 56.25 423.75 56 423.4375 56 L 408.5625 56 C 408.25 56 408 56.25 408 56.5625 L 408 103.4375 C 408 103.75 408.25 104 408.5625 104 L 423.4375 104 C 423.75 104 424 103.75 424 103.4375 L 424 56.5625 " transform="matrix(0.125,0,0,0.125,0,0)"/>
<path style="fill:none;stroke-width:2;stroke-linecap:butt;stroke-linejoin:miter;stroke:rgb(50.196078%,45.882353%,32.941176%);stroke-opacity:1;stroke-miterlimit:4;" d="M 199.4375 359.9375 C 197.03125 360.03125 194.65625 360.0625 192.25 360.125 C 189.9375 360.15625 188.03125 360.875 186.5625 362.28125 C 185.15625 363.59375 184.34375 365.28125 184.125 367.375 C 183.875 369.8125 184.625 371.875 186.40625 373.5625 C 187.59375 374.6875 189.09375 375.375 190.90625 375.65625 C 192.3125 375.875 194 376 196 376 C 236 376 276 376.03125 316 376.125 C 318.71875 376.15625 320.53125 376.03125 321.5 375.75 C 325.3125 374.6875 327.40625 372.46875 327.78125 369.0625 C 328 367.09375 327.65625 365.28125 326.65625 363.625 C 325.5625 361.75 323.90625 360.625 321.75 360.25 C 320.3125 360 317.25 359.875 312.5625 359.9375 C 312.28125 359.9375 312.0625 359.71875 312.0625 359.4375 L 312 339.625 C 312 339.3125 312.1875 339 312.46875 338.875 C 335.21875 327.3125 353.03125 310.8125 365.84375 289.4375 C 369.21875 283.8125 372.15625 277.84375 374.65625 271.5 C 387.125 239.84375 387.125 208.15625 374.65625 176.5 C 372.15625 170.15625 369.21875 164.1875 365.875 158.5625 C 354.59375 139.5625 339.46875 124.5625 320.5 113.5 C 298.875 100.875 275.4375 95.125 250.25 96.1875 C 229.90625 97.0625 210.90625 102.5 193.28125 112.5 C 179.875 120.09375 168.25 129.78125 158.34375 141.59375 C 136.71875 167.375 126.75 197.25 128.46875 231.25 C 129.1875 245.625 131.96875 258.75 136.8125 270.6875 C 149.21875 301.21875 170.0625 323.90625 199.34375 338.78125 C 199.75 338.96875 200 339.375 200 339.8125 L 199.9375 359.4375 C 199.9375 359.71875 199.71875 359.9375 199.4375 359.9375 " transform="matrix(0.125,0,0,0.125,0,0)"/>
<path style="fill:none;stroke-width:2;stroke-linecap:butt;stroke-linejoin:miter;stroke:rgb(50.196078%,25.490196%,21.568627%);stroke-opacity:1;stroke-miterlimit:4;" d="M 487.875 432 C 487.875 401.125 462.875 376.09375 432 376.09375 C 401.125 376.09375 376.09375 401.125 376.09375 432 C 376.09375 462.875 401.125 487.875 432 487.875 C 462.875 487.875 487.875 462.875 487.875 432 " transform="matrix(0.125,0,0,0.125,0,0)"/>
<path style="fill:none;stroke-width:2;stroke-linecap:butt;stroke-linejoin:miter;stroke:rgb(35.294118%,43.529412%,25.098039%);stroke-opacity:1;stroke-miterlimit:4;" d="M 128.0625 407.4375 C 128 398.53125 127.96875 389.59375 128 380.65625 C 128 380.625 128.03125 380.1875 128.09375 379.34375 C 128.1875 378.25 127.875 377.34375 127.1875 376.5625 C 126.125 375.375 125.15625 375.625 124.3125 377.3125 L 109.375 407.25 C 109.15625 407.71875 108.6875 408 108.15625 408 C 84.8125 408 61.6875 408 38.71875 408 C 34.28125 408 31.625 408.09375 30.8125 408.25 C 27.40625 408.90625 25.28125 410.78125 24.40625 413.90625 C 24.125 414.84375 24 418.25 24 424.125 C 24 442.09375 23.9375 460.03125 23.84375 478 C 23.78125 484.65625 27.1875 488 34 488 C 70 488 106 488.0625 142 488.1875 C 148.65625 488.21875 152 484.8125 152 478 C 152 457.59375 151.96875 437.15625 151.90625 416.75 C 151.90625 413.65625 150.90625 411.34375 148.875 409.8125 C 147.53125 408.78125 145.34375 408.21875 142.25 408.125 C 137.6875 407.96875 133.125 407.90625 128.5625 407.9375 C 128.28125 407.9375 128.0625 407.71875 128.0625 407.4375 " transform="matrix(0.125,0,0,0.125,0,0)"/>
<path style="fill:none;stroke-width:2;stroke-linecap:butt;stroke-linejoin:miter;stroke:rgb(40%,41.176471%,42.745098%);stroke-opacity:1;stroke-miterlimit:4;" d="M 311.90625 399.875 C 311.90625 395.53125 308.375 392.03125 304.0625 392.03125 L 207.9375 392.03125 C 203.59375 392.03125 200.09375 395.53125 200.09375 399.875 L 200.09375 400.125 C 200.09375 404.46875 203.59375 407.96875 207.9375 407.96875 L 304.0625 407.96875 C 308.375 407.96875 311.90625 404.46875 311.90625 400.125 L 311.90625 399.875 " transform="matrix(0.125,0,0,0.125,0,0)"/>
<path style="fill:none;stroke-width:2;stroke-linecap:butt;stroke-linejoin:miter;stroke:rgb(40%,41.176471%,42.745098%);stroke-opacity:1;stroke-miterlimit:4;" d="M 295.90625 431.84375 C 295.90625 427.53125 292.40625 424.03125 288.09375 424.03125 L 223.875 424.03125 C 219.5625 424.03125 216.09375 427.53125 216.09375 431.84375 L 216.09375 432.15625 C 216.09375 436.46875 219.5625 439.96875 223.875 439.96875 L 288.09375 439.96875 C 292.40625 439.96875 295.90625 436.46875 295.90625 432.15625 L 295.90625 431.84375 " transform="matrix(0.125,0,0,0.125,0,0)"/>
<path style="fill:none;stroke-width:2;stroke-linecap:butt;stroke-linejoin:miter;stroke:rgb(33.333333%,34.901961%,37.254902%);stroke-opacity:1;stroke-miterlimit:4;" d="M 240.15625 481.84375 C 244.25 485.4375 248.78125 487.4375 253.8125 487.84375 C 258.65625 488.25 263.25 487.28125 267.625 484.875 C 271.125 482.9375 274 480.25 276.1875 476.78125 C 277.90625 474.0625 279.03125 470.875 279.59375 467.28125 C 280.0625 464.0625 280.15625 460.65625 279.90625 457.03125 C 279.875 456.4375 279.40625 456 278.84375 456 L 232.5625 456.0625 C 232.28125 456.0625 232.0625 456.28125 232.03125 456.5625 C 231.84375 461.1875 231.9375 464.90625 232.3125 467.6875 C 233.0625 473.1875 235.6875 477.90625 240.15625 481.84375 " transform="matrix(0.125,0,0,0.125,0,0)"/>
<path style="fill:none;stroke-width:2;stroke-linecap:butt;stroke-linejoin:miter;stroke:rgb(50.196078%,25.490196%,21.568627%);stroke-opacity:1;stroke-miterlimit:4;" d="M 65.125 91.75 C 64.625 92.28125 63.78125 92.3125 63.25 91.78125 L 54.3125 82.90625 C 54 82.625 53.5625 82.625 53.25 82.90625 L 42.78125 93.25 C 42.53125 93.5 42.53125 93.90625 42.78125 94.15625 L 63.625 115 C 63.84375 115.21875 64.15625 115.21875 64.375 115 L 117.21875 62.125 C 117.53125 61.875 117.53125 61.40625 117.21875 61.125 L 107.03125 50.90625 C 106.65625 50.53125 106.09375 50.53125 105.75 50.90625 L 65.125 91.75 " transform="matrix(0.125,0,0,0.125,0,0)"/>
<path style="fill:none;stroke-width:2;stroke-linecap:butt;stroke-linejoin:miter;stroke:rgb(50.196078%,45.882353%,32.941176%);stroke-opacity:1;stroke-miterlimit:4;" d="M 165.96875 189.375 L 152.625 194.125 C 152.25 194.28125 152 194.625 152 195.03125 L 152 253.25 C 152 253.53125 152.1875 253.8125 152.46875 253.90625 C 156.40625 255.21875 160.21875 256.5 163.9375 257.8125 C 165.6875 258.4375 166.875 259.40625 167.5 260.75 C 167.96875 261.78125 167.875 263.0625 167.125 264.65625 C 165.34375 268.5625 163.53125 272.40625 161.625 276.15625 C 161.53125 276.40625 161.5625 276.6875 161.75 276.875 L 202.875 318.03125 C 203.21875 318.34375 203.6875 318.40625 204.09375 318.21875 L 216.78125 312.21875 C 217.15625 312.0625 217.5 312 217.75 312.09375 L 220.75 313.3125 C 221 313.375 221.21875 313.65625 221.375 314.03125 L 226.125 327.375 C 226.28125 327.75 226.625 328 227.03125 328 L 284.9375 328 C 285.40625 328 285.84375 327.6875 286 327.21875 C 287.375 323.21875 288.75 319.1875 290.1875 315.15625 C 290.46875 314.3125 290.875 313.6875 291.40625 313.28125 C 292.0625 312.8125 292.75 312.46875 293.53125 312.25 C 294.4375 312.03125 295.5 312.21875 296.6875 312.8125 C 300.5625 314.6875 304.375 316.5625 308.1875 318.375 C 308.40625 318.5 308.6875 318.4375 308.875 318.25 L 350.03125 277.125 C 350.34375 276.78125 350.40625 276.3125 350.21875 275.90625 C 348.34375 271.96875 346.53125 268.21875 344.84375 264.6875 C 343.875 262.6875 343.9375 261 345.09375 259.6875 C 345.71875 258.96875 346.96875 258.28125 348.90625 257.625 C 352.375 256.46875 355.9375 255.1875 359.59375 253.78125 C 359.84375 253.6875 360 253.4375 360 253.1875 L 360 195.0625 C 360 194.59375 359.6875 194.15625 359.21875 194 L 346.28125 189.375 C 345.6875 189.15625 345.1875 188.625 344.90625 187.9375 L 344.03125 185.875 C 343.90625 185.59375 343.90625 185.25 344.03125 185 L 350.3125 171.875 C 350.4375 171.59375 350.375 171.25 350.15625 171.03125 L 308.9375 129.8125 C 308.75 129.625 308.46875 129.59375 308.21875 129.6875 C 304.78125 131.28125 301.53125 132.84375 298.4375 134.34375 C 298.375 134.34375 297.90625 134.625 297 135.125 C 295.46875 135.96875 294.03125 136.09375 292.59375 135.46875 C 291.46875 135 290.59375 133.90625 289.96875 132.1875 C 288.65625 128.5625 287.34375 124.78125 286.03125 120.84375 C 285.875 120.34375 285.40625 120 284.875 120 L 227.15625 120 C 226.65625 120 226.21875 120.3125 226.0625 120.78125 C 224.71875 124.53125 223.28125 128.40625 221.78125 132.375 C 220.4375 135.84375 218.09375 136.71875 214.78125 135 C 211.21875 133.15625 207.59375 131.375 203.875 129.6875 C 203.59375 129.5625 203.25 129.625 203.03125 129.84375 L 161.8125 171.0625 C 161.625 171.25 161.5625 171.5625 161.6875 171.8125 C 163.59375 175.8125 165.4375 179.71875 167.15625 183.5 C 167.625 184.5 167.8125 185.375 167.71875 186.125 C 167.625 187.0625 167.28125 187.96875 166.71875 188.78125 C 166.5625 189.03125 166.28125 189.25 165.96875 189.375 " transform="matrix(0.125,0,0,0.125,0,0)"/>
<path style="fill:none;stroke-width:2;stroke-linecap:butt;stroke-linejoin:miter;stroke:rgb(50.196078%,39.215686%,8.235294%);stroke-opacity:1;stroke-miterlimit:4;" d="M 332.65625 201.21875 C 330.90625 196.03125 328.8125 190.90625 326.3125 185.84375 C 326.15625 185.53125 326.15625 185.15625 326.3125 184.875 L 330.8125 175.6875 C 331.0625 175.1875 330.9375 174.59375 330.5625 174.1875 L 305.59375 149.34375 C 305.375 149.125 305.0625 149.09375 304.78125 149.21875 L 294.96875 153.5625 C 294.6875 153.65625 294.375 153.65625 294.0625 153.53125 L 279.09375 147.3125 C 278.5 147.0625 278.0625 146.625 277.875 146.0625 L 274.625 136.65625 C 274.5 136.28125 274.125 136 273.71875 136 L 238.59375 136 C 238 136 237.4375 136.40625 237.1875 137.0625 L 233.78125 146.59375 C 233.65625 146.875 233.4375 147.09375 233.09375 147.25 L 217.9375 153.5625 C 217.46875 153.75 216.96875 153.75 216.5625 153.5625 L 207.375 149.0625 C 207.0625 148.90625 206.65625 148.96875 206.40625 149.21875 L 181.21875 174.375 C 180.96875 174.65625 180.90625 175.0625 181.0625 175.375 L 185.46875 184.375 C 185.78125 185 185.78125 185.75 185.46875 186.375 C 183.09375 191.21875 181.03125 196.1875 179.3125 201.28125 C 179.21875 201.59375 178.96875 201.84375 178.6875 201.9375 L 168.875 205.28125 C 168.375 205.46875 168 205.9375 168 206.5 L 168 241.8125 C 168 242.125 168.1875 242.375 168.5 242.5 L 178.71875 246.125 C 179 246.25 179.25 246.46875 179.34375 246.78125 C 181.0625 251.96875 183.15625 257.0625 185.625 262.03125 C 185.8125 262.4375 185.8125 262.9375 185.59375 263.375 L 181.1875 272.78125 C 181.0625 273.0625 181.125 273.375 181.34375 273.625 L 206.40625 298.65625 C 206.625 298.875 206.9375 298.9375 207.21875 298.8125 L 216.5 294.46875 C 217.0625 294.1875 217.6875 294.1875 218.1875 294.4375 C 222.96875 296.8125 227.96875 298.90625 233.21875 300.65625 C 233.53125 300.75 233.75 301 233.875 301.28125 L 237.375 311.34375 C 237.5 311.71875 237.875 312 238.28125 312 L 273.125 312 C 273.90625 312 274.59375 311.46875 274.875 310.6875 L 278.21875 301.40625 C 278.34375 301.125 278.5625 300.90625 278.90625 300.75 L 294.03125 294.40625 C 294.4375 294.25 294.90625 294.25 295.28125 294.40625 L 304.75 298.90625 C 305.03125 299.03125 305.375 298.96875 305.625 298.75 L 330.71875 273.78125 C 331 273.5 331.0625 273.125 330.90625 272.78125 L 326.53125 263.625 C 326.21875 262.96875 326.21875 262.25 326.53125 261.625 C 328.9375 256.78125 330.96875 251.8125 332.6875 246.71875 C 332.78125 246.40625 333.03125 246.15625 333.34375 246.0625 L 343.28125 242.65625 C 343.71875 242.5 344 242.09375 344 241.625 L 344 206.28125 C 344 205.875 343.75 205.5 343.34375 205.375 L 333.28125 201.875 C 333 201.75 332.75 201.53125 332.65625 201.21875 " transform="matrix(0.125,0,0,0.125,0,0)"/>
<path style="fill:none;stroke-width:2;stroke-linecap:butt;stroke-linejoin:miter;stroke:rgb(50.196078%,39.215686%,8.235294%);stroke-opacity:1;stroke-miterlimit:4;" d="M 319.90625 224 C 319.90625 188.6875 291.3125 160.09375 256 160.09375 C 220.6875 160.09375 192.09375 188.6875 192.09375 224 C 192.09375 259.3125 220.6875 287.90625 256 287.90625 C 291.3125 287.90625 319.90625 259.3125 319.90625 224 " transform="matrix(0.125,0,0,0.125,0,0)"/>
<path style="fill:none;stroke-width:2;stroke-linecap:butt;stroke-linejoin:miter;stroke:rgb(49.411765%,42.352941%,21.960784%);stroke-opacity:1;stroke-miterlimit:4;" d="M 303.875 224 C 303.875 197.5625 282.4375 176.125 256 176.125 C 229.5625 176.125 208.125 197.5625 208.125 224 C 208.125 250.4375 229.5625 271.875 256 271.875 C 282.4375 271.875 303.875 250.4375 303.875 224 " transform="matrix(0.125,0,0,0.125,0,0)"/>
<path style="fill:none;stroke-width:2;stroke-linecap:butt;stroke-linejoin:miter;stroke:rgb(49.411765%,42.352941%,21.960784%);stroke-opacity:1;stroke-miterlimit:4;" d="M 287.90625 224 C 287.90625 206.375 273.625 192.0625 256 192.0625 C 238.375 192.0625 224.09375 206.375 224.09375 224 C 224.09375 241.625 238.375 255.90625 256 255.90625 C 273.625 255.90625 287.90625 241.625 287.90625 224 " transform="matrix(0.125,0,0,0.125,0,0)"/>
<path style="fill:none;stroke-width:2;stroke-linecap:butt;stroke-linejoin:miter;stroke:rgb(50.196078%,45.882353%,32.941176%);stroke-opacity:1;stroke-miterlimit:4;" d="M 271.90625 224 C 271.90625 215.21875 264.78125 208.09375 256 208.09375 C 247.1875 208.09375 240.0625 215.21875 240.0625 224 C 240.0625 232.78125 247.1875 239.90625 256 239.90625 C 264.78125 239.90625 271.90625 232.78125 271.90625 224 " transform="matrix(0.125,0,0,0.125,0,0)"/>
<path style="fill:none;stroke-width:2;stroke-linecap:butt;stroke-linejoin:miter;stroke:rgb(50.196078%,25.490196%,21.568627%);stroke-opacity:1;stroke-miterlimit:4;" d="M 417.125 443.75 C 416.625 444.28125 415.78125 444.3125 415.25 443.78125 L 406.3125 434.90625 C 406 434.625 405.5625 434.625 405.25 434.90625 L 394.78125 445.25 C 394.53125 445.5 394.53125 445.90625 394.78125 446.15625 L 415.625 467 C 415.84375 467.21875 416.15625 467.21875 416.375 467 L 469.21875 414.125 C 469.53125 413.875 469.53125 413.40625 469.21875 413.125 L 459.03125 402.90625 C 458.65625 402.53125 458.09375 402.53125 457.75 402.90625 L 417.125 443.75 " transform="matrix(0.125,0,0,0.125,0,0)"/>
<path style="fill:none;stroke-width:2;stroke-linecap:butt;stroke-linejoin:miter;stroke:rgb(35.294118%,43.529412%,25.098039%);stroke-opacity:1;stroke-miterlimit:4;" d="M 136 424.28125 C 136 424.125 135.875 424 135.71875 424 L 40.28125 424 C 40.125 424 40 424.125 40 424.28125 L 40 439.71875 C 40 439.875 40.125 440 40.28125 440 L 135.71875 440 C 135.875 440 136 439.875 136 439.71875 L 136 424.28125 " transform="matrix(0.125,0,0,0.125,0,0)"/>
<path style="fill:none;stroke-width:2;stroke-linecap:butt;stroke-linejoin:miter;stroke:rgb(35.294118%,43.529412%,25.098039%);stroke-opacity:1;stroke-miterlimit:4;" d="M 104 456.3125 C 104 456.125 103.875 456 103.6875 456 L 40.3125 456 C 40.125 456 40 456.125 40 456.3125 L 40 471.6875 C 40 471.875 40.125 472 40.3125 472 L 103.6875 472 C 103.875 472 104 471.875 104 471.6875 L 104 456.3125 " transform="matrix(0.125,0,0,0.125,0,0)"/>
<path style="fill:none;stroke-width:2;stroke-linecap:butt;stroke-linejoin:miter;stroke:rgb(35.294118%,43.529412%,25.098039%);stroke-opacity:1;stroke-miterlimit:4;" d="M 136 456.40625 C 136 456.1875 135.78125 456 135.5625 456 L 120.40625 456 C 120.1875 456 120 456.21875 120 456.4375 L 120 471.59375 C 120 471.8125 120.21875 472 120.4375 472 L 135.59375 472 C 135.8125 472 136 471.78125 136 471.5625 L 136 456.40625 " transform="matrix(0.125,0,0,0.125,0,0)"/>
<path style=" stroke:none;fill-rule:nonzero;fill:rgb(0%,0%,0%);fill-opacity:1;" d="M 11.085938 18.910156 C 11.035156 18.914062 11 18.957031 11 19.003906 C 11 21.222656 11 23.425781 11 25.613281 C 11 26.027344 11.046875 26.320312 11.136719 26.488281 C 11.25 26.691406 11.421875 26.839844 11.652344 26.925781 C 11.789062 26.976562 12 27 12.296875 27 C 12.726562 27 13.160156 27 13.589844 27 C 13.597656 27 13.664062 27.003906 13.785156 27.015625 C 13.988281 27.03125 14.085938 26.9375 14.082031 26.738281 C 14.078125 26.558594 14.074219 26.460938 14.074219 26.449219 C 14.414062 22.664062 15.804688 19.328125 18.253906 16.4375 C 20.886719 13.328125 24.148438 11.324219 28.03125 10.4375 C 30.703125 9.828125 33.402344 9.835938 36.128906 10.46875 C 36.953125 10.660156 37.746094 10.90625 38.515625 11.207031 C 41.386719 12.335938 43.84375 14.128906 45.882812 16.582031 C 45.910156 16.617188 45.957031 16.617188 45.988281 16.585938 L 48.953125 13.625 C 48.984375 13.59375 49 13.554688 49 13.515625 L 49 5.109375 C 49 5.046875 49.046875 5 49.109375 5 L 52.890625 5 C 52.953125 5 53 4.953125 53 4.890625 L 53 3.109375 C 53 3.046875 53.046875 3 53.109375 3 L 56.890625 3 C 56.953125 3 57 2.953125 57 2.890625 L 57 1.109375 C 57 1.046875 57.046875 1 57.109375 1 L 62.882812 1 C 62.949219 1 63 1.050781 63 1.117188 L 63 14.894531 C 63 14.953125 62.953125 15 62.894531 15 L 50.523438 15 C 50.457031 15 50.394531 15.027344 50.347656 15.074219 L 47.226562 18.199219 C 47.164062 18.257812 47.152344 18.351562 47.199219 18.425781 C 48.824219 21.035156 49.738281 23.859375 49.933594 26.894531 C 49.9375 26.953125 49.988281 27 50.046875 27 C 50.714844 27 51.355469 27.003906 51.96875 27.011719 C 52.964844 27.023438 53.757812 27.402344 54.351562 28.148438 C 54.773438 28.675781 54.984375 29.304688 54.984375 30.03125 C 54.996094 34.980469 55 39.945312 55 44.921875 C 55 44.996094 55.050781 45.054688 55.121094 45.066406 C 58.023438 45.558594 60.21875 46.996094 61.710938 49.382812 C 62.5 50.648438 62.925781 52.046875 62.988281 53.585938 C 63.019531 54.410156 62.941406 55.234375 62.742188 56.066406 C 62.167969 58.511719 60.785156 60.398438 58.601562 61.726562 C 57.1875 62.585938 55.640625 63.007812 53.964844 62.992188 C 53.132812 62.988281 52.3125 62.867188 51.5 62.632812 C 49.269531 61.988281 47.535156 60.648438 46.289062 58.617188 C 45.660156 57.589844 45.261719 56.476562 45.09375 55.277344 C 44.976562 54.457031 44.976562 53.628906 45.09375 52.785156 C 45.390625 50.664062 46.351562 48.859375 47.984375 47.363281 C 49.339844 46.125 50.972656 45.359375 52.882812 45.074219 C 52.949219 45.0625 53 45.007812 53 44.9375 C 53 39.980469 53 35.042969 53 30.125 C 53 29.691406 52.851562 29.375 52.554688 29.183594 C 52.375 29.066406 52.070312 29.003906 51.640625 29.003906 C 51.128906 29 50.601562 28.996094 50.0625 29 C 50.007812 29 49.960938 29.042969 49.957031 29.097656 C 49.753906 32.207031 48.808594 35.078125 47.117188 37.71875 C 45.679688 39.964844 43.800781 41.820312 41.484375 43.28125 C 41.441406 43.308594 41.441406 43.367188 41.484375 43.394531 C 42.164062 43.835938 42.613281 44.398438 42.835938 45.078125 C 43.054688 45.746094 43.035156 46.421875 42.769531 47.097656 C 42.445312 47.941406 41.800781 48.53125 40.839844 48.867188 C 40.808594 48.878906 40.792969 48.910156 40.800781 48.941406 C 41.023438 49.558594 41.042969 50.171875 40.863281 50.785156 C 40.570312 51.789062 39.90625 52.476562 38.867188 52.847656 C 38.820312 52.863281 38.796875 52.917969 38.8125 52.964844 C 38.992188 53.519531 39.027344 54.054688 38.917969 54.558594 C 38.699219 55.589844 38.082031 56.328125 37.078125 56.773438 C 37.027344 56.796875 36.996094 56.84375 37 56.898438 C 37.011719 57.445312 36.992188 57.96875 36.941406 58.464844 C 36.800781 59.890625 36.191406 61.035156 35.117188 61.898438 C 34.523438 62.375 33.855469 62.699219 33.113281 62.867188 C 32.40625 63.027344 31.683594 63.03125 30.949219 62.882812 C 29.859375 62.660156 28.957031 62.128906 28.242188 61.289062 C 27.417969 60.320312 27.003906 59.191406 27 57.90625 C 27 57.5625 27 57.257812 27 56.996094 C 27 56.894531 26.945312 56.804688 26.855469 56.757812 C 25.808594 56.21875 25.203125 55.429688 25.039062 54.390625 C 25 54.148438 24.996094 53.910156 25.027344 53.671875 C 25.058594 53.445312 25.109375 53.210938 25.183594 52.964844 C 25.199219 52.921875 25.171875 52.871094 25.128906 52.855469 C 24.304688 52.59375 23.699219 52.0625 23.3125 51.265625 C 22.949219 50.519531 22.910156 49.757812 23.195312 48.976562 C 23.210938 48.929688 23.1875 48.878906 23.140625 48.859375 C 22.210938 48.523438 21.582031 47.953125 21.25 47.15625 C 20.96875 46.488281 20.933594 45.816406 21.140625 45.132812 C 21.351562 44.4375 21.796875 43.867188 22.480469 43.421875 C 22.539062 43.382812 22.539062 43.296875 22.480469 43.261719 C 19.992188 41.714844 17.980469 39.648438 16.449219 37.066406 C 16.421875 37.027344 16.378906 37 16.328125 37 C 14.566406 37 12.8125 37 11.0625 37 C 10.625 37 10.320312 37.164062 10.144531 37.488281 C 10.046875 37.667969 10 37.976562 10 38.410156 C 10 41.917969 10 45.414062 10 48.894531 C 10 48.953125 10.046875 49 10.105469 49 L 12.28125 49 C 12.339844 49 12.394531 48.964844 12.421875 48.914062 C 12.859375 48.042969 13.273438 47.222656 13.664062 46.445312 C 13.90625 45.960938 14.222656 45.59375 14.609375 45.347656 C 14.988281 45.105469 15.433594 45 15.949219 45.035156 C 16.789062 45.09375 17.390625 45.503906 17.753906 46.265625 C 17.894531 46.558594 17.972656 46.941406 17.992188 47.414062 C 18.007812 47.878906 18.011719 48.359375 17.996094 48.863281 C 17.996094 48.921875 18.039062 48.972656 18.09375 48.980469 C 19.523438 49.199219 20.433594 49.898438 20.828125 51.074219 C 20.941406 51.414062 21 51.914062 21 52.570312 C 21 54.964844 21 57.355469 21 59.75 C 21 60.246094 20.921875 60.699219 20.765625 61.105469 C 20.605469 61.53125 20.351562 61.898438 20.007812 62.214844 C 19.425781 62.742188 18.703125 63.007812 17.84375 63.007812 C 13.609375 63.003906 9.375 63 5.140625 63 C 4.179688 63 3.589844 62.976562 3.367188 62.929688 C 2.746094 62.796875 2.214844 62.488281 1.773438 62.007812 C 1.261719 61.449219 1.007812 60.761719 1.007812 59.9375 C 1.003906 57.683594 1 55.425781 1 53.171875 C 1 52.191406 1.019531 51.601562 1.0625 51.390625 C 1.191406 50.769531 1.496094 50.234375 1.976562 49.789062 C 2.527344 49.277344 3.214844 49.019531 4.03125 49.011719 C 5.332031 49.003906 6.621094 49 7.890625 49 C 7.953125 49 8 48.953125 8 48.890625 C 8 45.617188 8 42.367188 8 39.140625 C 8 38.175781 8.023438 37.585938 8.070312 37.367188 C 8.199219 36.746094 8.507812 36.214844 8.992188 35.773438 C 9.582031 35.234375 10.316406 34.972656 11.1875 34.980469 C 12.519531 34.992188 13.894531 35 15.3125 35 C 15.363281 35 15.398438 34.949219 15.382812 34.898438 C 14.609375 32.992188 14.167969 31.0625 14.058594 29.113281 C 14.054688 29.050781 14 29 13.933594 29 C 13.425781 29 12.9375 29.007812 12.46875 29.023438 C 12.078125 29.039062 11.699219 29 11.328125 28.910156 C 10.949219 28.820312 10.605469 28.667969 10.296875 28.457031 C 9.753906 28.078125 9.378906 27.585938 9.171875 26.972656 C 9.058594 26.628906 9 26.035156 9 25.195312 C 9 23.164062 9 21.121094 9 19.058594 C 9 18.992188 8.953125 18.9375 8.886719 18.925781 C 6.609375 18.574219 4.738281 17.582031 3.273438 15.945312 C 1.644531 14.125 0.890625 11.996094 1.019531 9.554688 C 1.0625 8.714844 1.21875 7.898438 1.492188 7.109375 C 2.300781 4.738281 3.871094 2.984375 6.195312 1.851562 C 6.75 1.582031 7.351562 1.371094 8 1.226562 C 8.605469 1.089844 9.234375 1.019531 9.886719 1.011719 C 12.292969 0.984375 14.378906 1.796875 16.148438 3.445312 C 17.34375 4.5625 18.171875 5.902344 18.632812 7.46875 C 18.863281 8.261719 18.984375 9.082031 18.988281 9.933594 C 19.011719 12.234375 18.246094 14.25 16.695312 15.976562 C 15.183594 17.660156 13.3125 18.636719 11.085938 18.910156 Z M 16.984375 10 C 16.984375 6.140625 13.859375 3.011719 10 3.011719 C 6.140625 3.011719 3.011719 6.140625 3.011719 10 C 3.011719 13.859375 6.140625 16.984375 10 16.984375 C 13.859375 16.984375 16.984375 13.859375 16.984375 10 Z M 61 3.070312 C 61 3.03125 60.96875 3 60.929688 3 L 59.070312 3 C 59.03125 3 59 3.03125 59 3.070312 L 59 12.929688 C 59 12.96875 59.03125 13 59.070312 13 L 60.929688 13 C 60.96875 13 61 12.96875 61 12.929688 Z M 57 5.085938 C 57 5.039062 56.960938 5 56.914062 5 L 55.085938 5 C 55.039062 5 55 5.039062 55 5.085938 L 55 12.914062 C 55 12.960938 55.039062 13 55.085938 13 L 56.914062 13 C 56.960938 13 57 12.960938 57 12.914062 Z M 53 7.070312 C 53 7.03125 52.96875 7 52.929688 7 L 51.070312 7 C 51.03125 7 51 7.03125 51 7.070312 L 51 12.929688 C 51 12.96875 51.03125 13 51.070312 13 L 52.929688 13 C 52.96875 13 53 12.96875 53 12.929688 Z M 24.929688 44.992188 C 24.628906 45.003906 24.332031 45.007812 24.03125 45.015625 C 23.742188 45.019531 23.503906 45.109375 23.320312 45.285156 C 23.144531 45.449219 23.042969 45.660156 23.015625 45.921875 C 22.984375 46.226562 23.078125 46.484375 23.300781 46.695312 C 23.449219 46.835938 23.636719 46.921875 23.863281 46.957031 C 24.039062 46.984375 24.25 47 24.5 47 C 29.5 47 34.5 47.003906 39.5 47.015625 C 39.839844 47.019531 40.066406 47.003906 40.1875 46.96875 C 40.664062 46.835938 40.925781 46.558594 40.972656 46.132812 C 41 45.886719 40.957031 45.660156 40.832031 45.453125 C 40.695312 45.21875 40.488281 45.078125 40.21875 45.03125 C 40.039062 45 39.65625 44.984375 39.070312 44.992188 C 39.035156 44.992188 39.007812 44.964844 39.007812 44.929688 L 39 42.453125 C 39 42.414062 39.023438 42.375 39.058594 42.359375 C 41.902344 40.914062 44.128906 38.851562 45.730469 36.179688 C 46.152344 35.476562 46.519531 34.730469 46.832031 33.9375 C 48.390625 29.980469 48.390625 26.019531 46.832031 22.0625 C 46.519531 21.269531 46.152344 20.523438 45.734375 19.820312 C 44.324219 17.445312 42.433594 15.570312 40.0625 14.1875 C 37.359375 12.609375 34.429688 11.890625 31.28125 12.023438 C 28.738281 12.132812 26.363281 12.8125 24.160156 14.0625 C 22.484375 15.011719 21.03125 16.222656 19.792969 17.699219 C 17.089844 20.921875 15.84375 24.65625 16.058594 28.90625 C 16.148438 30.703125 16.496094 32.34375 17.101562 33.835938 C 18.652344 37.652344 21.257812 40.488281 24.917969 42.347656 C 24.96875 42.371094 25 42.421875 25 42.476562 L 24.992188 44.929688 C 24.992188 44.964844 24.964844 44.992188 24.929688 44.992188 Z M 60.984375 54 C 60.984375 50.140625 57.859375 47.011719 54 47.011719 C 50.140625 47.011719 47.011719 50.140625 47.011719 54 C 47.011719 57.859375 50.140625 60.984375 54 60.984375 C 57.859375 60.984375 60.984375 57.859375 60.984375 54 Z M 16.007812 50.929688 C 16 49.816406 15.996094 48.699219 16 47.582031 C 16 47.578125 16.003906 47.523438 16.011719 47.417969 C 16.023438 47.28125 15.984375 47.167969 15.898438 47.070312 C 15.765625 46.921875 15.644531 46.953125 15.539062 47.164062 L 13.671875 50.90625 C 13.644531 50.964844 13.585938 51 13.519531 51 C 10.601562 51 7.710938 51 4.839844 51 C 4.285156 51 3.953125 51.011719 3.851562 51.03125 C 3.425781 51.113281 3.160156 51.347656 3.050781 51.738281 C 3.015625 51.855469 3 52.28125 3 53.015625 C 3 55.261719 2.992188 57.503906 2.980469 59.75 C 2.972656 60.582031 3.398438 61 4.25 61 C 8.75 61 13.25 61.007812 17.75 61.023438 C 18.582031 61.027344 19 60.601562 19 59.75 C 19 57.199219 18.996094 54.644531 18.988281 52.09375 C 18.988281 51.707031 18.863281 51.417969 18.609375 51.226562 C 18.441406 51.097656 18.167969 51.027344 17.78125 51.015625 C 17.210938 50.996094 16.640625 50.988281 16.070312 50.992188 C 16.035156 50.992188 16.007812 50.964844 16.007812 50.929688 Z M 38.988281 49.984375 C 38.988281 49.441406 38.546875 49.003906 38.007812 49.003906 L 25.992188 49.003906 C 25.449219 49.003906 25.011719 49.441406 25.011719 49.984375 L 25.011719 50.015625 C 25.011719 50.558594 25.449219 50.996094 25.992188 50.996094 L 38.007812 50.996094 C 38.546875 50.996094 38.988281 50.558594 38.988281 50.015625 Z M 36.988281 53.980469 C 36.988281 53.441406 36.550781 53.003906 36.011719 53.003906 L 27.984375 53.003906 C 27.445312 53.003906 27.011719 53.441406 27.011719 53.980469 L 27.011719 54.019531 C 27.011719 54.558594 27.445312 54.996094 27.984375 54.996094 L 36.011719 54.996094 C 36.550781 54.996094 36.988281 54.558594 36.988281 54.019531 Z M 30.019531 60.230469 C 30.53125 60.679688 31.097656 60.929688 31.726562 60.980469 C 32.332031 61.03125 32.90625 60.910156 33.453125 60.609375 C 33.890625 60.367188 34.25 60.03125 34.523438 59.597656 C 34.738281 59.257812 34.878906 58.859375 34.949219 58.410156 C 35.007812 58.007812 35.019531 57.582031 34.988281 57.128906 C 34.984375 57.054688 34.925781 57 34.855469 57 L 29.070312 57.007812 C 29.035156 57.007812 29.007812 57.035156 29.003906 57.070312 C 28.980469 57.648438 28.992188 58.113281 29.039062 58.460938 C 29.132812 59.148438 29.460938 59.738281 30.019531 60.230469 Z M 30.019531 60.230469 "/>
<path style=" stroke:none;fill-rule:nonzero;fill:rgb(100%,50.980392%,43.137255%);fill-opacity:1;" d="M 16.984375 10 C 16.984375 13.859375 13.859375 16.984375 10 16.984375 C 6.140625 16.984375 3.011719 13.859375 3.011719 10 C 3.011719 6.140625 6.140625 3.011719 10 3.011719 C 13.859375 3.011719 16.984375 6.140625 16.984375 10 Z M 8.140625 11.46875 C 8.078125 11.535156 7.972656 11.539062 7.90625 11.472656 L 6.789062 10.363281 C 6.75 10.328125 6.695312 10.328125 6.65625 10.363281 L 5.347656 11.65625 C 5.316406 11.6875 5.316406 11.738281 5.347656 11.769531 L 7.953125 14.375 C 7.980469 14.402344 8.019531 14.402344 8.046875 14.375 L 14.652344 7.765625 C 14.691406 7.734375 14.691406 7.675781 14.652344 7.640625 L 13.378906 6.363281 C 13.332031 6.316406 13.261719 6.316406 13.21875 6.363281 Z M 8.140625 11.46875 "/>
<path style=" stroke:none;fill-rule:nonzero;fill:rgb(70.588235%,86.666667%,49.803922%);fill-opacity:1;" d="M 59.070312 3 L 60.929688 3 C 60.96875 3 61 3.03125 61 3.070312 L 61 12.929688 C 61 12.96875 60.96875 13 60.929688 13 L 59.070312 13 C 59.03125 13 59 12.96875 59 12.929688 L 59 3.070312 C 59 3.03125 59.03125 3 59.070312 3 Z M 59.070312 3 "/>
<path style=" stroke:none;fill-rule:nonzero;fill:rgb(70.588235%,86.666667%,49.803922%);fill-opacity:1;" d="M 55.085938 5 L 56.914062 5 C 56.960938 5 57 5.039062 57 5.085938 L 57 12.914062 C 57 12.960938 56.960938 13 56.914062 13 L 55.085938 13 C 55.039062 13 55 12.960938 55 12.914062 L 55 5.085938 C 55 5.039062 55.039062 5 55.085938 5 Z M 55.085938 5 "/>
<path style=" stroke:none;fill-rule:nonzero;fill:rgb(0%,0%,0%);fill-opacity:1;" d="M 8.140625 11.46875 L 13.21875 6.363281 C 13.261719 6.316406 13.332031 6.316406 13.378906 6.363281 L 14.652344 7.640625 C 14.691406 7.675781 14.691406 7.734375 14.652344 7.765625 L 8.046875 14.375 C 8.019531 14.402344 7.980469 14.402344 7.953125 14.375 L 5.347656 11.769531 C 5.316406 11.738281 5.316406 11.6875 5.347656 11.65625 L 6.65625 10.363281 C 6.695312 10.328125 6.75 10.328125 6.789062 10.363281 L 7.90625 11.472656 C 7.972656 11.539062 8.078125 11.535156 8.140625 11.46875 Z M 8.140625 11.46875 "/>
<path style=" stroke:none;fill-rule:nonzero;fill:rgb(70.588235%,86.666667%,49.803922%);fill-opacity:1;" d="M 51.070312 7 L 52.929688 7 C 52.96875 7 53 7.03125 53 7.070312 L 53 12.929688 C 53 12.96875 52.96875 13 52.929688 13 L 51.070312 13 C 51.03125 13 51 12.96875 51 12.929688 L 51 7.070312 C 51 7.03125 51.03125 7 51.070312 7 Z M 51.070312 7 "/>
<path style=" stroke:none;fill-rule:nonzero;fill:rgb(100%,91.764706%,65.490196%);fill-opacity:1;" d="M 24.992188 44.929688 L 25 42.476562 C 25 42.421875 24.96875 42.371094 24.917969 42.347656 C 21.257812 40.488281 18.652344 37.652344 17.101562 33.835938 C 16.496094 32.34375 16.148438 30.703125 16.058594 28.90625 C 15.84375 24.65625 17.089844 20.921875 19.792969 17.699219 C 21.03125 16.222656 22.484375 15.011719 24.160156 14.0625 C 26.363281 12.8125 28.738281 12.132812 31.28125 12.023438 C 34.429688 11.890625 37.359375 12.609375 40.0625 14.1875 C 42.433594 15.570312 44.324219 17.445312 45.734375 19.820312 C 46.152344 20.523438 46.519531 21.269531 46.832031 22.0625 C 48.390625 26.019531 48.390625 29.980469 46.832031 33.9375 C 46.519531 34.730469 46.152344 35.476562 45.730469 36.179688 C 44.128906 38.851562 41.902344 40.914062 39.058594 42.359375 C 39.023438 42.375 39 42.414062 39 42.453125 L 39.007812 44.929688 C 39.007812 44.964844 39.035156 44.992188 39.070312 44.992188 C 39.65625 44.984375 40.039062 45 40.21875 45.03125 C 40.488281 45.078125 40.695312 45.21875 40.832031 45.453125 C 40.957031 45.660156 41 45.886719 40.972656 46.132812 C 40.925781 46.558594 40.664062 46.835938 40.1875 46.96875 C 40.066406 47.003906 39.839844 47.019531 39.5 47.015625 C 34.5 47.003906 29.5 47 24.5 47 C 24.25 47 24.039062 46.984375 23.863281 46.957031 C 23.636719 46.921875 23.449219 46.835938 23.300781 46.695312 C 23.078125 46.484375 22.984375 46.226562 23.015625 45.921875 C 23.042969 45.660156 23.144531 45.449219 23.320312 45.285156 C 23.503906 45.109375 23.742188 45.019531 24.03125 45.015625 C 24.332031 45.007812 24.628906 45.003906 24.929688 44.992188 C 24.964844 44.992188 24.992188 44.964844 24.992188 44.929688 Z M 20.746094 23.671875 L 19.078125 24.265625 C 19.03125 24.285156 19 24.328125 19 24.378906 L 19 31.65625 C 19 31.691406 19.023438 31.726562 19.058594 31.738281 C 19.550781 31.902344 20.027344 32.0625 20.492188 32.226562 C 20.710938 32.304688 20.859375 32.425781 20.9375 32.59375 C 20.996094 32.722656 20.984375 32.882812 20.890625 33.082031 C 20.667969 33.570312 20.441406 34.050781 20.203125 34.519531 C 20.191406 34.550781 20.195312 34.585938 20.21875 34.609375 L 25.359375 39.753906 C 25.402344 39.792969 25.460938 39.800781 25.511719 39.777344 L 27.097656 39.027344 C 27.144531 39.007812 27.1875 39 27.21875 39.011719 L 27.59375 39.164062 C 27.625 39.171875 27.652344 39.207031 27.671875 39.253906 L 28.265625 40.921875 C 28.285156 40.96875 28.328125 41 28.378906 41 L 35.617188 41 C 35.675781 41 35.730469 40.960938 35.75 40.902344 C 35.921875 40.402344 36.09375 39.898438 36.273438 39.394531 C 36.308594 39.289062 36.359375 39.210938 36.425781 39.160156 C 36.507812 39.101562 36.59375 39.058594 36.691406 39.03125 C 36.804688 39.003906 36.9375 39.027344 37.085938 39.101562 C 37.570312 39.335938 38.046875 39.570312 38.523438 39.796875 C 38.550781 39.8125 38.585938 39.804688 38.609375 39.78125 L 43.753906 34.640625 C 43.792969 34.597656 43.800781 34.539062 43.777344 34.488281 C 43.542969 33.996094 43.316406 33.527344 43.105469 33.085938 C 42.984375 32.835938 42.992188 32.625 43.136719 32.460938 C 43.214844 32.371094 43.371094 32.285156 43.613281 32.203125 C 44.046875 32.058594 44.492188 31.898438 44.949219 31.722656 C 44.980469 31.710938 45 31.679688 45 31.648438 L 45 24.382812 C 45 24.324219 44.960938 24.269531 44.902344 24.25 L 43.285156 23.671875 C 43.210938 23.644531 43.148438 23.578125 43.113281 23.492188 L 43.003906 23.234375 C 42.988281 23.199219 42.988281 23.15625 43.003906 23.125 L 43.789062 21.484375 C 43.804688 21.449219 43.796875 21.40625 43.769531 21.378906 L 38.617188 16.226562 C 38.59375 16.203125 38.558594 16.199219 38.527344 16.210938 C 38.097656 16.410156 37.691406 16.605469 37.304688 16.792969 C 37.296875 16.792969 37.238281 16.828125 37.125 16.890625 C 36.933594 16.996094 36.753906 17.011719 36.574219 16.933594 C 36.433594 16.875 36.324219 16.738281 36.246094 16.523438 C 36.082031 16.070312 35.917969 15.597656 35.753906 15.105469 C 35.734375 15.042969 35.675781 15 35.609375 15 L 28.394531 15 C 28.332031 15 28.277344 15.039062 28.257812 15.097656 C 28.089844 15.566406 27.910156 16.050781 27.722656 16.546875 C 27.554688 16.980469 27.261719 17.089844 26.847656 16.875 C 26.402344 16.644531 25.949219 16.421875 25.484375 16.210938 C 25.449219 16.195312 25.40625 16.203125 25.378906 16.230469 L 20.226562 21.382812 C 20.203125 21.40625 20.195312 21.445312 20.210938 21.476562 C 20.449219 21.976562 20.679688 22.464844 20.894531 22.9375 C 20.953125 23.0625 20.976562 23.171875 20.964844 23.265625 C 20.953125 23.382812 20.910156 23.496094 20.839844 23.597656 C 20.820312 23.628906 20.785156 23.65625 20.746094 23.671875 Z M 20.746094 23.671875 "/>
<path style=" stroke:none;fill-rule:nonzero;fill:rgb(0%,0%,0%);fill-opacity:1;" d="M 20.839844 23.597656 C 20.910156 23.496094 20.953125 23.382812 20.964844 23.265625 C 20.976562 23.171875 20.953125 23.0625 20.894531 22.9375 C 20.679688 22.464844 20.449219 21.976562 20.210938 21.476562 C 20.195312 21.445312 20.203125 21.40625 20.226562 21.382812 L 25.378906 16.230469 C 25.40625 16.203125 25.449219 16.195312 25.484375 16.210938 C 25.949219 16.421875 26.402344 16.644531 26.847656 16.875 C 27.261719 17.089844 27.554688 16.980469 27.722656 16.546875 C 27.910156 16.050781 28.089844 15.566406 28.257812 15.097656 C 28.277344 15.039062 28.332031 15 28.394531 15 L 35.609375 15 C 35.675781 15 35.734375 15.042969 35.753906 15.105469 C 35.917969 15.597656 36.082031 16.070312 36.246094 16.523438 C 36.324219 16.738281 36.433594 16.875 36.574219 16.933594 C 36.753906 17.011719 36.933594 16.996094 37.125 16.890625 C 37.238281 16.828125 37.296875 16.792969 37.304688 16.792969 C 37.691406 16.605469 38.097656 16.410156 38.527344 16.210938 C 38.558594 16.199219 38.59375 16.203125 38.617188 16.226562 L 43.769531 21.378906 C 43.796875 21.40625 43.804688 21.449219 43.789062 21.484375 L 43.003906 23.125 C 42.988281 23.15625 42.988281 23.199219 43.003906 23.234375 L 43.113281 23.492188 C 43.148438 23.578125 43.210938 23.644531 43.285156 23.671875 L 44.902344 24.25 C 44.960938 24.269531 45 24.324219 45 24.382812 L 45 31.648438 C 45 31.679688 44.980469 31.710938 44.949219 31.722656 C 44.492188 31.898438 44.046875 32.058594 43.613281 32.203125 C 43.371094 32.285156 43.214844 32.371094 43.136719 32.460938 C 42.992188 32.625 42.984375 32.835938 43.105469 33.085938 C 43.316406 33.527344 43.542969 33.996094 43.777344 34.488281 C 43.800781 34.539062 43.792969 34.597656 43.753906 34.640625 L 38.609375 39.78125 C 38.585938 39.804688 38.550781 39.8125 38.523438 39.796875 C 38.046875 39.570312 37.570312 39.335938 37.085938 39.101562 C 36.9375 39.027344 36.804688 39.003906 36.691406 39.03125 C 36.59375 39.058594 36.507812 39.101562 36.425781 39.160156 C 36.359375 39.210938 36.308594 39.289062 36.273438 39.394531 C 36.09375 39.898438 35.921875 40.402344 35.75 40.902344 C 35.730469 40.960938 35.675781 41 35.617188 41 L 28.378906 41 C 28.328125 41 28.285156 40.96875 28.265625 40.921875 L 27.671875 39.253906 C 27.652344 39.207031 27.625 39.171875 27.59375 39.164062 L 27.21875 39.011719 C 27.1875 39 27.144531 39.007812 27.097656 39.027344 L 25.511719 39.777344 C 25.460938 39.800781 25.402344 39.792969 25.359375 39.753906 L 20.21875 34.609375 C 20.195312 34.585938 20.191406 34.550781 20.203125 34.519531 C 20.441406 34.050781 20.667969 33.570312 20.890625 33.082031 C 20.984375 32.882812 20.996094 32.722656 20.9375 32.59375 C 20.859375 32.425781 20.710938 32.304688 20.492188 32.226562 C 20.027344 32.0625 19.550781 31.902344 19.058594 31.738281 C 19.023438 31.726562 19 31.691406 19 31.65625 L 19 24.378906 C 19 24.328125 19.03125 24.285156 19.078125 24.265625 L 20.746094 23.671875 C 20.785156 23.65625 20.820312 23.628906 20.839844 23.597656 Z M 41.582031 25.152344 C 41.363281 24.503906 41.101562 23.863281 40.789062 23.230469 C 40.769531 23.191406 40.769531 23.144531 40.789062 23.109375 L 41.351562 21.960938 C 41.382812 21.898438 41.367188 21.824219 41.320312 21.773438 L 38.199219 18.667969 C 38.171875 18.640625 38.132812 18.636719 38.097656 18.652344 L 36.871094 19.195312 C 36.835938 19.207031 36.796875 19.207031 36.757812 19.191406 L 34.886719 18.414062 C 34.8125 18.382812 34.757812 18.328125 34.734375 18.257812 L 34.328125 17.082031 C 34.3125 17.035156 34.265625 17 34.214844 17 L 29.824219 17 C 29.75 17 29.679688 17.050781 29.648438 17.132812 L 29.222656 18.324219 C 29.207031 18.359375 29.179688 18.386719 29.136719 18.40625 L 27.242188 19.195312 C 27.183594 19.21875 27.121094 19.21875 27.070312 19.195312 L 25.921875 18.632812 C 25.882812 18.613281 25.832031 18.621094 25.800781 18.652344 L 22.652344 21.796875 C 22.621094 21.832031 22.613281 21.882812 22.632812 21.921875 L 23.183594 23.046875 C 23.222656 23.125 23.222656 23.21875 23.183594 23.296875 C 22.886719 23.902344 22.628906 24.523438 22.414062 25.160156 C 22.402344 25.199219 22.371094 25.230469 22.335938 25.242188 L 21.109375 25.660156 C 21.046875 25.683594 21 25.742188 21 25.8125 L 21 30.226562 C 21 30.265625 21.023438 30.296875 21.0625 30.3125 L 22.339844 30.765625 C 22.375 30.78125 22.40625 30.808594 22.417969 30.847656 C 22.632812 31.496094 22.894531 32.132812 23.203125 32.753906 C 23.226562 32.804688 23.226562 32.867188 23.199219 32.921875 L 22.648438 34.097656 C 22.632812 34.132812 22.640625 34.171875 22.667969 34.203125 L 25.800781 37.332031 C 25.828125 37.359375 25.867188 37.367188 25.902344 37.351562 L 27.0625 36.808594 C 27.132812 36.773438 27.210938 36.773438 27.273438 36.804688 C 27.871094 37.101562 28.496094 37.363281 29.152344 37.582031 C 29.191406 37.59375 29.21875 37.625 29.234375 37.660156 L 29.671875 38.917969 C 29.6875 38.964844 29.734375 39 29.785156 39 L 34.140625 39 C 34.238281 39 34.324219 38.933594 34.359375 38.835938 L 34.777344 37.675781 C 34.792969 37.640625 34.820312 37.613281 34.863281 37.59375 L 36.753906 36.800781 C 36.804688 36.78125 36.863281 36.78125 36.910156 36.800781 L 38.09375 37.363281 C 38.128906 37.378906 38.171875 37.371094 38.203125 37.34375 L 41.339844 34.222656 C 41.375 34.1875 41.382812 34.140625 41.363281 34.097656 L 40.816406 32.953125 C 40.777344 32.871094 40.777344 32.78125 40.816406 32.703125 C 41.117188 32.097656 41.371094 31.476562 41.585938 30.839844 C 41.597656 30.800781 41.628906 30.769531 41.667969 30.757812 L 42.910156 30.332031 C 42.964844 30.3125 43 30.261719 43 30.203125 L 43 25.785156 C 43 25.734375 42.96875 25.6875 42.917969 25.671875 L 41.660156 25.234375 C 41.625 25.21875 41.59375 25.191406 41.582031 25.152344 Z M 41.582031 25.152344 "/>
<path style=" stroke:none;fill-rule:nonzero;fill:rgb(100%,78.039216%,16.078431%);fill-opacity:1;" d="M 41.660156 25.234375 L 42.917969 25.671875 C 42.96875 25.6875 43 25.734375 43 25.785156 L 43 30.203125 C 43 30.261719 42.964844 30.3125 42.910156 30.332031 L 41.667969 30.757812 C 41.628906 30.769531 41.597656 30.800781 41.585938 30.839844 C 41.371094 31.476562 41.117188 32.097656 40.816406 32.703125 C 40.777344 32.78125 40.777344 32.871094 40.816406 32.953125 L 41.363281 34.097656 C 41.382812 34.140625 41.375 34.1875 41.339844 34.222656 L 38.203125 37.34375 C 38.171875 37.371094 38.128906 37.378906 38.09375 37.363281 L 36.910156 36.800781 C 36.863281 36.78125 36.804688 36.78125 36.753906 36.800781 L 34.863281 37.59375 C 34.820312 37.613281 34.792969 37.640625 34.777344 37.675781 L 34.359375 38.835938 C 34.324219 38.933594 34.238281 39 34.140625 39 L 29.785156 39 C 29.734375 39 29.6875 38.964844 29.671875 38.917969 L 29.234375 37.660156 C 29.21875 37.625 29.191406 37.59375 29.152344 37.582031 C 28.496094 37.363281 27.871094 37.101562 27.273438 36.804688 C 27.210938 36.773438 27.132812 36.773438 27.0625 36.808594 L 25.902344 37.351562 C 25.867188 37.367188 25.828125 37.359375 25.800781 37.332031 L 22.667969 34.203125 C 22.640625 34.171875 22.632812 34.132812 22.648438 34.097656 L 23.199219 32.921875 C 23.226562 32.867188 23.226562 32.804688 23.203125 32.753906 C 22.894531 32.132812 22.632812 31.496094 22.417969 30.847656 C 22.40625 30.808594 22.375 30.78125 22.339844 30.765625 L 21.0625 30.3125 C 21.023438 30.296875 21 30.265625 21 30.226562 L 21 25.8125 C 21 25.742188 21.046875 25.683594 21.109375 25.660156 L 22.335938 25.242188 C 22.371094 25.230469 22.402344 25.199219 22.414062 25.160156 C 22.628906 24.523438 22.886719 23.902344 23.183594 23.296875 C 23.222656 23.21875 23.222656 23.125 23.183594 23.046875 L 22.632812 21.921875 C 22.613281 21.882812 22.621094 21.832031 22.652344 21.796875 L 25.800781 18.652344 C 25.832031 18.621094 25.882812 18.613281 25.921875 18.632812 L 27.070312 19.195312 C 27.121094 19.21875 27.183594 19.21875 27.242188 19.195312 L 29.136719 18.40625 C 29.179688 18.386719 29.207031 18.359375 29.222656 18.324219 L 29.648438 17.132812 C 29.679688 17.050781 29.75 17 29.824219 17 L 34.214844 17 C 34.265625 17 34.3125 17.035156 34.328125 17.082031 L 34.734375 18.257812 C 34.757812 18.328125 34.8125 18.382812 34.886719 18.414062 L 36.757812 19.191406 C 36.796875 19.207031 36.835938 19.207031 36.871094 19.195312 L 38.097656 18.652344 C 38.132812 18.636719 38.171875 18.640625 38.199219 18.667969 L 41.320312 21.773438 C 41.367188 21.824219 41.382812 21.898438 41.351562 21.960938 L 40.789062 23.109375 C 40.769531 23.144531 40.769531 23.191406 40.789062 23.230469 C 41.101562 23.863281 41.363281 24.503906 41.582031 25.152344 C 41.59375 25.191406 41.625 25.21875 41.660156 25.234375 Z M 39.988281 28 C 39.988281 23.585938 36.414062 20.011719 32 20.011719 C 27.585938 20.011719 24.011719 23.585938 24.011719 28 C 24.011719 32.414062 27.585938 35.988281 32 35.988281 C 36.414062 35.988281 39.988281 32.414062 39.988281 28 Z M 39.988281 28 "/>
<path style=" stroke:none;fill-rule:nonzero;fill:rgb(0%,0%,0%);fill-opacity:1;" d="M 39.988281 28 C 39.988281 32.414062 36.414062 35.988281 32 35.988281 C 27.585938 35.988281 24.011719 32.414062 24.011719 28 C 24.011719 23.585938 27.585938 20.011719 32 20.011719 C 36.414062 20.011719 39.988281 23.585938 39.988281 28 Z M 37.984375 28 C 37.984375 24.695312 35.304688 22.015625 32 22.015625 C 28.695312 22.015625 26.015625 24.695312 26.015625 28 C 26.015625 31.304688 28.695312 33.984375 32 33.984375 C 35.304688 33.984375 37.984375 31.304688 37.984375 28 Z M 37.984375 28 "/>
<path style=" stroke:none;fill-rule:nonzero;fill:rgb(98.823529%,84.313725%,43.921569%);fill-opacity:1;" d="M 37.984375 28 C 37.984375 31.304688 35.304688 33.984375 32 33.984375 C 28.695312 33.984375 26.015625 31.304688 26.015625 28 C 26.015625 24.695312 28.695312 22.015625 32 22.015625 C 35.304688 22.015625 37.984375 24.695312 37.984375 28 Z M 35.988281 28 C 35.988281 25.796875 34.203125 24.007812 32 24.007812 C 29.796875 24.007812 28.011719 25.796875 28.011719 28 C 28.011719 30.203125 29.796875 31.988281 32 31.988281 C 34.203125 31.988281 35.988281 30.203125 35.988281 28 Z M 35.988281 28 "/>
<path style=" stroke:none;fill-rule:nonzero;fill:rgb(0%,0%,0%);fill-opacity:1;" d="M 35.988281 28 C 35.988281 30.203125 34.203125 31.988281 32 31.988281 C 29.796875 31.988281 28.011719 30.203125 28.011719 28 C 28.011719 25.796875 29.796875 24.007812 32 24.007812 C 34.203125 24.007812 35.988281 25.796875 35.988281 28 Z M 33.988281 28 C 33.988281 26.902344 33.097656 26.011719 32 26.011719 C 30.898438 26.011719 30.007812 26.902344 30.007812 28 C 30.007812 29.097656 30.898438 29.988281 32 29.988281 C 33.097656 29.988281 33.988281 29.097656 33.988281 28 Z M 33.988281 28 "/>
<path style=" stroke:none;fill-rule:nonzero;fill:rgb(100%,91.764706%,65.490196%);fill-opacity:1;" d="M 33.988281 28 C 33.988281 29.097656 33.097656 29.988281 32 29.988281 C 30.898438 29.988281 30.007812 29.097656 30.007812 28 C 30.007812 26.902344 30.898438 26.011719 32 26.011719 C 33.097656 26.011719 33.988281 26.902344 33.988281 28 Z M 33.988281 28 "/>
<path style=" stroke:none;fill-rule:nonzero;fill:rgb(100%,50.980392%,43.137255%);fill-opacity:1;" d="M 60.984375 54 C 60.984375 57.859375 57.859375 60.984375 54 60.984375 C 50.140625 60.984375 47.011719 57.859375 47.011719 54 C 47.011719 50.140625 50.140625 47.011719 54 47.011719 C 57.859375 47.011719 60.984375 50.140625 60.984375 54 Z M 52.140625 55.46875 C 52.078125 55.535156 51.972656 55.539062 51.90625 55.472656 L 50.789062 54.363281 C 50.75 54.328125 50.695312 54.328125 50.65625 54.363281 L 49.347656 55.65625 C 49.316406 55.6875 49.316406 55.738281 49.347656 55.769531 L 51.953125 58.375 C 51.980469 58.402344 52.019531 58.402344 52.046875 58.375 L 58.652344 51.765625 C 58.691406 51.734375 58.691406 51.675781 58.652344 51.640625 L 57.378906 50.363281 C 57.332031 50.316406 57.261719 50.316406 57.21875 50.363281 Z M 52.140625 55.46875 "/>
<path style=" stroke:none;fill-rule:nonzero;fill:rgb(70.588235%,86.666667%,49.803922%);fill-opacity:1;" d="M 16.070312 50.992188 C 16.640625 50.988281 17.210938 50.996094 17.78125 51.015625 C 18.167969 51.027344 18.441406 51.097656 18.609375 51.226562 C 18.863281 51.417969 18.988281 51.707031 18.988281 52.09375 C 18.996094 54.644531 19 57.199219 19 59.75 C 19 60.601562 18.582031 61.027344 17.75 61.023438 C 13.25 61.007812 8.75 61 4.25 61 C 3.398438 61 2.972656 60.582031 2.980469 59.75 C 2.992188 57.503906 3 55.261719 3 53.015625 C 3 52.28125 3.015625 51.855469 3.050781 51.738281 C 3.160156 51.347656 3.425781 51.113281 3.851562 51.03125 C 3.953125 51.011719 4.285156 51 4.839844 51 C 7.710938 51 10.601562 51 13.519531 51 C 13.585938 51 13.644531 50.964844 13.671875 50.90625 L 15.539062 47.164062 C 15.644531 46.953125 15.765625 46.921875 15.898438 47.070312 C 15.984375 47.167969 16.023438 47.28125 16.011719 47.417969 C 16.003906 47.523438 16 47.578125 16 47.582031 C 15.996094 48.699219 16 49.816406 16.007812 50.929688 C 16.007812 50.964844 16.035156 50.992188 16.070312 50.992188 Z M 17 53.035156 C 17 53.015625 16.984375 53 16.964844 53 L 5.035156 53 C 5.015625 53 5 53.015625 5 53.035156 L 5 54.964844 C 5 54.984375 5.015625 55 5.035156 55 L 16.964844 55 C 16.984375 55 17 54.984375 17 54.964844 Z M 13 57.039062 C 13 57.015625 12.984375 57 12.960938 57 L 5.039062 57 C 5.015625 57 5 57.015625 5 57.039062 L 5 58.960938 C 5 58.984375 5.015625 59 5.039062 59 L 12.960938 59 C 12.984375 59 13 58.984375 13 58.960938 Z M 17 57.050781 C 17 57.023438 16.972656 57 16.945312 57 L 15.050781 57 C 15.023438 57 15 57.027344 15 57.054688 L 15 58.949219 C 15 58.976562 15.027344 59 15.054688 59 L 16.949219 59 C 16.976562 59 17 58.972656 17 58.945312 Z M 17 57.050781 "/>
<path style=" stroke:none;fill-rule:nonzero;fill:rgb(80%,81.960784%,85.098039%);fill-opacity:1;" d="M 25.992188 49.003906 L 38.007812 49.003906 C 38.546875 49.003906 38.988281 49.441406 38.988281 49.984375 L 38.988281 50.015625 C 38.988281 50.558594 38.546875 50.996094 38.007812 50.996094 L 25.992188 50.996094 C 25.449219 50.996094 25.011719 50.558594 25.011719 50.015625 L 25.011719 49.984375 C 25.011719 49.441406 25.449219 49.003906 25.992188 49.003906 Z M 25.992188 49.003906 "/>
<path style=" stroke:none;fill-rule:nonzero;fill:rgb(0%,0%,0%);fill-opacity:1;" d="M 52.140625 55.46875 L 57.21875 50.363281 C 57.261719 50.316406 57.332031 50.316406 57.378906 50.363281 L 58.652344 51.640625 C 58.691406 51.675781 58.691406 51.734375 58.652344 51.765625 L 52.046875 58.375 C 52.019531 58.402344 51.980469 58.402344 51.953125 58.375 L 49.347656 55.769531 C 49.316406 55.738281 49.316406 55.6875 49.347656 55.65625 L 50.65625 54.363281 C 50.695312 54.328125 50.75 54.328125 50.789062 54.363281 L 51.90625 55.472656 C 51.972656 55.539062 52.078125 55.535156 52.140625 55.46875 Z M 52.140625 55.46875 "/>
<path style=" stroke:none;fill-rule:nonzero;fill:rgb(0%,0%,0%);fill-opacity:1;" d="M 5.035156 53 L 16.964844 53 C 16.984375 53 17 53.015625 17 53.035156 L 17 54.964844 C 17 54.984375 16.984375 55 16.964844 55 L 5.035156 55 C 5.015625 55 5 54.984375 5 54.964844 L 5 53.035156 C 5 53.015625 5.015625 53 5.035156 53 Z M 5.035156 53 "/>
<path style=" stroke:none;fill-rule:nonzero;fill:rgb(80%,81.960784%,85.098039%);fill-opacity:1;" d="M 27.984375 53.003906 L 36.011719 53.003906 C 36.550781 53.003906 36.988281 53.441406 36.988281 53.980469 L 36.988281 54.019531 C 36.988281 54.558594 36.550781 54.996094 36.011719 54.996094 L 27.984375 54.996094 C 27.445312 54.996094 27.011719 54.558594 27.011719 54.019531 L 27.011719 53.980469 C 27.011719 53.441406 27.445312 53.003906 27.984375 53.003906 Z M 27.984375 53.003906 "/>
<path style=" stroke:none;fill-rule:nonzero;fill:rgb(0%,0%,0%);fill-opacity:1;" d="M 5.039062 57 L 12.960938 57 C 12.980469 57 13 57.019531 13 57.039062 L 13 58.960938 C 13 58.980469 12.980469 59 12.960938 59 L 5.039062 59 C 5.019531 59 5 58.980469 5 58.960938 L 5 57.039062 C 5 57.019531 5.019531 57 5.039062 57 Z M 5.039062 57 "/>
<path style=" stroke:none;fill-rule:nonzero;fill:rgb(0%,0%,0%);fill-opacity:1;" d="M 15.050781 57 L 16.945312 57 C 16.972656 57 17 57.023438 17 57.050781 L 17 58.945312 C 17 58.972656 16.976562 59 16.949219 59 L 15.054688 59 C 15.027344 59 15 58.976562 15 58.949219 L 15 57.054688 C 15 57.027344 15.023438 57 15.050781 57 Z M 15.050781 57 "/>
<path style=" stroke:none;fill-rule:nonzero;fill:rgb(66.666667%,69.803922%,74.117647%);fill-opacity:1;" d="M 30.019531 60.230469 C 29.460938 59.738281 29.132812 59.148438 29.039062 58.460938 C 28.992188 58.113281 28.980469 57.648438 29.003906 57.070312 C 29.007812 57.035156 29.035156 57.007812 29.070312 57.007812 L 34.855469 57 C 34.925781 57 34.984375 57.054688 34.988281 57.128906 C 35.019531 57.582031 35.007812 58.007812 34.949219 58.410156 C 34.878906 58.859375 34.738281 59.257812 34.523438 59.597656 C 34.25 60.03125 33.890625 60.367188 33.453125 60.609375 C 32.90625 60.910156 32.332031 61.03125 31.726562 60.980469 C 31.097656 60.929688 30.53125 60.679688 30.019531 60.230469 Z M 30.019531 60.230469 "/>
</g>
</svg>
