<?xml version="1.0" encoding="UTF-8"?>
<svg xmlns="http://www.w3.org/2000/svg" xmlns:xlink="http://www.w3.org/1999/xlink" width="48px" height="48px" viewBox="0 0 48 48" version="1.1">
<g id="surface1">
<path style="fill:none;stroke-width:2;stroke-linecap:butt;stroke-linejoin:miter;stroke:rgb(50.196078%,70.588235%,67.45098%);stroke-opacity:1;stroke-miterlimit:4;" d="M 649.6875 416.777344 C 654.345703 420.996094 660.058594 423.017578 666.738281 423.017578 C 718.505859 423.017578 770.273438 423.017578 822.041016 423.105469 C 835.048828 423.105469 843.398438 417.65625 847.089844 406.757812 C 848.056641 404.033203 848.496094 400.341797 848.583984 395.507812 C 848.847656 371.777344 848.847656 348.046875 848.583984 324.228516 C 848.583984 322.822266 848.583984 319.306641 848.671875 313.769531 C 848.671875 310.253906 848.583984 306.738281 848.496094 303.222656 C 847.880859 291.445312 842.080078 283.886719 830.917969 280.371094 C 829.072266 279.84375 827.226562 279.492188 825.292969 279.492188 C 800.859375 279.580078 776.513672 279.492188 752.255859 279.404297 C 750.9375 279.404297 749.794922 278.876953 749.091797 277.734375 C 746.894531 274.394531 744.609375 271.142578 742.324219 267.978516 C 739.248047 263.671875 736.611328 260.859375 734.326172 259.365234 C 730.546875 256.904297 726.240234 255.761719 721.494141 255.849609 C 719.208984 255.9375 718.066406 256.025391 718.066406 256.025391 C 699.521484 256.025391 680.976562 256.025391 662.519531 256.025391 C 660.410156 256.025391 658.212891 256.552734 656.103516 257.519531 C 649.951172 260.419922 645.732422 264.726562 643.535156 270.527344 C 642.65625 272.724609 642.216797 275.800781 642.216797 279.667969 C 642.216797 318.691406 642.216797 357.714844 642.216797 396.826172 C 642.216797 401.572266 642.65625 405.175781 643.447266 407.548828 C 644.765625 411.152344 646.787109 414.228516 649.6875 416.777344 " transform="matrix(0.0444444,0,0,0.0444444,0,0)"/>
<path style="fill:none;stroke-width:2;stroke-linecap:butt;stroke-linejoin:miter;stroke:rgb(50.196078%,70.588235%,67.45098%);stroke-opacity:1;stroke-miterlimit:4;" d="M 590.097656 632.197266 C 583.857422 625.957031 577.529297 620.859375 571.025391 616.992188 C 560.742188 610.751953 549.931641 605.566406 538.681641 601.523438 C 530.244141 598.447266 521.630859 595.722656 513.017578 593.261719 C 481.728516 584.648438 450.615234 575.947266 419.414062 567.246094 C 410.537109 564.697266 402.011719 561.269531 393.837891 556.962891 C 387.949219 553.798828 382.675781 549.84375 378.017578 545.009766 C 370.898438 537.802734 367.294922 529.013672 367.207031 518.818359 C 367.119141 509.941406 369.228516 502.207031 373.535156 495.527344 C 377.841797 489.023438 383.291016 483.662109 389.970703 479.443359 C 400.693359 472.587891 412.382812 468.457031 425.039062 466.962891 C 439.013672 465.380859 452.197266 465.644531 464.501953 467.841797 C 489.550781 472.412109 507.480469 485.507812 518.291016 507.304688 C 520.664062 511.962891 522.333984 516.796875 523.388672 521.71875 C 524.443359 526.640625 525.058594 531.738281 525.322266 537.099609 C 525.322266 537.363281 525.498047 537.539062 525.849609 537.539062 L 621.210938 537.714844 C 621.298828 537.714844 621.474609 537.626953 621.474609 537.539062 C 621.5625 537.451172 621.650391 537.275391 621.5625 537.1875 C 621.386719 536.132812 621.298828 535.341797 621.210938 534.726562 C 618.837891 486.914062 600.029297 447.978516 564.873047 418.007812 C 559.511719 413.4375 554.238281 409.482422 548.876953 406.054688 C 539.208984 399.814453 528.925781 394.716797 518.027344 390.761719 C 504.580078 385.839844 490.693359 382.5 476.542969 380.742188 C 450.175781 377.402344 423.984375 378.105469 397.96875 382.851562 C 391.992188 383.994141 386.015625 385.400391 380.039062 387.158203 C 373.535156 389.003906 367.734375 391.025391 362.548828 393.046875 C 339.082031 402.451172 318.867188 417.128906 302.167969 436.904297 C 289.160156 452.285156 280.283203 469.423828 275.537109 488.232422 C 269.824219 510.820312 269.296875 533.935547 273.955078 557.578125 C 279.140625 583.857422 291.269531 605.742188 310.429688 623.056641 C 314.560547 626.835938 318.779297 630.087891 323.085938 632.724609 C 337.675781 641.689453 353.320312 648.632812 370.195312 653.378906 C 403.59375 662.871094 436.992188 672.275391 470.478516 681.591797 C 474.521484 682.734375 478.476562 683.964844 482.431641 685.283203 C 491.835938 688.447266 500.537109 693.017578 508.535156 698.994141 C 520.927734 708.222656 526.464844 720.791016 525.322266 736.523438 C 524.53125 746.542969 521.103516 755.068359 515.039062 762.099609 C 509.677734 768.339844 503.349609 773.173828 495.878906 776.689453 C 490.341797 779.326172 484.628906 781.259766 478.652344 782.666016 C 456.064453 787.851562 433.476562 788.203125 410.712891 783.544922 C 393.837891 780.117188 379.6875 772.207031 368.349609 759.726562 C 356.660156 746.894531 350.419922 731.689453 349.453125 714.023438 C 349.453125 713.759766 349.189453 713.583984 348.925781 713.583984 L 253.037109 713.583984 C 252.949219 713.583984 252.773438 713.583984 252.685547 713.671875 C 252.597656 713.847656 252.597656 713.935547 252.597656 714.023438 C 253.476562 730.986328 256.464844 747.509766 261.474609 763.59375 C 263.496094 770.097656 265.869141 776.337891 268.681641 782.226562 C 275.888672 797.871094 285.029297 811.669922 295.927734 823.535156 C 307.705078 836.279297 321.767578 846.474609 338.203125 854.121094 C 343.740234 856.757812 349.980469 859.21875 356.748047 861.679688 C 372.041016 867.041016 387.773438 870.644531 404.033203 872.226562 C 430.400391 874.951172 456.679688 874.335938 482.783203 870.556641 C 489.990234 869.501953 496.582031 868.183594 502.470703 866.777344 C 519.433594 862.470703 535.693359 856.054688 551.074219 847.529297 C 561.621094 841.728516 571.552734 834.697266 581.044922 826.347656 C 595.458984 813.691406 606.445312 798.837891 614.003906 781.787109 C 616.728516 775.810547 618.837891 769.482422 620.507812 762.890625 C 623.583984 750.234375 624.990234 737.402344 624.638672 724.394531 C 624.462891 719.208984 624.199219 714.287109 623.759766 709.628906 C 623.232422 704.970703 622.529297 700.136719 621.5625 694.951172 C 618.046875 676.40625 611.103516 659.619141 600.644531 644.589844 C 598.007812 640.810547 594.492188 636.591797 590.097656 632.197266 " transform="matrix(0.0444444,0,0,0.0444444,0,0)"/>
<path style=" stroke:none;fill-rule:nonzero;fill:rgb(100%,95.686275%,94.117647%);fill-opacity:1;" d="M 37.859375 10.496094 C 39.21875 11.890625 40.347656 13.464844 41.242188 15.222656 C 42.214844 17.128906 42.855469 19.144531 43.15625 21.265625 C 43.175781 21.40625 43.183594 21.644531 43.183594 21.988281 C 43.179688 23.421875 43.179688 24.855469 43.179688 26.289062 C 43.179688 26.371094 43.171875 26.488281 43.160156 26.652344 C 43.148438 26.769531 43.136719 26.890625 43.117188 27.011719 C 42.6875 29.691406 41.746094 32.167969 40.289062 34.441406 C 40.132812 34.691406 39.964844 34.933594 39.792969 35.179688 C 37.878906 37.859375 35.453125 39.925781 32.523438 41.378906 C 30.753906 42.253906 28.851562 42.84375 26.820312 43.144531 C 26.738281 43.15625 26.605469 43.164062 26.425781 43.167969 C 24.878906 43.183594 23.335938 43.183594 21.789062 43.171875 C 21.496094 43.167969 21.230469 43.148438 20.992188 43.113281 C 20.582031 43.050781 20.152344 42.96875 19.699219 42.867188 C 17.628906 42.394531 15.695312 41.609375 13.902344 40.507812 C 12.335938 39.546875 10.929688 38.378906 9.675781 37 C 8.132812 35.304688 6.929688 33.394531 6.066406 31.265625 C 5.238281 29.234375 4.777344 27.117188 4.679688 24.921875 C 4.636719 23.953125 4.664062 22.984375 4.753906 22.019531 C 4.78125 21.726562 4.816406 21.429688 4.863281 21.136719 C 5.421875 17.515625 6.875 14.308594 9.21875 11.511719 C 9.410156 11.285156 9.605469 11.0625 9.808594 10.847656 C 11.882812 8.609375 14.347656 6.957031 17.199219 5.878906 C 19.105469 5.160156 21.09375 4.753906 23.167969 4.667969 C 23.410156 4.65625 23.90625 4.65625 24.65625 4.667969 C 24.996094 4.675781 25.292969 4.6875 25.542969 4.707031 C 26.894531 4.816406 28.1875 5.050781 29.425781 5.417969 C 32.683594 6.386719 35.496094 8.078125 37.859375 10.496094 Z M 28.875 18.523438 C 29.082031 18.710938 29.335938 18.800781 29.632812 18.800781 C 31.933594 18.800781 34.234375 18.800781 36.535156 18.804688 C 37.113281 18.804688 37.484375 18.5625 37.648438 18.078125 C 37.691406 17.957031 37.710938 17.792969 37.714844 17.578125 C 37.726562 16.523438 37.726562 15.46875 37.714844 14.410156 C 37.714844 14.347656 37.714844 14.191406 37.71875 13.945312 C 37.71875 13.789062 37.714844 13.632812 37.710938 13.476562 C 37.683594 12.953125 37.425781 12.617188 36.929688 12.460938 C 36.847656 12.4375 36.765625 12.421875 36.679688 12.421875 C 35.59375 12.425781 34.511719 12.421875 33.433594 12.417969 C 33.375 12.417969 33.324219 12.394531 33.292969 12.34375 C 33.195312 12.195312 33.09375 12.050781 32.992188 11.910156 C 32.855469 11.71875 32.738281 11.59375 32.636719 11.527344 C 32.46875 11.417969 32.277344 11.367188 32.066406 11.371094 C 31.964844 11.375 31.914062 11.378906 31.914062 11.378906 C 31.089844 11.378906 30.265625 11.378906 29.445312 11.378906 C 29.351562 11.378906 29.253906 11.402344 29.160156 11.445312 C 28.886719 11.574219 28.699219 11.765625 28.601562 12.023438 C 28.5625 12.121094 28.542969 12.257812 28.542969 12.429688 C 28.542969 14.164062 28.542969 15.898438 28.542969 17.636719 C 28.542969 17.847656 28.5625 18.007812 28.597656 18.113281 C 28.65625 18.273438 28.746094 18.410156 28.875 18.523438 Z M 26.226562 28.097656 C 25.949219 27.820312 25.667969 27.59375 25.378906 27.421875 C 24.921875 27.144531 24.441406 26.914062 23.941406 26.734375 C 23.566406 26.597656 23.183594 26.476562 22.800781 26.367188 C 21.410156 25.984375 20.027344 25.597656 18.640625 25.210938 C 18.246094 25.097656 17.867188 24.945312 17.503906 24.753906 C 17.242188 24.613281 17.007812 24.4375 16.800781 24.222656 C 16.484375 23.902344 16.324219 23.511719 16.320312 23.058594 C 16.316406 22.664062 16.410156 22.320312 16.601562 22.023438 C 16.792969 21.734375 17.035156 21.496094 17.332031 21.308594 C 17.808594 21.003906 18.328125 20.820312 18.890625 20.753906 C 19.511719 20.683594 20.097656 20.695312 20.644531 20.792969 C 21.757812 20.996094 22.554688 21.578125 23.035156 22.546875 C 23.140625 22.753906 23.214844 22.96875 23.261719 23.1875 C 23.308594 23.40625 23.335938 23.632812 23.347656 23.871094 C 23.347656 23.882812 23.355469 23.890625 23.371094 23.890625 L 27.609375 23.898438 C 27.613281 23.898438 27.621094 23.894531 27.621094 23.890625 C 27.625 23.886719 27.628906 23.878906 27.625 23.875 C 27.617188 23.828125 27.613281 23.792969 27.609375 23.765625 C 27.503906 21.640625 26.667969 19.910156 25.105469 18.578125 C 24.867188 18.375 24.632812 18.199219 24.394531 18.046875 C 23.964844 17.769531 23.507812 17.542969 23.023438 17.367188 C 22.425781 17.148438 21.808594 17 21.179688 16.921875 C 20.007812 16.773438 18.84375 16.804688 17.6875 17.015625 C 17.421875 17.066406 17.15625 17.128906 16.890625 17.207031 C 16.601562 17.289062 16.34375 17.378906 16.113281 17.46875 C 15.070312 17.886719 14.171875 18.539062 13.429688 19.417969 C 12.851562 20.101562 12.457031 20.863281 12.246094 21.699219 C 11.992188 22.703125 11.96875 23.730469 12.175781 24.78125 C 12.40625 25.949219 12.945312 26.921875 13.796875 27.691406 C 13.980469 27.859375 14.167969 28.003906 14.359375 28.121094 C 15.007812 28.519531 15.703125 28.828125 16.453125 29.039062 C 17.9375 29.460938 19.421875 29.878906 20.910156 30.292969 C 21.089844 30.34375 21.265625 30.398438 21.441406 30.457031 C 21.859375 30.597656 22.246094 30.800781 22.601562 31.066406 C 23.152344 31.476562 23.398438 32.035156 23.347656 32.734375 C 23.3125 33.179688 23.160156 33.558594 22.890625 33.871094 C 22.652344 34.148438 22.371094 34.363281 22.039062 34.519531 C 21.792969 34.636719 21.539062 34.722656 21.273438 34.785156 C 20.269531 35.015625 19.265625 35.03125 18.253906 34.824219 C 17.503906 34.671875 16.875 34.320312 16.371094 33.765625 C 15.851562 33.195312 15.574219 32.519531 15.53125 31.734375 C 15.53125 31.722656 15.519531 31.714844 15.507812 31.714844 L 11.246094 31.714844 C 11.242188 31.714844 11.234375 31.714844 11.230469 31.71875 C 11.226562 31.726562 11.226562 31.730469 11.226562 31.734375 C 11.265625 32.488281 11.398438 33.222656 11.621094 33.9375 C 11.710938 34.226562 11.816406 34.503906 11.941406 34.765625 C 12.261719 35.460938 12.667969 36.074219 13.152344 36.601562 C 13.675781 37.167969 14.300781 37.621094 15.03125 37.960938 C 15.277344 38.078125 15.554688 38.1875 15.855469 38.296875 C 16.535156 38.535156 17.234375 38.695312 17.957031 38.765625 C 19.128906 38.886719 20.296875 38.859375 21.457031 38.691406 C 21.777344 38.644531 22.070312 38.585938 22.332031 38.523438 C 23.085938 38.332031 23.808594 38.046875 24.492188 37.667969 C 24.960938 37.410156 25.402344 37.097656 25.824219 36.726562 C 26.464844 36.164062 26.953125 35.503906 27.289062 34.746094 C 27.410156 34.480469 27.503906 34.199219 27.578125 33.90625 C 27.714844 33.34375 27.777344 32.773438 27.761719 32.195312 C 27.753906 31.964844 27.742188 31.746094 27.722656 31.539062 C 27.699219 31.332031 27.667969 31.117188 27.625 30.886719 C 27.46875 30.0625 27.160156 29.316406 26.695312 28.648438 C 26.578125 28.480469 26.421875 28.292969 26.226562 28.097656 Z M 26.226562 28.097656 "/>
<path style=" stroke:none;fill-rule:nonzero;fill:rgb(0%,45.098039%,40.392157%);fill-opacity:1;" d="M 28.875 18.523438 C 28.746094 18.410156 28.65625 18.273438 28.597656 18.113281 C 28.5625 18.007812 28.542969 17.847656 28.542969 17.636719 C 28.542969 15.898438 28.542969 14.164062 28.542969 12.429688 C 28.542969 12.257812 28.5625 12.121094 28.601562 12.023438 C 28.699219 11.765625 28.886719 11.574219 29.160156 11.445312 C 29.253906 11.402344 29.351562 11.378906 29.445312 11.378906 C 30.265625 11.378906 31.089844 11.378906 31.914062 11.378906 C 31.914062 11.378906 31.964844 11.375 32.066406 11.371094 C 32.277344 11.367188 32.46875 11.417969 32.636719 11.527344 C 32.738281 11.59375 32.855469 11.71875 32.992188 11.910156 C 33.09375 12.050781 33.195312 12.195312 33.292969 12.34375 C 33.324219 12.394531 33.375 12.417969 33.433594 12.417969 C 34.511719 12.421875 35.59375 12.425781 36.679688 12.421875 C 36.765625 12.421875 36.847656 12.4375 36.929688 12.460938 C 37.425781 12.617188 37.683594 12.953125 37.710938 13.476562 C 37.714844 13.632812 37.71875 13.789062 37.71875 13.945312 C 37.714844 14.191406 37.714844 14.347656 37.714844 14.410156 C 37.726562 15.46875 37.726562 16.523438 37.714844 17.578125 C 37.710938 17.792969 37.691406 17.957031 37.648438 18.078125 C 37.484375 18.5625 37.113281 18.804688 36.535156 18.804688 C 34.234375 18.800781 31.933594 18.800781 29.632812 18.800781 C 29.335938 18.800781 29.082031 18.710938 28.875 18.523438 Z M 28.875 18.523438 "/>
<path style=" stroke:none;fill-rule:nonzero;fill:rgb(0%,45.098039%,40.392157%);fill-opacity:1;" d="M 26.226562 28.097656 C 26.421875 28.292969 26.578125 28.480469 26.695312 28.648438 C 27.160156 29.316406 27.46875 30.0625 27.625 30.886719 C 27.667969 31.117188 27.699219 31.332031 27.722656 31.539062 C 27.742188 31.746094 27.753906 31.964844 27.761719 32.195312 C 27.777344 32.773438 27.714844 33.34375 27.578125 33.90625 C 27.503906 34.199219 27.410156 34.480469 27.289062 34.746094 C 26.953125 35.503906 26.464844 36.164062 25.824219 36.726562 C 25.402344 37.097656 24.960938 37.410156 24.492188 37.667969 C 23.808594 38.046875 23.085938 38.332031 22.332031 38.523438 C 22.070312 38.585938 21.777344 38.644531 21.457031 38.691406 C 20.296875 38.859375 19.128906 38.886719 17.957031 38.765625 C 17.234375 38.695312 16.535156 38.535156 15.855469 38.296875 C 15.554688 38.1875 15.277344 38.078125 15.03125 37.960938 C 14.300781 37.621094 13.675781 37.167969 13.152344 36.601562 C 12.667969 36.074219 12.261719 35.460938 11.941406 34.765625 C 11.816406 34.503906 11.710938 34.226562 11.621094 33.9375 C 11.398438 33.222656 11.265625 32.488281 11.226562 31.734375 C 11.226562 31.730469 11.226562 31.726562 11.230469 31.71875 C 11.234375 31.714844 11.242188 31.714844 11.246094 31.714844 L 15.507812 31.714844 C 15.519531 31.714844 15.53125 31.722656 15.53125 31.734375 C 15.574219 32.519531 15.851562 33.195312 16.371094 33.765625 C 16.875 34.320312 17.503906 34.671875 18.253906 34.824219 C 19.265625 35.03125 20.269531 35.015625 21.273438 34.785156 C 21.539062 34.722656 21.792969 34.636719 22.039062 34.519531 C 22.371094 34.363281 22.652344 34.148438 22.890625 33.871094 C 23.160156 33.558594 23.3125 33.179688 23.347656 32.734375 C 23.398438 32.035156 23.152344 31.476562 22.601562 31.066406 C 22.246094 30.800781 21.859375 30.597656 21.441406 30.457031 C 21.265625 30.398438 21.089844 30.34375 20.910156 30.292969 C 19.421875 29.878906 17.9375 29.460938 16.453125 29.039062 C 15.703125 28.828125 15.007812 28.519531 14.359375 28.121094 C 14.167969 28.003906 13.980469 27.859375 13.796875 27.691406 C 12.945312 26.921875 12.40625 25.949219 12.175781 24.78125 C 11.96875 23.730469 11.992188 22.703125 12.246094 21.699219 C 12.457031 20.863281 12.851562 20.101562 13.429688 19.417969 C 14.171875 18.539062 15.070312 17.886719 16.113281 17.46875 C 16.34375 17.378906 16.601562 17.289062 16.890625 17.207031 C 17.15625 17.128906 17.421875 17.066406 17.6875 17.015625 C 18.84375 16.804688 20.007812 16.773438 21.179688 16.921875 C 21.808594 17 22.425781 17.148438 23.023438 17.367188 C 23.507812 17.542969 23.964844 17.769531 24.394531 18.046875 C 24.632812 18.199219 24.867188 18.375 25.105469 18.578125 C 26.667969 19.910156 27.503906 21.640625 27.609375 23.765625 C 27.613281 23.792969 27.617188 23.828125 27.625 23.875 C 27.628906 23.878906 27.625 23.886719 27.621094 23.890625 C 27.621094 23.894531 27.613281 23.898438 27.609375 23.898438 L 23.371094 23.890625 C 23.355469 23.890625 23.347656 23.882812 23.347656 23.871094 C 23.335938 23.632812 23.308594 23.40625 23.261719 23.1875 C 23.214844 22.96875 23.140625 22.753906 23.035156 22.546875 C 22.554688 21.578125 21.757812 20.996094 20.644531 20.792969 C 20.097656 20.695312 19.511719 20.683594 18.890625 20.753906 C 18.328125 20.820312 17.808594 21.003906 17.332031 21.308594 C 17.035156 21.496094 16.792969 21.734375 16.601562 22.023438 C 16.410156 22.320312 16.316406 22.664062 16.320312 23.058594 C 16.324219 23.511719 16.484375 23.902344 16.800781 24.222656 C 17.007812 24.4375 17.242188 24.613281 17.503906 24.753906 C 17.867188 24.945312 18.246094 25.097656 18.640625 25.210938 C 20.027344 25.597656 21.410156 25.984375 22.800781 26.367188 C 23.183594 26.476562 23.566406 26.597656 23.941406 26.734375 C 24.441406 26.914062 24.921875 27.144531 25.378906 27.421875 C 25.667969 27.59375 25.949219 27.820312 26.226562 28.097656 Z M 26.226562 28.097656 "/>
</g>
</svg>
