<?xml version="1.0" encoding="UTF-8"?>
<svg xmlns="http://www.w3.org/2000/svg" xmlns:xlink="http://www.w3.org/1999/xlink" width="256px" height="256px" viewBox="0 0 256 256" version="1.1">
<g id="surface1">
<path style="fill:none;stroke-width:2;stroke-linecap:butt;stroke-linejoin:miter;stroke:rgb(50.196078%,70.588235%,67.45098%);stroke-opacity:1;stroke-miterlimit:4;" d="M 650.692749 417.557373 C 654.647827 420.622559 659.080811 422.435303 664.008179 422.995605 C 664.024658 422.995605 668.671875 422.995605 677.999268 422.995605 C 724.257202 422.995605 770.515137 422.995605 816.773071 422.995605 C 816.871948 422.995605 818.519897 423.028564 821.716919 423.078003 C 825.012817 423.110962 827.451782 422.946167 829.066772 422.567139 C 838.163452 420.375366 844.112549 415.365601 846.914062 407.554321 C 847.952271 404.637451 848.512573 399.874878 848.578491 393.266602 C 848.891602 365.004272 848.891602 336.741943 848.578491 308.496094 C 848.512573 302.13501 847.96875 297.537231 846.930542 294.702759 C 844.343262 287.616577 839.020386 282.837524 830.961914 280.365601 C 829.116211 279.788818 827.20459 279.508667 825.24353 279.508667 C 801.743774 279.508667 778.244019 279.492188 754.727783 279.492188 C 754.711304 279.492188 754.216919 279.525146 753.277588 279.558105 C 751.349487 279.640503 749.94873 279.030762 749.058838 277.695923 C 745.120239 271.713867 741.8573 267.132568 739.302979 263.935547 C 735.941162 259.700317 731.755371 257.145996 726.762085 256.239624 C 725.905151 256.091309 721.241455 256.008911 712.721558 255.992432 C 696.225586 255.992432 679.729614 255.942993 663.250122 255.877075 C 661.04187 255.860596 658.932495 256.289062 656.905518 257.129517 C 650.429077 259.832153 645.979614 264.265137 643.573608 270.411987 C 642.733154 272.554321 642.304688 275.388794 642.304688 278.915405 C 642.23877 318.186035 642.22229 357.456665 642.255249 396.743774 C 642.255249 401.819458 642.716675 405.609741 643.656006 408.065186 C 645.089722 411.888428 647.42981 415.05249 650.692749 417.557373 " transform="matrix(0.237037,0,0,0.237037,0,0)"/>
<path style="fill:none;stroke-width:2;stroke-linecap:butt;stroke-linejoin:miter;stroke:rgb(50.196078%,70.588235%,67.45098%);stroke-opacity:1;stroke-miterlimit:4;" d="M 307.886353 834.735718 C 319.421997 844.343262 332.605591 852.121582 347.437134 858.054199 C 367.212524 865.980835 386.987915 870.842285 406.746826 872.655029 C 433.87207 875.143433 460.865479 874.154663 487.74353 869.688721 C 512.644043 865.552368 535.863647 856.950073 557.418823 843.898315 C 573.502808 834.158936 587.081909 822.260742 598.189087 808.187256 C 609.642334 793.668823 617.404175 777.304688 621.45813 759.094849 C 622.792969 753.063354 623.71582 746.471558 624.243164 739.302979 C 625.545044 721.340332 624.127808 704.069824 620.007935 687.507935 C 616.201172 672.247925 610.219116 658.635864 602.061768 646.688232 C 593.953857 634.822998 584.46167 625.396729 573.552246 618.442383 C 559.758911 609.625854 544.432983 602.62207 527.623901 597.463989 C 527.178955 597.332153 520.768433 595.519409 508.375854 592.058716 C 483.739014 585.170288 459.102173 578.248901 434.481812 571.327515 C 434.415894 571.311035 431.251831 570.470581 424.989624 568.822632 C 414.310913 565.988159 404.060669 562.098999 394.222412 557.138672 C 390.975952 555.507202 388.009644 553.62854 385.323486 551.552124 C 382.241821 549.146118 379.605103 546.80603 377.446289 544.564819 C 371.332397 538.236694 368.00354 530.474854 367.426758 521.262817 C 366.652222 509.282227 370.162354 498.850708 377.957153 489.935303 C 382.736206 484.431152 388.372192 479.981689 394.815674 476.586914 C 405.477905 470.967407 416.716919 467.572632 428.516235 466.435547 C 434.613647 465.842285 441.287842 465.67749 448.505859 465.941162 C 457.717896 466.287231 466.468506 467.720947 474.75769 470.24231 C 496.972046 477.04834 512.41333 491.434937 521.065063 513.435059 C 523.602905 519.87854 525.020142 527.805176 525.300293 537.182007 C 525.316772 537.462158 525.531006 537.676392 525.811157 537.676392 L 621.194458 537.676392 C 621.474609 537.676392 621.705322 537.445679 621.655884 537.182007 C 621.639404 536.967773 621.573486 536.737061 621.507568 536.522827 C 621.326294 536.061401 621.243896 535.698853 621.227417 535.418701 C 620.15625 506.513672 612.279053 479.899292 597.595825 455.608521 C 594.398804 450.318604 590.690918 445.144043 586.472168 440.084839 C 582.368774 435.19043 578.067627 430.477295 573.552246 425.945435 C 559.709473 412.102661 543.740845 401.407471 525.679321 393.826904 C 510.534668 387.46582 494.813232 383.181152 478.498535 380.9729 C 450.780029 377.232056 423.209839 378.05603 395.787964 383.444824 C 383.049316 385.949707 371.546631 389.328003 361.312866 393.563232 C 337.005615 403.632202 316.455688 419.254761 299.663086 440.397949 C 282.919922 461.47522 273.493652 485.502319 271.367798 512.495728 C 270.791016 519.796143 270.758057 527.969971 271.252441 537.000732 C 272.241211 555.128174 276.427002 572.102051 283.809814 587.938843 C 290.484009 602.259521 300.058594 614.602661 312.50061 624.984741 C 317.164307 628.873901 322.668457 632.614746 329.013062 636.207275 C 341.323242 643.161621 353.995972 648.566895 367.064209 652.439575 C 385.323486 657.844849 414.40979 665.985718 454.32312 676.895142 C 462.744141 679.202271 471.115723 681.641235 479.454346 684.244995 C 488.930054 687.194824 497.779541 691.430054 506.002808 696.967163 C 518.098755 705.091553 524.558716 715.951538 525.366211 729.51416 C 525.761719 736.254272 524.772949 742.796631 522.416382 749.157715 C 518.444824 759.836426 511.177368 768.175049 500.614014 774.157104 C 494.137573 777.815552 487.282104 780.518188 480.047607 782.281494 C 455.888672 788.148193 431.713257 788.296509 407.504883 782.74292 C 390.992432 778.969116 377.330933 770.614014 366.536865 757.710571 C 362.103882 752.420654 358.560791 746.801147 355.940552 740.835571 C 352.364502 732.744141 350.189209 723.960571 349.398193 714.484863 C 349.365234 714.072876 349.002686 713.743286 348.607178 713.743286 L 252.993164 713.743286 C 252.729492 713.743286 252.515259 713.973999 252.531738 714.237671 C 253.652344 733.897705 257.393188 752.56897 263.754272 770.251465 C 270.461426 788.889771 280.415039 805.715332 293.615112 820.744629 C 298.212891 825.968628 302.958984 830.632324 307.886353 834.735718 " transform="matrix(0.237037,0,0,0.237037,0,0)"/>
<path style=" stroke:none;fill-rule:nonzero;fill:rgb(0%,45.098039%,40.392157%);fill-opacity:1;" d="M 203.539062 57.710938 C 217.664062 72.976562 226.460938 90.972656 229.925781 111.703125 C 229.984375 112.042969 230.050781 112.582031 230.132812 113.324219 C 230.191406 113.84375 230.222656 114.386719 230.230469 114.949219 C 230.289062 122.199219 230.308594 129.449219 230.285156 136.699219 C 230.285156 136.710938 230.289062 137.347656 230.304688 138.617188 C 230.324219 140.652344 230.171875 142.679688 229.839844 144.695312 C 227.9375 156.289062 224.164062 167.230469 218.515625 177.515625 C 211.804688 189.75 202.984375 200.207031 192.058594 208.890625 C 177.769531 220.246094 161.453125 227.316406 143.109375 230.105469 C 142.796875 230.152344 142.152344 230.195312 141.175781 230.242188 C 140.597656 230.269531 139.949219 230.28125 139.238281 230.28125 C 131.917969 230.28125 124.59375 230.28125 117.273438 230.28125 C 115.042969 230.28125 113.089844 230.144531 111.40625 229.867188 C 102.863281 228.460938 94.628906 226.042969 86.710938 222.609375 C 85.277344 221.988281 83.847656 221.324219 82.414062 220.609375 C 67.703125 213.28125 55.464844 203.167969 45.703125 190.265625 C 33.136719 173.660156 26.21875 154.761719 24.949219 133.570312 C 24.867188 132.226562 24.847656 129.164062 24.890625 124.386719 C 24.910156 121.789062 25.179688 118.550781 25.695312 114.671875 C 28.117188 96.476562 34.820312 80.121094 45.808594 65.601562 C 53.621094 55.273438 63.109375 46.710938 74.269531 39.914062 C 89.328125 30.742188 105.695312 25.734375 123.378906 24.890625 C 125.277344 24.796875 128.378906 24.8125 132.679688 24.933594 C 134.457031 24.984375 136.035156 25.074219 137.414062 25.203125 C 144.746094 25.878906 151.800781 27.277344 158.578125 29.394531 C 174.453125 34.347656 188.335938 42.652344 200.238281 54.308594 C 201.359375 55.410156 202.460938 56.542969 203.539062 57.710938 Z M 154.238281 98.976562 C 155.175781 99.703125 156.226562 100.132812 157.394531 100.265625 C 157.398438 100.265625 158.5 100.265625 160.710938 100.265625 C 171.675781 100.265625 182.640625 100.265625 193.605469 100.265625 C 193.628906 100.265625 194.019531 100.273438 194.777344 100.285156 C 195.558594 100.292969 196.136719 100.253906 196.519531 100.164062 C 198.675781 99.644531 200.085938 98.457031 200.75 96.605469 C 200.996094 95.914062 201.128906 94.785156 201.144531 93.21875 C 201.21875 86.519531 201.21875 79.820312 201.144531 73.125 C 201.128906 71.617188 201 70.527344 200.753906 69.855469 C 200.140625 68.175781 198.878906 67.042969 196.96875 66.457031 C 196.53125 66.320312 196.078125 66.253906 195.613281 66.253906 C 190.042969 66.253906 184.472656 66.25 178.898438 66.25 C 178.894531 66.25 178.777344 66.257812 178.554688 66.265625 C 178.097656 66.285156 177.765625 66.140625 177.554688 65.824219 C 176.621094 64.40625 175.847656 63.320312 175.242188 62.5625 C 174.445312 61.558594 173.453125 60.953125 172.269531 60.738281 C 172.066406 60.703125 170.960938 60.683594 168.941406 60.679688 C 165.03125 60.679688 161.121094 60.667969 157.214844 60.652344 C 156.691406 60.648438 156.191406 60.75 155.710938 60.949219 C 154.175781 61.589844 153.121094 62.640625 152.550781 64.097656 C 152.351562 64.605469 152.25 65.277344 152.25 66.113281 C 152.234375 75.421875 152.230469 84.730469 152.238281 94.042969 C 152.238281 95.246094 152.347656 96.144531 152.570312 96.726562 C 152.910156 97.632812 153.464844 98.382812 154.238281 98.976562 Z M 72.980469 197.863281 C 75.714844 200.140625 78.839844 201.984375 82.355469 203.390625 C 87.042969 205.269531 91.730469 206.421875 96.414062 206.851562 C 102.84375 207.441406 109.242188 207.207031 115.613281 206.148438 C 121.515625 205.167969 127.019531 203.128906 132.128906 200.035156 C 135.941406 197.726562 139.160156 194.90625 141.792969 191.570312 C 144.507812 188.128906 146.347656 184.25 147.308594 179.933594 C 147.625 178.503906 147.84375 176.941406 147.96875 175.242188 C 148.277344 170.984375 147.941406 166.890625 146.964844 162.964844 C 146.0625 159.347656 144.644531 156.121094 142.710938 153.289062 C 140.789062 150.476562 138.539062 148.242188 135.953125 146.59375 C 132.683594 144.503906 129.050781 142.84375 125.066406 141.621094 C 124.960938 141.589844 123.441406 141.160156 120.503906 140.339844 C 114.664062 138.707031 108.824219 137.066406 102.988281 135.425781 C 102.972656 135.421875 102.222656 135.222656 100.738281 134.832031 C 98.207031 134.160156 95.777344 133.238281 93.445312 132.0625 C 92.675781 131.675781 91.972656 131.230469 91.335938 130.738281 C 90.605469 130.167969 89.980469 129.613281 89.46875 129.082031 C 88.019531 127.582031 87.230469 125.742188 87.09375 123.558594 C 86.910156 120.71875 87.742188 118.246094 89.589844 116.132812 C 90.722656 114.828125 92.058594 113.773438 93.585938 112.96875 C 96.113281 111.636719 98.777344 110.832031 101.574219 110.5625 C 103.019531 110.421875 104.601562 110.382812 106.3125 110.445312 C 108.496094 110.527344 110.570312 110.867188 112.535156 111.464844 C 117.800781 113.078125 121.460938 116.488281 123.511719 121.703125 C 124.113281 123.230469 124.449219 125.109375 124.515625 127.332031 C 124.519531 127.398438 124.570312 127.449219 124.636719 127.449219 L 147.246094 127.449219 C 147.3125 127.449219 147.367188 127.394531 147.355469 127.332031 C 147.351562 127.28125 147.335938 127.226562 147.320312 127.175781 C 147.277344 127.066406 147.257812 126.980469 147.253906 126.914062 C 147 120.0625 145.132812 113.753906 141.652344 107.996094 C 140.894531 106.742188 140.015625 105.515625 139.015625 104.316406 C 138.042969 103.15625 137.023438 102.039062 135.953125 100.964844 C 132.671875 97.683594 128.886719 95.148438 124.605469 93.351562 C 121.015625 91.84375 117.289062 90.828125 113.421875 90.304688 C 106.851562 89.417969 100.316406 89.613281 93.816406 90.890625 C 90.796875 91.484375 88.070312 92.285156 85.644531 93.289062 C 79.882812 95.675781 75.011719 99.378906 71.03125 104.390625 C 67.0625 109.386719 64.828125 115.082031 64.324219 121.480469 C 64.1875 123.210938 64.179688 125.148438 64.296875 127.289062 C 64.53125 131.585938 65.523438 135.609375 67.273438 139.363281 C 68.855469 142.757812 71.125 145.683594 74.074219 148.144531 C 75.179688 149.066406 76.484375 149.953125 77.988281 150.804688 C 80.90625 152.453125 83.910156 153.734375 87.007812 154.652344 C 91.335938 155.933594 98.230469 157.863281 107.691406 160.449219 C 109.6875 160.996094 111.671875 161.574219 113.648438 162.191406 C 115.894531 162.890625 117.992188 163.894531 119.941406 165.207031 C 122.808594 167.132812 124.339844 169.707031 124.53125 172.921875 C 124.625 174.519531 124.390625 176.070312 123.832031 177.578125 C 122.890625 180.109375 121.167969 182.085938 118.664062 183.503906 C 117.128906 184.371094 115.503906 185.011719 113.789062 185.429688 C 108.0625 186.820312 102.332031 186.855469 96.59375 185.539062 C 92.679688 184.644531 89.441406 182.664062 86.882812 179.605469 C 85.832031 178.351562 84.992188 177.019531 84.371094 175.605469 C 83.523438 173.6875 83.007812 171.605469 82.820312 169.359375 C 82.8125 169.261719 82.726562 169.183594 82.632812 169.183594 L 59.96875 169.183594 C 59.90625 169.183594 59.855469 169.238281 59.859375 169.300781 C 60.125 173.960938 61.011719 178.386719 62.519531 182.578125 C 64.109375 186.996094 66.46875 190.984375 69.597656 194.546875 C 70.6875 195.785156 71.8125 196.890625 72.980469 197.863281 Z M 72.980469 197.863281 "/>
<path style=" stroke:none;fill-rule:nonzero;fill:rgb(100%,95.686275%,94.117647%);fill-opacity:1;" d="M 154.238281 98.976562 C 153.464844 98.382812 152.910156 97.632812 152.570312 96.726562 C 152.347656 96.144531 152.238281 95.246094 152.238281 94.042969 C 152.230469 84.730469 152.234375 75.421875 152.25 66.113281 C 152.25 65.277344 152.351562 64.605469 152.550781 64.097656 C 153.121094 62.640625 154.175781 61.589844 155.710938 60.949219 C 156.191406 60.75 156.691406 60.648438 157.214844 60.652344 C 161.121094 60.667969 165.03125 60.679688 168.941406 60.679688 C 170.960938 60.683594 172.066406 60.703125 172.269531 60.738281 C 173.453125 60.953125 174.445312 61.558594 175.242188 62.5625 C 175.847656 63.320312 176.621094 64.40625 177.554688 65.824219 C 177.765625 66.140625 178.097656 66.285156 178.554688 66.265625 C 178.777344 66.257812 178.894531 66.25 178.898438 66.25 C 184.472656 66.25 190.042969 66.253906 195.613281 66.253906 C 196.078125 66.253906 196.53125 66.320312 196.96875 66.457031 C 198.878906 67.042969 200.140625 68.175781 200.753906 69.855469 C 201 70.527344 201.128906 71.617188 201.144531 73.125 C 201.21875 79.820312 201.21875 86.519531 201.144531 93.21875 C 201.128906 94.785156 200.996094 95.914062 200.75 96.605469 C 200.085938 98.457031 198.675781 99.644531 196.519531 100.164062 C 196.136719 100.253906 195.558594 100.292969 194.777344 100.285156 C 194.019531 100.273438 193.628906 100.265625 193.605469 100.265625 C 182.640625 100.265625 171.675781 100.265625 160.710938 100.265625 C 158.5 100.265625 157.398438 100.265625 157.394531 100.265625 C 156.226562 100.132812 155.175781 99.703125 154.238281 98.976562 Z M 154.238281 98.976562 "/>
<path style=" stroke:none;fill-rule:nonzero;fill:rgb(100%,95.686275%,94.117647%);fill-opacity:1;" d="M 69.597656 194.546875 C 66.46875 190.984375 64.109375 186.996094 62.519531 182.578125 C 61.011719 178.386719 60.125 173.960938 59.859375 169.300781 C 59.855469 169.238281 59.90625 169.183594 59.96875 169.183594 L 82.632812 169.183594 C 82.726562 169.183594 82.8125 169.261719 82.820312 169.359375 C 83.007812 171.605469 83.523438 173.6875 84.371094 175.605469 C 84.992188 177.019531 85.832031 178.351562 86.882812 179.605469 C 89.441406 182.664062 92.679688 184.644531 96.59375 185.539062 C 102.332031 186.855469 108.0625 186.820312 113.789062 185.429688 C 115.503906 185.011719 117.128906 184.371094 118.664062 183.503906 C 121.167969 182.085938 122.890625 180.109375 123.832031 177.578125 C 124.390625 176.070312 124.625 174.519531 124.53125 172.921875 C 124.339844 169.707031 122.808594 167.132812 119.941406 165.207031 C 117.992188 163.894531 115.894531 162.890625 113.648438 162.191406 C 111.671875 161.574219 109.6875 160.996094 107.691406 160.449219 C 98.230469 157.863281 91.335938 155.933594 87.007812 154.652344 C 83.910156 153.734375 80.90625 152.453125 77.988281 150.804688 C 76.484375 149.953125 75.179688 149.066406 74.074219 148.144531 C 71.125 145.683594 68.855469 142.757812 67.273438 139.363281 C 65.523438 135.609375 64.53125 131.585938 64.296875 127.289062 C 64.179688 125.148438 64.1875 123.210938 64.324219 121.480469 C 64.828125 115.082031 67.0625 109.386719 71.03125 104.390625 C 75.011719 99.378906 79.882812 95.675781 85.644531 93.289062 C 88.070312 92.285156 90.796875 91.484375 93.816406 90.890625 C 100.316406 89.613281 106.851562 89.417969 113.421875 90.304688 C 117.289062 90.828125 121.015625 91.84375 124.605469 93.351562 C 128.886719 95.148438 132.671875 97.683594 135.953125 100.964844 C 137.023438 102.039062 138.042969 103.15625 139.015625 104.316406 C 140.015625 105.515625 140.894531 106.742188 141.652344 107.996094 C 145.132812 113.753906 147 120.0625 147.253906 126.914062 C 147.257812 126.980469 147.277344 127.066406 147.320312 127.175781 C 147.335938 127.226562 147.351562 127.28125 147.355469 127.332031 C 147.367188 127.394531 147.3125 127.449219 147.246094 127.449219 L 124.636719 127.449219 C 124.570312 127.449219 124.519531 127.398438 124.515625 127.332031 C 124.449219 125.109375 124.113281 123.230469 123.511719 121.703125 C 121.460938 116.488281 117.800781 113.078125 112.535156 111.464844 C 110.570312 110.867188 108.496094 110.527344 106.3125 110.445312 C 104.601562 110.382812 103.019531 110.421875 101.574219 110.5625 C 98.777344 110.832031 96.113281 111.636719 93.585938 112.96875 C 92.058594 113.773438 90.722656 114.828125 89.589844 116.132812 C 87.742188 118.246094 86.910156 120.71875 87.09375 123.558594 C 87.230469 125.742188 88.019531 127.582031 89.46875 129.082031 C 89.980469 129.613281 90.605469 130.167969 91.335938 130.738281 C 91.972656 131.230469 92.675781 131.675781 93.445312 132.0625 C 95.777344 133.238281 98.207031 134.160156 100.738281 134.832031 C 102.222656 135.222656 102.972656 135.421875 102.988281 135.425781 C 108.824219 137.066406 114.664062 138.707031 120.503906 140.339844 C 123.441406 141.160156 124.960938 141.589844 125.066406 141.621094 C 129.050781 142.84375 132.683594 144.503906 135.953125 146.59375 C 138.539062 148.242188 140.789062 150.476562 142.710938 153.289062 C 144.644531 156.121094 146.0625 159.347656 146.964844 162.964844 C 147.941406 166.890625 148.277344 170.984375 147.96875 175.242188 C 147.84375 176.941406 147.625 178.503906 147.308594 179.933594 C 146.347656 184.25 144.507812 188.128906 141.792969 191.570312 C 139.160156 194.90625 135.941406 197.726562 132.128906 200.035156 C 127.019531 203.128906 121.515625 205.167969 115.613281 206.148438 C 109.242188 207.207031 102.84375 207.441406 96.414062 206.851562 C 91.730469 206.421875 87.042969 205.269531 82.355469 203.390625 C 78.839844 201.984375 75.714844 200.140625 72.980469 197.863281 C 71.8125 196.890625 70.6875 195.785156 69.597656 194.546875 Z M 69.597656 194.546875 "/>
</g>
</svg>
