<?xml version="1.0" encoding="UTF-8"?>
<svg xmlns="http://www.w3.org/2000/svg" xmlns:xlink="http://www.w3.org/1999/xlink" width="64px" height="64px" viewBox="0 0 64 64" version="1.1">
<g id="surface1">
<path style="fill:none;stroke-width:2;stroke-linecap:butt;stroke-linejoin:miter;stroke:rgb(43.529412%,90.588235%,89.803922%);stroke-opacity:1;stroke-miterlimit:4;" d="M 354.25 383.53125 C 353.78125 383.3125 353.34375 383.28125 352.90625 383.40625 C 352.28125 383.65625 351.9375 383.75 351.875 383.78125 C 311.15625 389.65625 272.84375 382.90625 236.90625 363.5 C 219.5625 354.125 204.15625 342.21875 190.71875 327.78125 C 164.5625 299.65625 148.75 266.8125 143.21875 229.1875 C 142.25 222.5625 141.65625 215.90625 141.4375 209.28125 C 140.59375 181.59375 145.625 155.28125 156.5625 130.3125 C 157.15625 128.9375 157.46875 128 157.5 127.53125 " transform="matrix(0.125,0,0,0.125,0,0)"/>
<path style="fill:none;stroke-width:2;stroke-linecap:butt;stroke-linejoin:miter;stroke:rgb(61.176471%,77.647059%,81.568627%);stroke-opacity:1;stroke-miterlimit:4;" d="M 266.71875 236.4375 C 268.625 239.15625 270.125 242.125 271.21875 245.3125 C 272.84375 249.875 274.0625 254.53125 274.90625 259.28125 C 275.53125 262.71875 276.28125 265.09375 277.15625 266.375 C 278.75 268.71875 280.9375 270.15625 283.75 270.75 C 289.5625 271.9375 293.96875 269.84375 296.9375 264.375 C 304.625 250.4375 308.625 235.46875 309.03125 219.5 C 309.28125 208.59375 307.84375 196.59375 304.75 183.5 C 301.9375 171.625 295.6875 163 286.03125 157.625 C 282.78125 155.8125 279.3125 154.59375 275.59375 153.9375 C 272.3125 153.375 268.625 153.0625 264.5 153 C 258.375 152.90625 252.25 152.9375 246.125 153.09375 C 241.90625 153.1875 238.5625 153.75 236.125 154.78125 C 230.40625 157.125 226.53125 161.09375 224.5 166.75 C 223.5 169.5 223 174.0625 223 180.4375 C 223 186.28125 223 192.09375 223 197.90625 C 223 203.5625 223.46875 207.71875 224.40625 210.40625 C 226.71875 216.90625 231.34375 221.21875 238.21875 223.34375 C 239.15625 223.625 241.71875 224 245.875 224.4375 C 250.96875 225 255.625 226.6875 259.8125 229.5 C 262.5 231.3125 264.8125 233.625 266.71875 236.4375 " transform="matrix(0.125,0,0,0.125,0,0)"/>
<path style="fill:none;stroke-width:2;stroke-linecap:butt;stroke-linejoin:miter;stroke:rgb(61.176471%,77.647059%,81.568627%);stroke-opacity:1;stroke-miterlimit:4;" d="M 394.4375 268.28125 C 398.75 271.5625 403.0625 271.96875 407.375 269.4375 C 408.46875 268.8125 409.46875 267.90625 410.40625 266.8125 C 411.3125 265.6875 412.09375 264.5625 412.6875 263.4375 C 418.9375 251.84375 422.6875 239.375 424 226 C 425.28125 212.875 424.15625 199.3125 420.59375 185.40625 C 418.6875 178 416.25 172.25 413.28125 168.09375 C 406.3125 158.3125 396.125 153.3125 382.75 153 C 376.65625 152.875 369.46875 152.90625 361.21875 153.125 C 357.125 153.21875 353.90625 153.75 351.53125 154.71875 C 345.75 157.0625 341.84375 161.0625 339.78125 166.6875 C 338.75 169.53125 338.25 174.46875 338.25 181.46875 C 338.25 187.90625 338.25 194.34375 338.25 200.75 C 338.28125 212.5 343.375 220.03125 353.5625 223.28125 C 354.71875 223.65625 357.21875 224.0625 361.0625 224.4375 C 368.09375 225.15625 373.9375 227.84375 378.65625 232.53125 C 381.78125 235.625 384.40625 240 386.53125 245.59375 C 388.34375 250.40625 389.65625 255.40625 390.4375 260.53125 C 390.75 262.5625 391.125 264 391.53125 264.8125 C 392.21875 266.1875 393.1875 267.34375 394.4375 268.28125 " transform="matrix(0.125,0,0,0.125,0,0)"/>
<path style="fill:none;stroke-width:2;stroke-linecap:butt;stroke-linejoin:miter;stroke:rgb(32.156863%,88.627451%,88.235294%);stroke-opacity:1;stroke-miterlimit:4;" d="M 204.25 489.46875 C 205.8125 477.6875 206 466.34375 204.75 455.5 C 201.46875 426.875 188.25 403.9375 165.09375 386.6875 C 162.0625 384.4375 158.96875 382.28125 155.78125 380.21875 C 125.96875 360.9375 103.5 335.46875 88.375 303.8125 C 85.625 298.03125 83.09375 291.875 80.78125 285.34375 C 71.65625 259.46875 67 232.28125 66.75 203.75 C 66.65625 191.46875 66.875 181.46875 67.4375 173.65625 C 67.46875 173.5625 67.5625 173.15625 67.78125 172.375 C 67.9375 171.75 67.6875 171.3125 67.03125 171 " transform="matrix(0.125,0,0,0.125,0,0)"/>
<path style=" stroke:none;fill-rule:nonzero;fill:rgb(69.019608%,94.117647%,93.72549%);fill-opacity:1;" d="M 64 45.570312 C 64 45.675781 64 45.777344 64 45.882812 C 63.824219 46.984375 63.265625 47.671875 62.320312 47.945312 C 61.96875 48.046875 61.523438 48.058594 60.984375 47.984375 C 59.183594 47.730469 57.394531 47.164062 55.617188 46.289062 C 53.726562 45.355469 51.789062 45.339844 49.804688 46.242188 C 48.171875 46.984375 46.328125 47.550781 44.28125 47.941406 C 44.222656 47.914062 44.167969 47.910156 44.113281 47.925781 C 44.035156 47.957031 43.992188 47.96875 43.984375 47.972656 C 38.894531 48.707031 34.105469 47.863281 29.613281 45.4375 C 27.445312 44.265625 25.519531 42.777344 23.839844 40.972656 C 20.570312 37.457031 18.59375 33.351562 17.902344 28.648438 C 17.78125 27.820312 17.707031 26.988281 17.679688 26.160156 C 17.574219 22.699219 18.203125 19.410156 19.570312 16.289062 C 19.644531 16.117188 19.683594 16 19.6875 15.941406 C 19.734375 15.894531 19.785156 15.808594 19.84375 15.6875 C 21.148438 12.941406 22.953125 10.535156 25.253906 8.472656 C 27.957031 6.050781 31.039062 4.367188 34.507812 3.421875 C 35.300781 3.207031 36.117188 3.035156 36.949219 2.90625 C 40.769531 2.316406 44.480469 2.652344 48.085938 3.914062 C 51.273438 5.027344 54.105469 6.820312 56.582031 9.292969 C 59.449219 12.15625 61.410156 15.527344 62.46875 19.40625 C 63.375 22.734375 63.511719 26.121094 62.875 29.5625 C 62.039062 34.085938 62.199219 38.636719 63.355469 43.214844 C 63.390625 43.355469 63.503906 43.746094 63.695312 44.386719 C 63.8125 44.777344 63.914062 45.171875 64 45.570312 Z M 33.339844 29.554688 C 33.578125 29.894531 33.765625 30.265625 33.902344 30.664062 C 34.105469 31.234375 34.257812 31.816406 34.363281 32.410156 C 34.441406 32.839844 34.535156 33.136719 34.644531 33.296875 C 34.84375 33.589844 35.117188 33.769531 35.46875 33.84375 C 36.195312 33.992188 36.746094 33.730469 37.117188 33.046875 C 38.078125 31.304688 38.578125 29.433594 38.628906 27.4375 C 38.660156 26.074219 38.480469 24.574219 38.09375 22.9375 C 37.742188 21.453125 36.960938 20.375 35.753906 19.703125 C 35.347656 19.476562 34.914062 19.324219 34.449219 19.242188 C 34.039062 19.171875 33.578125 19.132812 33.0625 19.125 C 32.296875 19.113281 31.53125 19.117188 30.765625 19.136719 C 30.238281 19.148438 29.820312 19.21875 29.515625 19.347656 C 28.800781 19.640625 28.316406 20.136719 28.0625 20.84375 C 27.9375 21.1875 27.875 21.757812 27.875 22.554688 C 27.875 23.285156 27.875 24.011719 27.875 24.738281 C 27.875 25.445312 27.933594 25.964844 28.050781 26.300781 C 28.339844 27.113281 28.917969 27.652344 29.777344 27.917969 C 29.894531 27.953125 30.214844 28 30.734375 28.054688 C 31.371094 28.125 31.953125 28.335938 32.476562 28.6875 C 32.8125 28.914062 33.101562 29.203125 33.339844 29.554688 Z M 49.304688 33.535156 C 49.84375 33.945312 50.382812 33.996094 50.921875 33.679688 C 51.058594 33.601562 51.183594 33.488281 51.300781 33.351562 C 51.414062 33.210938 51.511719 33.070312 51.585938 32.929688 C 52.367188 31.480469 52.835938 29.921875 53 28.25 C 53.160156 26.609375 53.019531 24.914062 52.574219 23.175781 C 52.335938 22.25 52.03125 21.53125 51.660156 21.011719 C 50.789062 19.789062 49.515625 19.164062 47.84375 19.125 C 47.082031 19.109375 46.183594 19.113281 45.152344 19.140625 C 44.640625 19.152344 44.238281 19.21875 43.941406 19.339844 C 43.21875 19.632812 42.730469 20.132812 42.472656 20.835938 C 42.34375 21.191406 42.28125 21.808594 42.28125 22.683594 C 42.28125 23.488281 42.28125 24.292969 42.28125 25.09375 C 42.285156 26.5625 42.921875 27.503906 44.195312 27.910156 C 44.339844 27.957031 44.652344 28.007812 45.132812 28.054688 C 46.011719 28.144531 46.742188 28.480469 47.332031 29.066406 C 47.722656 29.453125 48.050781 30 48.316406 30.699219 C 48.542969 31.300781 48.707031 31.925781 48.804688 32.566406 C 48.84375 32.820312 48.890625 33 48.941406 33.101562 C 49.027344 33.273438 49.148438 33.417969 49.304688 33.535156 Z M 49.304688 33.535156 "/>
<path style=" stroke:none;fill-rule:nonzero;fill:rgb(18.039216%,86.666667%,85.490196%);fill-opacity:1;" d="M 19.6875 15.941406 C 19.683594 16 19.644531 16.117188 19.570312 16.289062 C 18.203125 19.410156 17.574219 22.699219 17.679688 26.160156 C 17.707031 26.988281 17.78125 27.820312 17.902344 28.648438 C 18.59375 33.351562 20.570312 37.457031 23.839844 40.972656 C 25.519531 42.777344 27.445312 44.265625 29.613281 45.4375 C 34.105469 47.863281 38.894531 48.707031 43.984375 47.972656 C 43.992188 47.96875 44.035156 47.957031 44.113281 47.925781 C 44.167969 47.910156 44.222656 47.914062 44.28125 47.941406 C 42.84375 51.011719 40.851562 53.632812 38.304688 55.804688 C 34.636719 58.933594 30.378906 60.722656 25.53125 61.183594 C 25.726562 59.710938 25.75 58.292969 25.59375 56.9375 C 25.183594 53.359375 23.53125 50.492188 20.636719 48.335938 C 20.257812 48.054688 19.871094 47.785156 19.472656 47.527344 C 15.746094 45.117188 12.9375 41.933594 11.046875 37.976562 C 10.703125 37.253906 10.386719 36.484375 10.097656 35.667969 C 8.957031 32.433594 8.375 29.035156 8.34375 25.46875 C 8.332031 23.933594 8.359375 22.683594 8.429688 21.707031 C 8.433594 21.695312 8.445312 21.644531 8.472656 21.546875 C 8.492188 21.46875 8.460938 21.414062 8.378906 21.375 C 11.625 18.492188 15.394531 16.683594 19.6875 15.941406 Z M 19.6875 15.941406 "/>
<path style=" stroke:none;fill-rule:nonzero;fill:rgb(53.333333%,61.176471%,69.019608%);fill-opacity:1;" d="M 32.476562 28.6875 C 31.953125 28.335938 31.371094 28.125 30.734375 28.054688 C 30.214844 28 29.894531 27.953125 29.777344 27.917969 C 28.917969 27.652344 28.339844 27.113281 28.050781 26.300781 C 27.933594 25.964844 27.875 25.445312 27.875 24.738281 C 27.875 24.011719 27.875 23.285156 27.875 22.554688 C 27.875 21.757812 27.9375 21.1875 28.0625 20.84375 C 28.316406 20.136719 28.800781 19.640625 29.515625 19.347656 C 29.820312 19.21875 30.238281 19.148438 30.765625 19.136719 C 31.53125 19.117188 32.296875 19.113281 33.0625 19.125 C 33.578125 19.132812 34.039062 19.171875 34.449219 19.242188 C 34.914062 19.324219 35.347656 19.476562 35.753906 19.703125 C 36.960938 20.375 37.742188 21.453125 38.09375 22.9375 C 38.480469 24.574219 38.660156 26.074219 38.628906 27.4375 C 38.578125 29.433594 38.078125 31.304688 37.117188 33.046875 C 36.746094 33.730469 36.195312 33.992188 35.46875 33.84375 C 35.117188 33.769531 34.84375 33.589844 34.644531 33.296875 C 34.535156 33.136719 34.441406 32.839844 34.363281 32.410156 C 34.257812 31.816406 34.105469 31.234375 33.902344 30.664062 C 33.765625 30.265625 33.578125 29.894531 33.339844 29.554688 C 33.101562 29.203125 32.8125 28.914062 32.476562 28.6875 Z M 32.476562 28.6875 "/>
<path style=" stroke:none;fill-rule:nonzero;fill:rgb(53.333333%,61.176471%,69.019608%);fill-opacity:1;" d="M 49.304688 33.535156 C 49.148438 33.417969 49.027344 33.273438 48.941406 33.101562 C 48.890625 33 48.84375 32.820312 48.804688 32.566406 C 48.707031 31.925781 48.542969 31.300781 48.316406 30.699219 C 48.050781 30 47.722656 29.453125 47.332031 29.066406 C 46.742188 28.480469 46.011719 28.144531 45.132812 28.054688 C 44.652344 28.007812 44.339844 27.957031 44.195312 27.910156 C 42.921875 27.503906 42.285156 26.5625 42.28125 25.09375 C 42.28125 24.292969 42.28125 23.488281 42.28125 22.683594 C 42.28125 21.808594 42.34375 21.191406 42.472656 20.835938 C 42.730469 20.132812 43.21875 19.632812 43.941406 19.339844 C 44.238281 19.21875 44.640625 19.152344 45.152344 19.140625 C 46.183594 19.113281 47.082031 19.109375 47.84375 19.125 C 49.515625 19.164062 50.789062 19.789062 51.660156 21.011719 C 52.03125 21.53125 52.335938 22.25 52.574219 23.175781 C 53.019531 24.914062 53.160156 26.609375 53 28.25 C 52.835938 29.921875 52.367188 31.480469 51.585938 32.929688 C 51.511719 33.070312 51.414062 33.210938 51.300781 33.351562 C 51.183594 33.488281 51.058594 33.601562 50.921875 33.679688 C 50.382812 33.996094 49.84375 33.945312 49.304688 33.535156 Z M 49.304688 33.535156 "/>
<path style=" stroke:none;fill-rule:nonzero;fill:rgb(46.27451%,90.588235%,90.588235%);fill-opacity:1;" d="M 8.378906 21.375 C 8.460938 21.414062 8.492188 21.46875 8.472656 21.546875 C 8.445312 21.644531 8.433594 21.695312 8.429688 21.707031 C 8.359375 22.683594 8.332031 23.933594 8.34375 25.46875 C 8.375 29.035156 8.957031 32.433594 10.097656 35.667969 C 10.386719 36.484375 10.703125 37.253906 11.046875 37.976562 C 12.9375 41.933594 15.746094 45.117188 19.472656 47.527344 C 19.871094 47.785156 20.257812 48.054688 20.636719 48.335938 C 23.53125 50.492188 25.183594 53.359375 25.59375 56.9375 C 25.75 58.292969 25.726562 59.710938 25.53125 61.183594 C 21.859375 61.46875 18.34375 60.933594 14.976562 59.585938 C 13.738281 59.089844 13.058594 58.824219 12.9375 58.792969 C 11.390625 58.371094 9.898438 58.53125 8.460938 59.273438 C 6.796875 60.128906 5.007812 60.707031 3.09375 61 C 1.375 61.265625 0.34375 60.574219 0 58.929688 C 0 58.804688 0 58.679688 0 58.554688 C 0.0664062 58.230469 0.152344 57.910156 0.25 57.59375 C 0.417969 57.046875 0.515625 56.730469 0.535156 56.648438 C 1.609375 52.59375 1.894531 48.472656 1.390625 44.289062 C 1.34375 43.910156 1.285156 43.527344 1.214844 43.148438 C 1.089844 42.460938 1.019531 42.082031 1.007812 42.015625 C 0.386719 37.9375 0.800781 33.996094 2.257812 30.195312 C 3.5625 26.792969 5.601562 23.851562 8.378906 21.375 Z M 8.378906 21.375 "/>
</g>
</svg>
