<?xml version="1.0" encoding="UTF-8" standalone="no"?>
<!DOCTYPE svg PUBLIC "-//W3C//DTD SVG 1.1//EN" "http://www.w3.org/Graphics/SVG/1.1/DTD/svg11.dtd">
<svg xmlns="http://www.w3.org/2000/svg" version="1.1" viewBox="0 0 512 512">
<path fill="#9bdb4d" d="
  M 188.05 147.19
  Q 221.86 147.28 256.24 147.26
  Q 274.41 147.25 276.25 147.30
  Q 341.91 149.25 389.09 193.77
  Q 396.45 200.71 402.76 208.35
  Q 435.85 248.41 440.81 300.53
  Q 441.50 307.75 441.50 320.49
  Q 441.50 374.98 441.50 429.47
  Q 441.50 440.07 440.04 444.89
  Q 436.70 455.86 426.69 462.19
  Q 416.77 468.45 405.90 466.94
  Q 395.82 465.55 388.00 458.66
  Q 377.50 449.42 377.50 433.75
  Q 377.50 377.62 377.50 321.50
  Q 377.50 308.43 376.55 301.55
  Q 371.93 267.94 348.50 243.50
  Q 322.99 216.90 286.46 212.13
  Q 279.69 211.25 266.50 211.25
  Q 227.43 211.25 187.81 211.25
  Q 186.73 211.25 187.54 211.97
  Q 212.84 234.54 237.84 256.39
  Q 249.95 266.98 249.69 282.44
  Q 249.55 290.62 245.35 297.59
  Q 241.37 304.21 234.63 308.40
  Q 226.40 313.52 216.56 313.19
  Q 206.91 312.87 199.01 307.61
  Q 197.94 306.90 185.46 295.87
  Q 133.98 250.37 82.82 204.51
  Q 77.82 200.04 75.50 196.27
  Q 64.14 177.85 77.81 158.81
  Q 78.98 157.19 83.19 153.51
  Q 88.43 148.94 88.87 148.54
  Q 141.23 101.59 193.88 54.96
  Q 199.79 49.73 204.02 47.75
  Q 216.82 41.76 229.66 47.06
  Q 237.35 50.24 242.37 56.38
  Q 247.69 62.90 249.09 71.25
  Q 250.58 80.21 247.30 88.47
  Q 245.02 94.20 240.76 98.77
  Q 240.46 99.09 231.83 106.84
  Q 209.88 126.55 187.67 146.19
  Q 186.54 147.19 188.05 147.19
  Z"
/>
</svg>
