<?xml version="1.0" encoding="UTF-8" standalone="no"?>
<!DOCTYPE svg PUBLIC "-//W3C//DTD SVG 1.1//EN" "http://www.w3.org/Graphics/SVG/1.1/DTD/svg11.dtd">
<svg xmlns="http://www.w3.org/2000/svg" version="1.1" viewBox="0 0 512 512">
<path fill="#9bdb4d" d="
  M 140.41 191.94
  Q 242.08 192.04 343.75 192.00
  Q 359.26 191.99 363.95 179.64
  Q 365.25 176.22 365.25 170.18
  Q 365.21 105.01 365.31 40.06
  C 365.31 39.75 365.56 39.50 365.87 39.50
  L 401.13 39.50
  C 401.61 39.50 402.07 39.69 402.40 40.02
  L 471.98 109.60
  C 472.31 109.93 472.50 110.39 472.50 110.87
  Q 472.55 270.84 472.44 429.97
  Q 472.44 438.93 471.09 443.77
  Q 467.47 456.73 456.44 464.94
  Q 449.09 470.41 440.15 471.93
  Q 436.83 472.50 422.81 472.50
  Q 251.41 472.50 80.00 472.50
  Q 74.98 472.50 70.61 471.63
  Q 66.24 470.77 61.76 468.55
  Q 45.50 460.48 40.79 443.11
  Q 39.50 438.34 39.50 430.24
  Q 39.50 257.48 39.50 84.72
  Q 39.50 73.14 40.97 67.93
  Q 44.01 57.16 52.69 49.44
  Q 60.92 42.11 71.29 40.16
  Q 74.75 39.51 91.25 39.51
  Q 104.41 39.52 117.32 39.44
  C 117.83 39.44 118.25 39.85 118.25 40.36
  Q 118.25 105.11 118.25 169.51
  Q 118.25 176.72 119.65 180.30
  Q 122.52 187.66 129.91 190.55
  Q 133.45 191.94 140.41 191.94
  Z
  M 434.25 250.33
  C 434.25 239.92 425.82 231.49 415.41 231.49
  L 97.59 231.49
  C 87.18 231.49 78.75 239.92 78.75 250.33
  L 78.75 414.41
  C 78.75 424.82 87.18 433.25 97.59 433.25
  L 415.41 433.25
  C 425.82 433.25 434.25 424.82 434.25 414.41
  L 434.25 250.33
  Z"
/>
<path fill="#9bdb4d" d="
  M 245.77 39.44
  L 326.19 39.44
  C 326.64 39.44 327.00 39.80 327.00 40.25
  Q 327.00 83.26 327.00 125.84
  Q 327.00 136.90 325.41 140.95
  Q 322.56 148.21 314.89 151.21
  Q 311.60 152.50 305.93 152.50
  Q 290.34 152.50 274.75 152.50
  Q 260.12 152.50 256.84 151.48
  Q 248.68 148.96 245.53 140.33
  Q 244.24 136.78 244.28 130.50
  Q 244.57 85.13 245.25 39.95
  C 245.25 39.67 245.48 39.44 245.77 39.44
  Z"
/>
</svg>
