<?xml version="1.0" encoding="UTF-8"?>
<svg xmlns="http://www.w3.org/2000/svg" xmlns:xlink="http://www.w3.org/1999/xlink" width="48px" height="48px" viewBox="0 0 48 48" version="1.1">
<g id="surface1">
<path style=" stroke:none;fill-rule:nonzero;fill:rgb(255,255,255);fill-opacity:1;" d="M 21.566406 0 C 23.191406 0 24.816406 0 26.441406 0 C 27.671875 0.164062 28.511719 0.761719 28.960938 1.792969 C 29.089844 2.082031 29.191406 2.523438 29.269531 3.113281 C 29.410156 4.1875 29.546875 5.261719 29.683594 6.335938 C 29.6875 6.363281 29.707031 6.386719 29.734375 6.398438 C 30.625 6.707031 31.507812 7.078125 32.390625 7.507812 C 32.421875 7.523438 32.460938 7.519531 32.488281 7.496094 C 33.46875 6.734375 34.457031 5.972656 35.445312 5.214844 C 36.101562 4.710938 36.824219 4.503906 37.617188 4.59375 C 38.128906 4.652344 38.589844 4.828125 39 5.121094 C 39.117188 5.207031 39.464844 5.539062 40.042969 6.117188 C 40.644531 6.71875 41.242188 7.316406 41.839844 7.914062 C 42.472656 8.546875 42.84375 8.941406 42.949219 9.101562 C 43.269531 9.578125 43.429688 10.117188 43.429688 10.710938 C 43.429688 11.226562 43.304688 11.714844 43.054688 12.167969 C 42.976562 12.308594 42.6875 12.703125 42.179688 13.355469 C 41.625 14.074219 41.074219 14.78125 40.523438 15.484375 C 40.492188 15.527344 40.484375 15.585938 40.507812 15.636719 C 40.933594 16.535156 41.296875 17.410156 41.601562 18.265625 C 41.613281 18.292969 41.636719 18.3125 41.664062 18.316406 C 42.664062 18.441406 43.664062 18.570312 44.664062 18.699219 C 45.375 18.789062 45.886719 18.898438 46.195312 19.03125 C 47.253906 19.484375 47.855469 20.351562 48 21.636719 C 48 23.230469 48 24.824219 48 26.417969 C 47.839844 27.664062 47.234375 28.511719 46.191406 28.96875 C 45.910156 29.09375 45.496094 29.191406 44.949219 29.261719 C 43.875 29.402344 42.785156 29.542969 41.675781 29.679688 C 41.632812 29.683594 41.59375 29.714844 41.582031 29.757812 C 41.296875 30.605469 40.945312 31.460938 40.523438 32.316406 C 40.488281 32.386719 40.496094 32.46875 40.542969 32.527344 C 41.171875 33.34375 41.816406 34.167969 42.484375 35.003906 C 42.792969 35.390625 42.996094 35.691406 43.097656 35.910156 C 43.542969 36.890625 43.535156 37.808594 43.074219 38.664062 C 42.925781 38.9375 42.640625 39.28125 42.21875 39.707031 C 41.371094 40.554688 40.527344 41.402344 39.679688 42.246094 C 39.292969 42.632812 38.964844 42.902344 38.699219 43.046875 C 37.875 43.503906 37.03125 43.554688 36.171875 43.199219 C 35.867188 43.074219 35.4375 42.796875 34.882812 42.363281 C 34.082031 41.738281 33.28125 41.121094 32.476562 40.503906 C 32.453125 40.488281 32.421875 40.484375 32.394531 40.496094 C 31.589844 40.886719 30.714844 41.25 29.769531 41.589844 C 29.714844 41.609375 29.675781 41.65625 29.671875 41.714844 C 29.542969 42.777344 29.40625 43.851562 29.265625 44.941406 C 29.191406 45.496094 29.09375 45.914062 28.96875 46.199219 C 28.507812 47.246094 27.65625 47.847656 26.410156 48 C 24.800781 48 23.191406 48 21.582031 48 C 20.335938 47.839844 19.484375 47.238281 19.027344 46.191406 C 18.90625 45.910156 18.808594 45.496094 18.738281 44.949219 C 18.597656 43.875 18.457031 42.785156 18.320312 41.679688 C 18.316406 41.632812 18.28125 41.597656 18.238281 41.578125 C 17.339844 41.273438 16.46875 40.910156 15.628906 40.5 C 15.585938 40.476562 15.539062 40.484375 15.503906 40.511719 C 14.664062 41.167969 13.832031 41.8125 13.007812 42.445312 C 12.507812 42.835938 12.101562 43.085938 11.796875 43.207031 C 10.941406 43.546875 10.109375 43.492188 9.300781 43.046875 C 9.03125 42.898438 8.707031 42.632812 8.324219 42.25 C 7.519531 41.445312 6.714844 40.640625 5.90625 39.835938 C 5.902344 39.828125 5.785156 39.714844 5.558594 39.496094 C 5.296875 39.246094 5.121094 39.03125 5.019531 38.855469 C 4.335938 37.613281 4.410156 36.457031 5.246094 35.386719 C 5.964844 34.457031 6.699219 33.507812 7.449219 32.542969 C 7.5 32.480469 7.507812 32.394531 7.472656 32.320312 C 7.066406 31.492188 6.710938 30.632812 6.40625 29.746094 C 6.398438 29.71875 6.375 29.699219 6.347656 29.695312 C 5.242188 29.542969 4.136719 29.394531 3.027344 29.257812 C 2.5 29.191406 2.101562 29.097656 1.828125 28.980469 C 0.773438 28.527344 0.164062 27.679688 0 26.433594 C 0 24.808594 0 23.183594 0 21.558594 C 0.15625 20.347656 0.742188 19.511719 1.757812 19.050781 C 2.03125 18.925781 2.414062 18.828125 2.914062 18.761719 C 4.042969 18.605469 5.171875 18.460938 6.304688 18.328125 C 6.359375 18.320312 6.40625 18.285156 6.421875 18.234375 C 6.710938 17.367188 7.070312 16.5 7.5 15.628906 C 7.519531 15.582031 7.515625 15.527344 7.484375 15.488281 C 6.949219 14.816406 6.425781 14.144531 5.90625 13.464844 C 5.332031 12.71875 5.027344 12.3125 4.992188 12.253906 C 4.722656 11.792969 4.582031 11.296875 4.570312 10.757812 C 4.558594 10.261719 4.671875 9.796875 4.898438 9.363281 C 5.039062 9.097656 5.335938 8.738281 5.789062 8.285156 C 6.425781 7.648438 7.0625 7.011719 7.699219 6.375 C 8.457031 5.617188 8.910156 5.1875 9.054688 5.085938 C 9.886719 4.511719 10.851562 4.429688 11.949219 4.832031 C 12.152344 4.910156 12.414062 5.074219 12.734375 5.328125 C 13.011719 5.550781 13.15625 5.664062 13.160156 5.667969 C 13.933594 6.261719 14.710938 6.867188 15.492188 7.480469 C 15.53125 7.511719 15.585938 7.519531 15.632812 7.496094 C 16.453125 7.09375 17.316406 6.738281 18.222656 6.421875 C 18.273438 6.40625 18.308594 6.363281 18.316406 6.308594 C 18.4375 5.414062 18.554688 4.507812 18.667969 3.589844 C 18.777344 2.710938 18.898438 2.117188 19.03125 1.796875 C 19.464844 0.773438 20.3125 0.171875 21.566406 0 Z M 33.992188 24 C 33.992188 18.480469 29.519531 14.007812 24 14.007812 C 18.480469 14.007812 14.007812 18.480469 14.007812 24 C 14.007812 29.519531 18.480469 33.992188 24 33.992188 C 29.519531 33.992188 33.992188 29.519531 33.992188 24 Z M 33.992188 24 "/>
</g>
</svg>
