<?xml version="1.0" encoding="UTF-8" standalone="no"?>
<!DOCTYPE svg PUBLIC "-//W3C//DTD SVG 1.1//EN" "http://www.w3.org/Graphics/SVG/1.1/DTD/svg11.dtd">
<svg xmlns="http://www.w3.org/2000/svg" version="1.1" viewBox="0 0 512 512">
<path fill="#43d6b5" d="
  M 152.87 369.13
  Q 147.56 364.64 145.60 358.41
  Q 144.50 354.92 144.50 345.97
  Q 144.50 245.81 144.50 145.65
  Q 144.50 141.65 145.49 140.03
  Q 147.19 137.26 151.25 137.26
  Q 235.75 137.25 320.25 137.25
  Q 324.10 137.25 326.09 139.50
  Q 327.49 141.08 327.54 144.90
  Q 328.06 181.24 327.56 217.77
  C 327.55 218.32 328.00 218.76 328.55 218.74
  Q 344.66 218.01 361.01 218.86
  Q 364.09 219.02 365.55 220.41
  Q 367.72 222.49 367.57 225.91
  Q 367.50 227.48 367.50 227.59
  Q 367.50 288.67 367.50 349.75
  Q 367.50 357.88 363.91 363.44
  Q 359.31 370.58 352.00 373.24
  Q 347.87 374.75 337.34 374.75
  Q 252.79 374.75 168.25 374.73
  Q 159.49 374.73 152.87 369.13
  Z
  M 161.20 359.55
  Q 164.28 361.99 168.25 361.99
  Q 240.50 362.00 313.36 362.00
  C 313.89 362.00 314.32 361.57 314.32 361.04
  Q 314.21 304.31 314.24 248.50
  Q 314.25 241.26 314.57 228.50
  Q 314.84 217.75 314.80 207.00
  Q 314.70 178.72 314.81 150.53
  C 314.82 150.24 314.58 150.00 314.28 150.00
  L 157.81 150.06
  C 157.53 150.06 157.31 150.28 157.31 150.56
  Q 157.20 251.03 157.33 351.50
  Q 157.34 356.50 161.20 359.55
  Z
  M 331.18 359.57
  Q 334.28 361.99 338.25 362.06
  Q 341.01 362.11 343.76 361.95
  Q 347.09 361.77 349.06 360.76
  Q 352.56 358.98 353.95 355.38
  Q 354.75 353.31 354.75 348.52
  Q 354.75 291.10 354.75 232.52
  C 354.75 231.96 354.29 231.50 353.72 231.50
  L 327.77 231.43
  C 327.48 231.43 327.25 231.66 327.25 231.95
  Q 327.25 291.88 327.41 351.75
  Q 327.42 356.62 331.18 359.57
  Z"
/>
<rect fill="#43d6b5" x="182.85" y="180.77" width="108.84" height="12.22" rx="6.03"/>
<path fill="#43d6b5" d="
  M 237.9625 252.9182
  C 237.96 256.31 235.20 259.05 231.8118 259.0475
  L 188.8318 258.9725
  C 185.44 258.97 182.70 256.21 182.7026 252.8217
  L 182.7775 209.8618
  C 182.78 206.47 185.54 203.73 188.9282 203.7325
  L 231.9082 203.8075
  C 235.30 203.81 238.04 206.57 238.0374 209.9583
  L 237.9625 252.9182
  Z
  M 225.2248 217.1536
  C 225.22 216.78 224.92 216.47 224.5436 216.4748
  L 195.6636 216.5252
  C 195.29 216.53 194.98 216.83 194.9848 217.2064
  L 195.0352 246.1064
  C 195.04 246.48 195.34 246.79 195.7164 246.7852
  L 224.5964 246.7348
  C 224.97 246.73 225.28 246.43 225.2752 246.0536
  L 225.2248 217.1536
  Z"
/>
<rect fill="#43d6b5" x="244.88" y="205.78" width="46.34" height="12.40" rx="6.03"/>
<path fill="#43d6b5" d="
  M 247.59 242.42
  Q 243.36 239.31 245.56 234.56
  Q 246.89 231.70 250.75 231.67
  Q 267.77 231.51 284.80 231.50
  Q 287.24 231.50 288.55 232.26
  Q 290.51 233.40 291.00 235.50
  Q 292.17 240.49 288.59 242.61
  Q 286.68 243.75 282.20 243.75
  Q 266.86 243.75 251.64 243.75
  Q 249.39 243.75 247.59 242.42
  Z"
/>
<rect fill="#43d6b5" x="182.83" y="274.01" width="108.86" height="12.22" rx="6.03"/>
<rect fill="#43d6b5" x="182.84" y="299.02" width="108.84" height="12.22" rx="6.03"/>
<rect fill="#43d6b5" x="182.83" y="324.54" width="80.64" height="12.22" rx="6.00"/>
</svg>
