<?xml version="1.0" encoding="UTF-8" standalone="no"?>
<!DOCTYPE svg PUBLIC "-//W3C//DTD SVG 1.1//EN" "http://www.w3.org/Graphics/SVG/1.1/DTD/svg11.dtd">
<svg xmlns="http://www.w3.org/2000/svg" version="1.1" viewBox="0 0 512 512">
<g stroke-width="2.0" fill="none" stroke-linecap="butt">
<path stroke="#e8b750" vector-effect="non-scaling-stroke" d="
  M 495.96 88.25
  Q 495.04 88.28 494.93 87.57
  C 494.87 87.17 494.74 86.86 494.59 86.70
  Q 487.98 79.79 481.25 73.00
  Q 480.53 72.27 480.00 72.29"
/>
<path stroke="#ebd5a6" vector-effect="non-scaling-stroke" d="
  M 480.00 72.29
  Q 479.23 72.00 477.25 72.00
  Q 402.85 72.08 32.00 71.96"
/>
<path stroke="#e3c891" vector-effect="non-scaling-stroke" d="
  M 480.00 72.29
  L 480.04 103.50"
/>
<path stroke="#e7d09b" vector-effect="non-scaling-stroke" d="
  M 480.04 103.50
  Q 479.70 104.00 478.50 104.00
  Q 247.25 104.03 16.00 103.96"
/>
<path stroke="#e4b145" vector-effect="non-scaling-stroke" d="
  M 496.00 103.96
  Q 495.10 104.90 494.35 104.35
  C 494.04 104.13 493.74 104.00 493.50 104.00
  Q 487.50 104.00 481.50 104.00
  Q 480.49 104.00 480.04 103.50"
/>
<path stroke="#e7d09b" vector-effect="non-scaling-stroke" d="
  M 160.00 136.57
  C 160.00 136.26 159.74 136.00 159.43 136.00
  L 32.57 136.00
  C 32.26 136.00 32.00 136.26 32.00 136.57
  L 32.00 215.43
  C 32.00 215.74 32.26 216.00 32.57 216.00
  L 159.43 216.00
  C 159.74 216.00 160.00 215.74 160.00 215.43
  L 160.00 136.57"
/>
<path stroke="#dcdddd" vector-effect="non-scaling-stroke" d="
  M 144.00 152.63
  C 144.00 152.28 143.72 152.00 143.37 152.00
  L 48.63 152.00
  C 48.28 152.00 48.00 152.28 48.00 152.63
  L 48.00 167.37
  C 48.00 167.72 48.28 168.00 48.63 168.00
  L 143.37 168.00
  C 143.72 168.00 144.00 167.72 144.00 167.37
  L 144.00 152.63"
/>
<path stroke="#dcdddd" vector-effect="non-scaling-stroke" d="
  M 143.99 184.67
  C 143.99 184.30 143.69 184.00 143.32 184.00
  L 48.68 184.00
  C 48.31 184.00 48.01 184.30 48.01 184.67
  L 48.01 199.33
  C 48.01 199.70 48.31 200.00 48.68 200.00
  L 143.32 200.00
  C 143.69 200.00 143.99 199.70 143.99 199.33
  L 143.99 184.67"
/>
</g>
<path fill="#efc465" d="
  M 495.96 88.25
  Q 495.04 88.28 494.93 87.57
  C 494.87 87.17 494.74 86.86 494.59 86.70
  Q 487.98 79.79 481.25 73.00
  Q 480.53 72.27 480.00 72.29
  Q 479.23 72.00 477.25 72.00
  Q 402.85 72.08 32.00 71.96
  Q 32.00 66.30 32.00 60.65
  Q 32.00 52.88 33.27 49.50
  Q 36.85 40.00 49.00 39.99
  Q 79.48 39.96 109.97 40.05
  Q 112.18 40.06 114.17 41.07
  Q 128.03 48.09 141.98 54.92
  Q 144.06 55.94 146.36 55.94
  Q 310.38 56.04 474.40 56.00
  Q 483.76 56.00 487.39 57.54
  Q 495.66 61.06 496.00 71.75
  Q 496.08 74.32 495.96 88.25
  Z"
/>
<path fill="#e6e6e6" d="
  M 32.00 71.96
  Q 402.85 72.08 477.25 72.00
  Q 479.23 72.00 480.00 72.29
  L 480.04 103.50
  Q 479.70 104.00 478.50 104.00
  Q 247.25 104.03 16.00 103.96
  L 16.00 72.81
  C 16.00 72.36 16.37 72.00 16.82 71.99
  L 32.00 71.96
  Z"
/>
<path fill="#e0a93b" d="
  M 480.00 72.29
  Q 480.53 72.27 481.25 73.00
  Q 487.98 79.79 494.59 86.70
  C 494.74 86.86 494.87 87.17 494.93 87.57
  Q 495.04 88.28 495.96 88.25
  L 496.00 103.96
  Q 495.10 104.90 494.35 104.35
  C 494.04 104.13 493.74 104.00 493.50 104.00
  Q 487.50 104.00 481.50 104.00
  Q 480.49 104.00 480.04 103.50
  L 480.00 72.29
  Z"
/>
<path fill="#e8b94f" d="
  M 480.04 103.50
  Q 480.49 104.00 481.50 104.00
  Q 487.50 104.00 493.50 104.00
  C 493.74 104.00 494.04 104.13 494.35 104.35
  Q 495.10 104.90 496.00 103.96
  Q 504.00 103.99 512.00 104.06
  Q 512.00 272.94 512.00 441.81
  Q 511.38 447.21 510.44 449.69
  Q 501.90 472.08 477.50 472.07
  Q 255.38 472.00 33.25 471.88
  Q 14.48 471.87 4.81 456.69
  Q 0.73 450.27 0.00 441.69
  Q 0.00 272.94 0.00 104.19
  Q 8.00 103.89 16.00 103.96
  Q 247.25 104.03 478.50 104.00
  Q 479.70 104.00 480.04 103.50
  Z
  M 160.00 136.57
  C 160.00 136.26 159.74 136.00 159.43 136.00
  L 32.57 136.00
  C 32.26 136.00 32.00 136.26 32.00 136.57
  L 32.00 215.43
  C 32.00 215.74 32.26 216.00 32.57 216.00
  L 159.43 216.00
  C 159.74 216.00 160.00 215.74 160.00 215.43
  L 160.00 136.57
  Z"
/>
<path fill="#e6e6e6" d="
  M 160.00 215.43
  C 160.00 215.74 159.74 216.00 159.43 216.00
  L 32.57 216.00
  C 32.26 216.00 32.00 215.74 32.00 215.43
  L 32.00 136.57
  C 32.00 136.26 32.26 136.00 32.57 136.00
  L 159.43 136.00
  C 159.74 136.00 160.00 136.26 160.00 136.57
  L 160.00 215.43
  Z
  M 144.00 152.63
  C 144.00 152.28 143.72 152.00 143.37 152.00
  L 48.63 152.00
  C 48.28 152.00 48.00 152.28 48.00 152.63
  L 48.00 167.37
  C 48.00 167.72 48.28 168.00 48.63 168.00
  L 143.37 168.00
  C 143.72 168.00 144.00 167.72 144.00 167.37
  L 144.00 152.63
  Z
  M 143.99 184.67
  C 143.99 184.30 143.69 184.00 143.32 184.00
  L 48.68 184.00
  C 48.31 184.00 48.01 184.30 48.01 184.67
  L 48.01 199.33
  C 48.01 199.70 48.31 200.00 48.68 200.00
  L 143.32 200.00
  C 143.69 200.00 143.99 199.70 143.99 199.33
  L 143.99 184.67
  Z"
/>
<rect fill="#d1d3d4" x="48.00" y="152.00" width="96.00" height="16.00" rx="0.63"/>
<rect fill="#d1d3d4" x="48.01" y="184.00" width="95.98" height="16.00" rx="0.67"/>
</svg>
